<svg width="100" height="100" viewBox="0 0 100 100" fill="none" xmlns="http://www.w3.org/2000/svg">
<rect x="0.5" y="0.5" width="99" height="99" rx="49.5" fill="white"/>
<rect x="0.5" y="0.5" width="99" height="99" rx="49.5" stroke="black"/>
<path d="M32 40V36C32 34.9391 32.4214 33.9217 33.1716 33.1716C33.9217 32.4214 34.9391 32 36 32H40" stroke="black" stroke-width="3" stroke-linecap="round" stroke-linejoin="round"/>
<path d="M60 32H64C65.0609 32 66.0783 32.4214 66.8284 33.1716C67.5786 33.9217 68 34.9391 68 36V40" stroke="black" stroke-width="3" stroke-linecap="round" stroke-linejoin="round"/>
<path d="M68 60V64C68 65.0609 67.5786 66.0783 66.8284 66.8284C66.0783 67.5786 65.0609 68 64 68H60" stroke="black" stroke-width="3" stroke-linecap="round" stroke-linejoin="round"/>
<path d="M40 68H36C34.9391 68 33.9217 67.5786 33.1716 66.8284C32.4214 66.0783 32 65.0609 32 64V60" stroke="black" stroke-width="3" stroke-linecap="round" stroke-linejoin="round"/>
<path d="M42 54C42 54 45 58 50 58C55 58 58 54 58 54" stroke="black" stroke-width="3" stroke-linecap="round" stroke-linejoin="round"/>
<path d="M44 44H44.02" stroke="black" stroke-width="3" stroke-linecap="round" stroke-linejoin="round"/>
<path d="M56 44H56.02" stroke="black" stroke-width="3" stroke-linecap="round" stroke-linejoin="round"/>
</svg>
