<svg width="370" height="498" viewBox="0 0 370 498" fill="none" xmlns="http://www.w3.org/2000/svg">
<mask id="path-1-inside-1_2143_9431" fill="white">
<path d="M338 0C355.673 0 370 14.3269 370 32V412.053C370 429.726 355.673 444.053 338 444.053H147.979C147.993 444.529 148 445.008 148 445.487C148 474.482 122.032 497.987 90 497.987C57.9677 497.987 32.0003 474.482 32 445.487C32 445.008 32.0074 444.529 32.0215 444.053H32C14.3269 444.053 0 429.726 0 412.053V32C2.98838e-06 14.3269 14.3269 4.18769e-07 32 0H338Z"/>
</mask>
<path d="M338 0C355.673 0 370 14.3269 370 32V412.053C370 429.726 355.673 444.053 338 444.053H147.979C147.993 444.529 148 445.008 148 445.487C148 474.482 122.032 497.987 90 497.987C57.9677 497.987 32.0003 474.482 32 445.487C32 445.008 32.0074 444.529 32.0215 444.053H32C14.3269 444.053 0 429.726 0 412.053V32C2.98838e-06 14.3269 14.3269 4.18769e-07 32 0H338Z" fill="#DD6F3E"/>
<path d="M338 444.053V447.053V444.053ZM147.979 444.053V441.053H144.888L144.98 444.142L147.979 444.053ZM148 445.487L151 445.487V445.487H148ZM32 445.487H29V445.487L32 445.487ZM32.0215 444.053L35.0202 444.142L35.1117 441.053H32.0215V444.053ZM0 32H-3H0ZM32 0V-3V0ZM338 0V3C354.016 3 367 15.9837 367 32H370H373C373 12.67 357.33 -3 338 -3V0ZM370 32H367V412.053H370H373V32H370ZM370 412.053H367C367 428.069 354.016 441.053 338 441.053V444.053V447.053C357.33 447.053 373 431.383 373 412.053H370ZM338 444.053V441.053H147.979V444.053V447.053H338V444.053ZM147.979 444.053L144.98 444.142C144.993 444.59 145 445.038 145 445.487H148H151C151 444.977 150.992 444.469 150.977 443.964L147.979 444.053ZM148 445.487L145 445.487C145 472.551 120.664 494.987 90 494.987V497.987V500.987C123.401 500.987 151 476.413 151 445.487L148 445.487ZM90 497.987V494.987C59.3363 494.987 35.0003 472.551 35 445.487L32 445.487L29 445.487C29.0003 476.413 56.599 500.987 90 500.987V497.987ZM32 445.487H35C35 445.038 35.0069 444.59 35.0202 444.142L32.0215 444.053L29.0228 443.964C29.0078 444.469 29 444.977 29 445.487H32ZM32.0215 444.053V441.053H32V444.053V447.053H32.0215V444.053ZM32 444.053V441.053C15.9837 441.053 3 428.069 3 412.053H0H-3C-3 431.383 12.67 447.053 32 447.053V444.053ZM0 412.053H3V32H0H-3V412.053H0ZM0 32H3C3 15.9837 15.9837 3 32 3V0V-3C12.67 -3 -3 12.67 -3 32H0ZM32 0V3H338V0V-3H32V0Z" fill="#F6C489" mask="url(#path-1-inside-1_2143_9431)"/>
</svg>
