<svg width="28" height="34" viewBox="0 0 28 34" fill="none" xmlns="http://www.w3.org/2000/svg">
<path d="M1.97168 22.1406C1.97168 19.9315 3.76254 18.1406 5.97168 18.1406H21.6337C23.8428 18.1406 25.6337 19.9315 25.6337 22.1406V27.5548C25.6337 30.5011 22.5564 32.4363 19.9009 31.16L15.5354 29.0619C14.4402 28.5355 13.1651 28.5355 12.0699 29.0619L7.70443 31.16C5.04893 32.4363 1.97168 30.5011 1.97168 27.5548V22.1406Z" fill="#D8995D"/>
<circle cx="14" cy="14" r="12" fill="url(#paint0_linear_2237_10354)" stroke="#D7985E" stroke-width="4"/>
<path d="M13.4726 20.149C11.2326 20.149 9.50456 18.613 9.50456 16.597H12.0486C12.0486 17.269 12.6886 17.765 13.4566 17.765C14.1766 17.765 14.8646 17.301 14.8646 16.549C14.8646 15.829 14.2406 15.253 13.2966 15.253H11.9526V13.253H13.2966C14.0806 13.253 14.6726 12.805 14.6726 12.149C14.6726 11.477 14.0806 11.109 13.4726 11.109C12.8006 11.109 12.2406 11.525 12.2406 12.117H9.69656C9.69656 10.197 11.3286 8.72503 13.4726 8.72503C15.5366 8.72503 17.2166 10.085 17.2166 11.845C17.2166 12.837 16.6726 13.701 15.8246 14.213C16.7846 14.757 17.4086 15.765 17.4086 16.853C17.4086 18.709 15.6326 20.149 13.4726 20.149Z" fill="#CF7900"/>
<defs>
<linearGradient id="paint0_linear_2237_10354" x1="14" y1="0" x2="14" y2="28" gradientUnits="userSpaceOnUse">
<stop stop-color="#E7AF7E"/>
<stop offset="1" stop-color="#F9BF8E"/>
</linearGradient>
</defs>
</svg>
