<svg width="28" height="34" viewBox="0 0 28 34" fill="none" xmlns="http://www.w3.org/2000/svg">
<path d="M1.97168 22.1406C1.97168 19.9315 3.76254 18.1406 5.97168 18.1406H21.6337C23.8428 18.1406 25.6337 19.9315 25.6337 22.1406V27.5548C25.6337 30.5011 22.5564 32.4363 19.9009 31.16L15.5354 29.0619C14.4402 28.5355 13.1651 28.5355 12.0699 29.0619L7.70443 31.16C5.04893 32.4363 1.97168 30.5011 1.97168 27.5548V22.1406Z" fill="#96A3A8"/>
<circle cx="14" cy="14" r="12" fill="url(#paint0_linear_2237_10340)" stroke="#96A3A8" stroke-width="4"/>
<path d="M9.66456 19.957V18.405C9.66456 15.045 14.6566 14.309 14.6566 12.309C14.6566 11.637 14.1446 11.205 13.4566 11.205C12.7686 11.205 12.2726 11.637 12.2726 12.341H9.72856C9.72856 10.261 11.3446 8.72503 13.4886 8.72503C15.5846 8.72503 17.2006 10.197 17.2006 12.213C17.2006 15.157 13.8246 16.245 12.5286 17.621H17.2806V19.957H9.66456Z" fill="white"/>
<defs>
<linearGradient id="paint0_linear_2237_10340" x1="14" y1="0" x2="14" y2="28" gradientUnits="userSpaceOnUse">
<stop stop-color="#90A8BB"/>
<stop offset="1" stop-color="#ABC1D3"/>
</linearGradient>
</defs>
</svg>
