<svg width="100" height="100" viewBox="0 0 100 100" fill="none" xmlns="http://www.w3.org/2000/svg">
<path d="M16.0415 35.9169C15.4333 33.1774 15.5267 30.3288 16.313 27.635C17.0992 24.9412 18.5529 22.4896 20.5393 20.5074C22.5256 18.5252 24.9803 17.0767 27.6757 16.2961C30.3711 15.5154 33.22 15.428 35.9582 16.0419C37.4653 13.6848 39.5415 11.7451 41.9955 10.4014C44.4494 9.0578 47.2021 8.35352 49.9998 8.35352C52.7975 8.35352 55.5502 9.0578 58.0042 10.4014C60.4581 11.7451 62.5344 13.6848 64.0415 16.0419C66.7839 15.4253 69.6376 15.5124 72.3373 16.2949C75.037 17.0774 77.495 18.53 79.4825 20.5175C81.4701 22.5051 82.9227 24.963 83.7052 27.6628C84.4877 30.3625 84.5747 33.2162 83.9582 35.9586C86.3152 37.4657 88.255 39.5419 89.5986 41.9959C90.9423 44.4498 91.6466 47.2025 91.6466 50.0002C91.6466 52.798 90.9423 55.5507 89.5986 58.0046C88.255 60.4586 86.3152 62.5348 83.9582 64.0419C84.5721 66.7801 84.4846 69.629 83.704 72.3244C82.9234 75.0198 81.4748 77.4744 79.4927 79.4608C77.5105 81.4471 75.0588 82.9008 72.3651 83.6871C69.6713 84.4734 66.8226 84.5667 64.0832 83.9586C62.578 86.3247 60.5001 88.2728 58.042 89.6224C55.5839 90.9721 52.8249 91.6796 50.0207 91.6796C47.2164 91.6796 44.4574 90.9721 41.9993 89.6224C39.5412 88.2728 37.4633 86.3247 35.9582 83.9586C33.22 84.5725 30.3711 84.4851 27.6757 83.7044C24.9803 82.9238 22.5256 81.4753 20.5393 79.4931C18.5529 77.5109 17.0992 75.0593 16.313 72.3655C15.5267 69.6717 15.4333 66.823 16.0415 64.0836C13.6663 62.5804 11.7099 60.501 10.3542 58.0386C8.99851 55.5763 8.2876 52.8111 8.2876 50.0002C8.2876 47.1894 8.99851 44.4242 10.3542 41.9618C11.7099 39.4995 13.6663 37.4201 16.0415 35.9169Z" fill="#FFC300" stroke="black" stroke-width="3" stroke-linecap="round" stroke-linejoin="round"/>
<path d="M37.5 49.9998L45.8333 58.3332L62.5 41.6665" stroke="black" stroke-width="3" stroke-linecap="round" stroke-linejoin="round"/>
</svg>
