<svg width="100" height="100" viewBox="0 0 100 100" fill="none" xmlns="http://www.w3.org/2000/svg">
<path d="M16.042 35.9169C15.4338 33.1774 15.5272 30.3288 16.3135 27.635C17.0997 24.9412 18.5534 22.4896 20.5398 20.5074C22.5261 18.5252 24.9808 17.0767 27.6762 16.2961C30.3716 15.5154 33.2205 15.428 35.9586 16.0419C37.4658 13.6848 39.542 11.7451 41.9959 10.4014C44.4499 9.0578 47.2026 8.35352 50.0003 8.35352C52.798 8.35352 55.5507 9.0578 58.0047 10.4014C60.4586 11.7451 62.5349 13.6848 64.042 16.0419C66.7843 15.4253 69.6381 15.5124 72.3378 16.2949C75.0375 17.0774 77.4954 18.53 79.483 20.5175C81.4706 22.5051 82.9232 24.963 83.7057 27.6627C84.4882 30.3625 84.5752 33.2162 83.9586 35.9586C86.3157 37.4657 88.2555 39.5419 89.5991 41.9959C90.9428 44.4498 91.647 47.2025 91.647 50.0002C91.647 52.798 90.9428 55.5507 89.5991 58.0046C88.2555 60.4586 86.3157 62.5348 83.9586 64.0419C84.5725 66.7801 84.4851 69.629 83.7045 72.3244C82.9239 75.0198 81.4753 77.4745 79.4931 79.4608C77.511 81.4471 75.0593 82.9008 72.3656 83.6871C69.6718 84.4734 66.8231 84.5667 64.0836 83.9586C62.5785 86.3247 60.5006 88.2728 58.0425 89.6224C55.5844 90.9721 52.8254 91.6796 50.0211 91.6796C47.2169 91.6796 44.4579 90.9721 41.9998 89.6224C39.5417 88.2728 37.4638 86.3247 35.9586 83.9586C33.2205 84.5725 30.3716 84.4851 27.6762 83.7044C24.9808 82.9238 22.5261 81.4753 20.5398 79.4931C18.5534 77.5109 17.0997 75.0593 16.3135 72.3655C15.5272 69.6717 15.4338 66.823 16.042 64.0836C13.6668 62.5804 11.7104 60.501 10.3547 58.0386C8.99899 55.5763 8.28809 52.8111 8.28809 50.0002C8.28809 47.1894 8.99899 44.4242 10.3547 41.9618C11.7104 39.4995 13.6668 37.4201 16.042 35.9169Z" stroke="black" stroke-width="3" stroke-linecap="round" stroke-linejoin="round"/>
<path d="M37.5 49.9998L45.8333 58.3332L62.5 41.6665" stroke="black" stroke-width="3" stroke-linecap="round" stroke-linejoin="round"/>
</svg>
