<svg width="225" height="112" viewBox="0 0 225 112" fill="none" xmlns="http://www.w3.org/2000/svg">
<g opacity="0.28">
<path opacity="0.28" d="M41.7105 96.1746C26.9147 96.1746 14.8789 83.37 14.8789 67.6339V44.3699C14.8789 28.6283 26.9147 15.8237 41.7105 15.8237H182.6C197.395 15.8237 209.431 28.6283 209.431 44.3699V67.6339C209.431 83.37 197.395 96.1746 182.6 96.1746H41.7105Z" fill="black"/>
<path opacity="0.28" d="M182.599 112H41.7103C18.7118 112 0 92.0879 0 67.6348V44.3708C0 19.9065 18.7118 0 41.7103 0H182.599C205.598 0 224.31 19.9121 224.31 44.3708V67.6348C224.31 92.099 205.598 112 182.599 112ZM41.7103 31.6547C35.1227 31.6547 29.7575 37.3573 29.7575 44.3763V67.6403C29.7575 74.6483 35.1227 80.3619 41.7103 80.3619H182.599C189.193 80.3619 194.558 74.6538 194.558 67.6403V44.3763C194.558 37.3628 189.193 31.6547 182.599 31.6547H41.7103Z" fill="black"/>
<path opacity="0.28" d="M190.78 42.3407V64.5371C190.78 71.2243 185.664 76.6724 179.375 76.6724H44.9684C38.6795 76.6724 33.5576 71.2243 33.5576 64.5371V42.3407C33.5576 37.0474 36.7546 32.5395 41.2017 30.8802C42.4071 30.4329 43.6826 30.2043 44.9684 30.2053H179.375C185.664 30.2053 190.78 35.648 190.78 42.3407Z" fill="black"/>
<path opacity="0.28" d="M179.375 0H44.9683C35.4375 0.0311653 26.2615 3.61912 19.2374 10.0612C16.1091 12.895 13.4258 16.1843 11.2781 19.8181C7.25299 26.6397 5.14158 34.4203 5.16623 42.3409V64.5373C5.16623 87.8787 23.0207 106.873 44.9904 106.873H179.397C201.339 106.873 219.221 87.8787 219.221 64.5373V42.3409C219.177 18.994 201.317 0 179.375 0ZM204.995 64.5373C204.995 79.5544 193.507 91.7727 179.392 91.7727H44.9849C30.8639 91.7727 19.3757 79.5544 19.3757 64.5373V42.3409C19.368 38.2914 20.2221 34.2867 21.8813 30.5928C22.597 29.0119 23.4581 27.5009 24.4533 26.0793C26.0017 23.8685 27.8759 21.9048 30.0121 20.255C34.2929 16.9231 39.5603 15.1096 44.9849 15.1H179.392C193.507 15.1 204.995 27.3183 204.995 42.3409V64.5373Z" fill="black"/>
<g opacity="0.32">
<path opacity="0.32" d="M24.4086 26.08C23.4133 27.5016 22.5523 29.0125 21.8366 30.5934L11.25 19.8188C12.1238 18.3392 13.0881 16.915 14.1373 15.5542L24.4086 26.08Z" fill="black"/>
</g>
<g opacity="0.32">
<path opacity="0.32" d="M44.9408 15.1C39.5162 15.1096 34.2488 16.9231 29.968 20.255L19.21 10.0612C26.234 3.61912 35.41 0.0311653 44.9408 0H48.2318L64.2721 15.1H44.9408Z" fill="black"/>
</g>
<path opacity="0.28" d="M179.374 19.7464C191.1 19.7464 200.608 29.8629 200.608 42.3411V64.532C200.608 77.0103 191.1 87.1267 179.374 87.1267H44.9345C33.2085 87.1267 23.7005 77.0103 23.7005 64.532V42.3411C23.7005 29.8629 33.2085 19.7464 44.9345 19.7464H179.374ZM179.374 10.4541H44.9345C28.413 10.4541 14.9668 24.7576 14.9668 42.3411V64.532C14.9668 82.1155 28.413 96.4191 44.9345 96.4191H179.374C195.901 96.4191 209.348 82.1155 209.348 64.532V42.3411C209.348 24.7576 195.901 10.4541 179.374 10.4541Z" fill="black"/>
<path opacity="0.28" d="M204.995 42.3299V64.5429C205.001 71.1237 202.719 77.5018 198.54 82.5855C196.224 85.4338 193.307 87.7345 189.997 89.3229C186.688 90.9112 183.068 91.7478 179.397 91.7727H44.9292C32.1412 91.7727 21.5214 81.7448 19.6298 68.6968C19.432 67.3266 19.3322 65.9439 19.3311 64.5595V42.3465C19.326 38.7038 20.0169 35.0936 21.3665 31.7101C25.2715 21.9698 34.3592 15.1167 44.9292 15.1167H179.38C183.089 15.141 186.746 15.9939 190.083 17.6131C193.42 19.2324 196.353 21.5769 198.667 24.4753C202.779 29.515 205.016 35.8254 204.995 42.3299Z" fill="black"/>
<g opacity="0.32">
<path opacity="0.32" d="M204.994 42.3291V64.5421C204.999 67.1903 204.626 69.8255 203.888 72.3686C142.061 18.2852 52.119 26.7866 21.3604 31.6872C25.2653 21.9524 34.353 15.0938 44.923 15.0938H179.379C183.089 15.1187 186.746 15.9725 190.083 17.5927C193.42 19.2129 196.353 21.5585 198.667 24.4579C202.784 29.5009 205.021 35.8185 204.994 42.3291Z" fill="black"/>
</g>
<path opacity="0.28" d="M200.166 51.3124C200.166 42.717 198.556 32.5065 193.733 27.3681C188.91 22.2296 186.1 32.407 190.719 46.5611C195.337 60.7153 200.166 59.8469 200.166 51.3124Z" fill="black"/>
<path opacity="0.28" d="M169.967 19.8458C172.528 17.5062 182.423 18.4465 186.068 20.764C189.713 23.0816 187.307 27.3571 178.463 25.648C169.618 23.9389 167.898 21.743 169.967 19.8458Z" fill="black"/>
<path opacity="0.28" d="M198.523 82.5847C196.207 85.433 193.29 87.7337 189.981 89.3221C186.671 90.9104 183.051 91.747 179.38 91.7719H44.9291C32.1412 91.7719 21.5214 81.744 19.6297 68.696C19.432 67.3258 19.3322 65.9431 19.3311 64.5587V63.1538C25.4153 71.6828 42.4623 82.723 89.9194 83.6854C154.269 84.9686 186.189 88.492 198.523 82.5847Z" fill="black"/>
<path opacity="0.28" d="M109.461 91.7722H44.9293C32.1468 91.7722 21.516 81.7442 19.6299 68.6963C21.4386 73.2042 23.3413 78.6523 30.576 84.6425C42.6947 94.6705 81.2855 91.2191 109.461 91.7722Z" fill="black"/>
<path opacity="0.28" d="M87.9345 71.5403C87.8812 71.546 87.8274 71.546 87.7741 71.5403C86.7186 71.3734 85.6513 71.292 84.5826 71.2969C84.5218 71.2969 84.3172 71.297 83.6921 71.3246C83.1999 71.3246 81.983 71.3633 80.0803 71.402C79.8049 71.3948 79.5433 71.2803 79.3511 71.083C79.1589 70.8856 79.0514 70.6211 79.0515 70.3456C78.9851 68.5037 78.9519 66.8444 78.9519 65.4118L78.7252 57.8507C78.5439 58.1438 78.2931 58.3876 77.9949 58.5603C77.6967 58.7331 77.3605 58.8294 77.016 58.8408H76.9718C76.6901 58.8145 76.4165 58.7326 76.1667 58.5996C75.917 58.4667 75.6962 58.2854 75.5171 58.0664C75.5171 61.3464 75.6665 65.3565 75.9541 69.975C75.971 70.2381 75.8933 70.4986 75.7351 70.7096C75.5769 70.9205 75.3486 71.068 75.0912 71.1254C73.6407 71.3753 72.1714 71.5012 70.6995 71.5016H70.6718L67.3808 71.402H66.7171C66.4891 71.4102 66.2627 71.3608 66.0589 71.2582C65.8745 71.1538 65.7208 71.0027 65.6131 70.8203C65.5053 70.6378 65.4474 70.4303 65.4449 70.2184L65.4007 69.6653C65.4034 69.6507 65.4034 69.6356 65.4007 69.621C65.3343 68.2935 65.3066 65.6386 65.3066 61.5013C65.3066 56.7667 65.3509 47.6734 65.4504 34.5149C65.4507 34.2927 65.5178 34.0757 65.6431 33.8922C65.7684 33.7087 65.946 33.5672 66.1529 33.4861C66.7139 33.2888 67.2942 33.1517 67.8841 33.0768C68.6923 32.9898 69.5051 32.9528 70.3179 32.9661L72.7073 33.016C73.3821 33.016 73.8854 33.0159 74.2062 32.9661H74.3003C74.4501 32.9664 74.598 33.0004 74.733 33.0655C74.8679 33.1306 74.9866 33.2252 75.0802 33.3423C75.615 34.0243 76.0473 34.7808 76.3634 35.5879C76.5514 36.0414 76.8225 36.7605 77.1765 37.7284C77.5636 36.6886 78.1168 35.245 78.8358 33.381C78.9074 33.1854 79.0367 33.0163 79.2066 32.8958C79.3765 32.7753 79.5789 32.7091 79.7872 32.7062C79.8655 32.7045 79.9437 32.7138 80.0195 32.7339C80.487 32.8297 80.9638 32.8724 81.441 32.8611C81.9443 32.8611 82.8127 32.8278 84.0074 32.7559L88.117 32.6509C88.2519 32.6529 88.3849 32.6818 88.5084 32.736C88.6319 32.7901 88.7433 32.8683 88.8361 32.9661C89.0361 33.1786 89.147 33.4598 89.1458 33.7516L88.9523 70.4507C88.9504 70.6064 88.9172 70.7602 88.8544 70.9028C88.7917 71.0453 88.7008 71.1738 88.5872 71.2803C88.4077 71.4421 88.1761 71.5343 87.9345 71.5403Z" fill="black"/>
<path opacity="0.28" d="M88.1279 33.7449L87.9343 70.4439C86.826 70.2661 85.705 70.1792 84.5825 70.184L83.6588 70.2117C83.172 70.2117 81.9718 70.2504 80.0635 70.2891C79.9972 68.4251 79.964 66.7934 79.964 65.3775L79.6266 54.0054L79.0403 55.1946C78.7017 55.8722 78.3212 56.528 77.9009 57.1581C77.8065 57.3163 77.6752 57.4494 77.5181 57.5457C77.3611 57.642 77.1831 57.6988 76.9993 57.7113C76.2876 57.6781 75.445 56.4373 74.4715 53.9888C74.4447 54.4364 74.4447 54.8853 74.4715 55.3329C74.4715 55.886 74.4715 56.3174 74.4715 56.6272V57.9491C74.4715 61.2973 74.6172 65.3295 74.9085 70.0457C73.513 70.2878 72.0991 70.4081 70.6827 70.4053L67.364 70.3057H66.7169C66.6531 70.3191 66.5871 70.3191 66.5233 70.3057C66.4901 70.3057 66.4735 70.2448 66.4735 70.1785L66.4237 69.6253C66.3574 68.3163 66.326 65.6282 66.3297 61.561C66.3297 56.8079 66.3776 47.8161 66.4735 34.5856C66.9695 34.4089 67.4832 34.2865 68.0056 34.2205C68.7718 34.1405 69.5419 34.1055 70.3121 34.1155L72.6905 34.1708C73.404 34.1708 73.9406 34.1708 74.2946 34.1155C74.7584 34.7137 75.1312 35.3772 75.4008 36.0845C75.7253 36.8773 76.3245 38.4961 77.1984 40.9409C77.2316 40.869 77.3367 40.526 77.5137 39.9066C77.6907 39.2871 78.4484 37.2682 79.7759 33.861C80.3214 33.9751 80.8781 34.027 81.4352 34.0159C81.9496 34.0159 82.8236 33.9827 84.057 33.9108L88.139 33.8057L88.1279 33.7449ZM88.139 31.5932H88.0837L84.0072 31.6928H83.9464C82.4806 31.7758 81.7671 31.7923 81.4352 31.7923C81.0363 31.806 80.6372 31.7726 80.246 31.6928C80.094 31.6557 79.938 31.6371 79.7814 31.6375C79.3651 31.6442 78.9606 31.7767 78.621 32.0176C78.2814 32.2585 78.0227 32.5964 77.8787 32.9871C77.6077 33.684 77.3699 34.3035 77.1597 34.8511C76.8199 34.0602 76.3793 33.3166 75.8488 32.6386C75.6612 32.4051 75.4238 32.2164 75.1539 32.0863C74.8841 31.9561 74.5886 31.8878 74.289 31.8864H74.101C73.9074 31.8864 73.5036 31.9306 72.7071 31.9306L70.3509 31.8809H70.3066C69.4533 31.8693 68.6 31.9081 67.7512 31.997C67.0919 32.0832 66.4432 32.2371 65.8153 32.4561C65.4016 32.6183 65.0463 32.9014 64.7957 33.2684C64.5451 33.6354 64.4108 34.0693 64.4104 34.5137C64.3108 47.6889 64.2666 56.7765 64.2666 61.5111C64.2666 65.665 64.2998 68.3421 64.3662 69.6917C64.3634 69.7193 64.3634 69.7471 64.3662 69.7747L64.4104 70.2891C64.4224 70.6848 64.5361 71.0707 64.7405 71.4098C64.9449 71.7488 65.2332 72.0296 65.5775 72.225C65.9192 72.4009 66.2995 72.4883 66.6837 72.4794H67.3308L70.6053 72.5845H70.6661C72.1935 72.5831 73.7181 72.4536 75.2238 72.1973C75.7434 72.0898 76.2057 71.7958 76.5235 71.371C76.8414 70.9461 76.9929 70.4197 76.9495 69.8908C76.7172 66.1186 76.5734 62.7612 76.5291 59.8795C76.6497 59.9012 76.7717 59.9141 76.8942 59.9182H76.9827C77.2334 59.9175 77.4828 59.8821 77.7239 59.8131L77.8898 65.4106C77.8898 66.8542 77.923 68.5191 77.9894 70.3886C77.9934 70.9363 78.2093 71.4611 78.5919 71.853C78.9745 72.2449 79.494 72.4734 80.0414 72.4905H80.0801C82.016 72.4573 83.2052 72.4296 83.7085 72.4131C84.3502 72.4131 84.5327 72.4131 84.5659 72.4131C85.5809 72.4069 86.5947 72.4846 87.5969 72.6453C87.7037 72.6538 87.811 72.6538 87.9177 72.6453C88.4158 72.6352 88.8918 72.4377 89.2507 72.0922C89.4793 71.8804 89.6616 71.6238 89.7863 71.3382C89.911 71.0527 89.9753 70.7444 89.9753 70.4329L90.1689 33.7725V33.7227C90.1808 33.4424 90.1369 33.1625 90.04 32.8993C89.9431 32.636 89.7949 32.3945 89.6041 32.1888C89.4133 31.983 89.1836 31.8172 88.9284 31.7007C88.6731 31.5843 88.3973 31.5195 88.1169 31.5103L88.139 31.5932Z" fill="black"/>
<path opacity="0.28" d="M102.265 72.0538C101.629 72.0538 100.766 72.0207 99.6268 71.9488C99.1345 71.9156 98.3878 71.899 97.4143 71.899C97.3721 71.9044 97.3293 71.9044 97.2871 71.899C96.0763 71.7189 94.9172 71.2855 93.8854 70.6268L93.7637 70.5383C91.9404 68.9181 90.6246 66.8051 89.9749 64.4541C89.1786 61.7953 88.7852 59.0322 88.8078 56.2569C88.7813 53.3742 89.1916 50.5043 90.0247 47.7445L90.0634 47.6449C90.8672 45.7954 92.33 44.3109 94.1675 43.48C96.1191 42.5385 98.2621 42.0615 100.429 42.0861C101.648 42.0855 102.862 42.2323 104.046 42.5231C105.314 42.7427 106.518 43.236 107.576 43.9687C108.633 44.7014 109.518 45.6558 110.169 46.7655C111.468 49.1136 112.117 51.7657 112.05 54.4483C112.05 54.9184 112.017 55.7038 111.95 56.8432C111.938 57.066 111.858 57.2797 111.722 57.4564C111.586 57.6331 111.399 57.7645 111.187 57.8333C110.75 57.955 109.815 58.1431 106.762 58.3864C104.549 58.5413 102.442 58.6187 100.523 58.6187H98.9243C98.9343 59.3954 98.9878 60.1711 99.0847 60.9418C99.1672 61.3914 99.3383 61.82 99.588 62.2029L99.6323 62.2803C99.7741 62.5921 99.9978 62.8597 100.279 63.0547C100.508 63.2113 100.777 63.2978 101.054 63.3036C101.192 63.3036 101.48 63.3036 101.817 62.6896C102.038 62.2858 102.282 61.4617 102.215 59.8467C102.206 59.6883 102.231 59.5298 102.288 59.3819C102.345 59.2339 102.434 59.1001 102.547 58.9893C102.734 58.8088 102.984 58.7077 103.244 58.7072C103.29 58.7018 103.336 58.7018 103.382 58.7072C103.987 58.793 104.597 58.8355 105.208 58.8344C105.523 58.8344 105.855 58.8344 106.192 58.8013H106.308L110.877 59.0557C111.15 59.0809 111.403 59.2096 111.584 59.4153C111.765 59.621 111.86 59.8881 111.851 60.1619C111.848 61.7861 111.739 63.4083 111.524 65.0183C111.399 66.4783 110.927 67.8873 110.147 69.1279C109.351 70.299 108.165 71.1498 106.801 71.5284C105.322 71.9195 103.794 72.0965 102.265 72.0538ZM101.878 51.6716H101.911L103.128 51.7158C103.088 51.4551 103.016 51.2005 102.912 50.9581C102.815 50.7108 102.655 50.4934 102.448 50.3275H102.403C102.304 50.2985 102.209 50.2557 102.121 50.2003C101.894 50.0292 101.624 49.9223 101.341 49.8906C100.747 49.8294 100.152 50.002 99.6821 50.3718C99.3799 50.7576 99.1886 51.2184 99.129 51.7048H99.7153H101.9L101.878 51.6716Z" fill="black"/>
<path opacity="0.28" d="M100.418 43.1532C101.565 43.1507 102.707 43.29 103.82 43.568C104.95 43.7524 106.025 44.1835 106.97 44.8307C107.914 45.4779 108.704 46.3253 109.284 47.3126C110.483 49.4856 111.079 51.9394 111.01 54.4201C111.01 54.8681 110.977 55.6424 110.91 56.7487C109.516 57.0173 108.104 57.18 106.685 57.2354C104.472 57.3903 102.416 57.4677 100.517 57.4677H97.8902V58.574C97.9007 59.4117 97.958 60.2482 98.0617 61.0796C98.1693 61.6708 98.393 62.2347 98.7198 62.7389C98.9431 63.2215 99.2953 63.633 99.7376 63.9281C100.123 64.194 100.58 64.3384 101.048 64.343C101.407 64.3286 101.754 64.2114 102.048 64.0055C102.343 63.7996 102.571 63.5135 102.708 63.1814C103.187 62.1037 103.377 60.9201 103.261 59.7466C103.912 59.8369 104.568 59.8812 105.224 59.8793C105.562 59.8793 105.916 59.8793 106.27 59.8462L110.839 60.1061C110.837 61.6785 110.732 63.2491 110.523 64.8076C110.417 66.0901 110.01 67.3294 109.334 68.4249C108.671 69.4014 107.68 70.1079 106.541 70.4162C105.157 70.8053 103.725 70.9916 102.287 70.9693C101.673 70.9693 100.811 70.9361 99.7099 70.8697C99.1955 70.831 98.4322 70.8144 97.4256 70.8144C96.3564 70.6596 95.3315 70.2827 94.4166 69.7082C92.7491 68.2198 91.55 66.279 90.9652 64.1217C90.2034 61.5742 89.8305 58.9263 89.859 56.2675C89.8293 53.5025 90.2229 50.7493 91.0261 48.1035C91.7308 46.4911 93.0133 45.2008 94.6213 44.4862C96.4378 43.6081 98.4337 43.165 100.451 43.1918L100.418 43.1532ZM98.7973 52.794C99.0407 52.794 99.3504 52.794 99.7431 52.794H101.884L103.338 52.8437H103.969C104.009 52.8524 104.05 52.8524 104.091 52.8437C104.124 52.8437 104.151 52.8437 104.163 52.8437C104.204 52.784 104.222 52.7111 104.212 52.6391V52.4178C104.225 51.7614 104.101 51.1095 103.847 50.5041C103.653 50.0103 103.303 49.593 102.852 49.3148L102.658 49.2651C102.274 48.9899 101.819 48.8288 101.347 48.8004C100.213 48.8004 99.4057 49.0714 98.919 49.6246C98.3876 50.2881 98.0815 51.1038 98.0451 51.9532C98.0103 52.1056 97.9936 52.2615 97.9953 52.4178C97.9899 52.4608 97.9933 52.5045 98.0053 52.5462C98.0173 52.5878 98.0376 52.6267 98.065 52.6603C98.0924 52.6939 98.1263 52.7216 98.1647 52.7417C98.2031 52.7618 98.2452 52.7739 98.2884 52.7773C98.4578 52.7903 98.6279 52.7903 98.7973 52.7773V52.794ZM100.423 40.9462C98.1073 40.9216 95.8168 41.4327 93.7308 42.4396C91.6616 43.3864 90.0177 45.0677 89.1178 47.1577C89.0901 47.2241 89.068 47.2904 89.0459 47.3568C88.1748 50.225 87.7458 53.2092 87.7737 56.2066C87.7504 59.0985 88.1624 61.9775 88.9961 64.7467C89.6985 67.3126 91.1322 69.6188 93.1223 71.3841C93.1998 71.448 93.2811 71.5071 93.3657 71.5611C94.5143 72.2917 95.803 72.774 97.149 72.9771H97.409C98.3714 72.9771 99.0683 72.977 99.5661 73.0213C100.722 73.0932 101.602 73.1264 102.26 73.1264C103.884 73.1499 105.502 72.9395 107.066 72.5014C108.658 72.06 110.041 71.0657 110.966 69.6971C111.848 68.3103 112.385 66.7322 112.531 65.0952C112.752 63.4339 112.865 61.7599 112.869 60.084C112.642 59.8774 112.464 59.6245 112.344 59.3425C112.225 59.0606 112.168 58.7561 112.177 58.4501C112.186 58.144 112.26 57.8435 112.396 57.569C112.532 57.2944 112.725 57.0524 112.963 56.8593C113.029 55.6978 113.062 54.8902 113.062 54.3979C113.131 51.5139 112.43 48.6636 111.032 46.14C110.313 44.9046 109.334 43.8409 108.162 43.0232C106.99 42.2054 105.653 41.6533 104.245 41.4053C102.992 41.0944 101.704 40.9384 100.412 40.9407L100.423 40.9462ZM100.003 59.6415H101.187C101.181 59.7022 101.181 59.7633 101.187 59.824C101.248 61.3008 101.026 61.8871 100.927 62.0696L100.838 62.0254C100.714 61.9331 100.616 61.8089 100.556 61.6659L100.468 61.5055C100.297 61.2524 100.177 60.9688 100.114 60.6703C100.114 60.4767 100.053 60.1559 100.02 59.6138L100.003 59.6415Z" fill="black"/>
<path opacity="0.28" d="M112.465 71.5888C112.336 71.5889 112.209 71.5635 112.09 71.5141C111.971 71.4648 111.864 71.3924 111.773 71.3012C111.665 71.1966 111.579 71.071 111.521 70.9322C111.463 70.7933 111.434 70.6441 111.436 70.4936C111.436 66.4172 111.436 63.3031 111.392 61.3119C111.325 56.887 111.292 53.4522 111.292 51.1125C111.292 49.4034 111.325 46.9752 111.392 43.922C111.392 43.7703 111.424 43.6204 111.485 43.4815C111.546 43.3425 111.634 43.2177 111.746 43.1145C111.929 42.9443 112.17 42.8495 112.42 42.849H112.548C113.31 42.9632 114.078 43.0297 114.849 43.0481C115.342 43.0484 115.836 43.0169 116.325 42.9541L117.155 42.849H117.183C117.935 42.7771 118.51 42.7439 118.93 42.7439C119.511 42.7439 120.866 42.7439 121.182 43.8943C121.182 43.9331 121.182 43.9774 121.182 44.0161C121.182 44.0548 121.182 44.1598 121.209 44.2373C121.696 44.0059 122.196 43.8064 122.708 43.6399C123.78 43.2869 124.899 43.1004 126.027 43.0868C128.416 43.0868 130.314 43.734 131.669 45.0172C132.46 45.775 133.372 47.5173 133.372 54.3648C133.372 55.7863 133.339 57.9103 133.273 60.8473C133.212 63.2976 133.179 65.0731 133.179 66.1461C133.179 67.3076 133.212 68.613 133.273 70.0179C133.292 70.2821 133.213 70.5442 133.05 70.7535C132.888 70.9629 132.654 71.1047 132.393 71.1518C130.949 71.3771 129.491 71.4918 128.029 71.4947C127.681 71.4947 127.327 71.4947 126.978 71.4947H124.716C124.447 71.4879 124.191 71.3788 124 71.1897C123.809 71.0006 123.697 70.7457 123.687 70.477C123.621 69.4151 123.588 67.4294 123.588 64.3928V61.8208C123.588 60.2057 123.588 59.022 123.499 58.2919L123.455 58.0209C123.455 57.9656 123.455 57.9048 123.455 57.8439V57.5231C123.394 56.6104 123.322 55.8637 123.25 55.377C123.192 54.9921 123.04 54.6274 122.808 54.3151C122.753 54.2376 122.609 54.0274 122.056 54.0274C121.924 54.0346 121.796 54.0723 121.682 54.1376C121.568 54.2029 121.47 54.294 121.397 54.4035C121.108 54.8334 120.966 55.346 120.994 55.8637V55.9025C120.96 56.3837 120.944 57.1635 120.944 58.2034C120.944 59.0607 120.977 60.3108 121.043 61.9314C121.11 63.6958 121.137 64.9791 121.137 65.853C121.145 67.2752 121.079 68.6967 120.938 70.112C120.915 70.3249 120.831 70.5267 120.695 70.6926C120.56 70.8586 120.379 70.9816 120.175 71.0468C119.43 71.2678 118.668 71.4251 117.896 71.5169C117.548 71.5501 117.172 71.5666 116.79 71.5666C116.536 71.5666 116.264 71.5666 115.988 71.5666H115.944C115.772 71.5666 115.391 71.5224 114.649 71.5224C113.908 71.5224 113.228 71.5556 112.553 71.6219L112.465 71.5888Z" fill="black"/>
<path opacity="0.28" d="M118.931 43.8237C119.705 43.8237 120.125 43.9454 120.192 44.1887C120.269 44.7884 120.303 45.3929 120.291 45.9974V46.0472C120.319 46.0472 120.33 46.0472 120.291 46.0472C120.253 46.0472 120.291 46.0472 120.291 46.0472C121.984 44.8931 123.979 44.2639 126.027 44.2385C128.168 44.2385 129.816 44.7916 131.005 45.8978C131.912 46.7607 132.366 49.6037 132.366 54.4269C132.366 55.8392 132.333 57.9926 132.266 60.8873C132.204 63.3652 132.172 65.1389 132.172 66.2082C132.172 67.3808 132.204 68.6898 132.266 70.1353C130.872 70.3542 129.463 70.4651 128.052 70.4672C127.709 70.4672 127.366 70.4672 127.023 70.4672H124.738C124.672 69.4384 124.639 67.4361 124.639 64.477V61.822C124.639 60.1368 124.607 58.9145 124.545 58.1549L124.495 57.8451V57.4801C124.429 56.5177 124.357 55.7599 124.274 55.2068C124.192 54.6471 123.976 54.1156 123.643 53.658C123.463 53.4144 123.223 53.2204 122.948 53.0937C122.672 52.9671 122.369 52.912 122.067 52.9335C121.793 52.9424 121.524 53.012 121.28 53.1373C121.036 53.2626 120.823 53.4404 120.656 53.658C120.188 54.2816 119.948 55.047 119.976 55.8263C119.943 56.3462 119.926 57.1371 119.926 58.2046C119.926 59.0675 119.959 60.3249 120.026 61.9769C120.087 63.7026 120.12 64.9914 120.12 65.8487C120.13 67.2303 120.065 68.6114 119.926 69.986C119.235 70.189 118.528 70.3352 117.813 70.4229C117.473 70.4552 117.132 70.47 116.79 70.4672H116.038C115.571 70.4214 115.102 70.4029 114.633 70.4119C113.886 70.4119 113.156 70.4506 112.421 70.5169C112.421 66.3833 112.406 63.3172 112.376 61.3186C112.31 56.8384 112.277 53.4442 112.277 51.1359C112.277 49.447 112.31 47.0502 112.376 43.9454C113.18 44.0658 113.991 44.136 114.804 44.1556C115.341 44.1545 115.877 44.1194 116.408 44.0505L117.233 43.9454C117.946 43.879 118.494 43.8403 118.892 43.8403L118.931 43.8237ZM118.892 41.6278C118.438 41.6278 117.835 41.661 117.05 41.7384L116.22 41.8435C115.775 41.9046 115.326 41.9342 114.876 41.9321C114.148 41.9142 113.422 41.8495 112.703 41.7384H112.448C111.946 41.7452 111.466 41.943 111.104 42.2915C110.882 42.4961 110.704 42.7439 110.581 43.0198C110.459 43.2956 110.394 43.5937 110.391 43.8956C110.324 46.9764 110.291 49.4267 110.291 51.1303C110.291 53.4755 110.324 56.9104 110.391 61.3463C110.391 63.3597 110.435 66.4405 110.435 70.5114C110.432 70.8123 110.49 71.1108 110.606 71.3885C110.722 71.6662 110.893 71.9174 111.11 72.1265C111.481 72.4833 111.977 72.6816 112.492 72.6796H112.68C113.322 72.6188 113.997 72.5856 114.683 72.5856C115.369 72.5856 115.739 72.5856 115.861 72.6243H115.988C116.281 72.6243 116.569 72.6243 116.84 72.6243C117.244 72.6262 117.649 72.6078 118.051 72.569C118.877 72.471 119.693 72.3045 120.49 72.0712C120.904 71.9472 121.27 71.7024 121.544 71.3682C121.817 71.0341 121.983 70.6259 122.023 70.1962C122.168 68.7406 122.236 67.2783 122.227 65.8155C122.227 64.925 122.2 63.6031 122.133 61.8552C122.067 60.2457 122.034 59.0067 122.034 58.1659C122.034 57.1482 122.034 56.396 122.078 55.9535C122.078 55.9535 122.078 55.9037 122.078 55.8816C122.075 55.6451 122.11 55.4096 122.183 55.1846C122.236 55.2925 122.272 55.4083 122.288 55.5276C122.354 55.9977 122.421 56.678 122.482 57.5409V57.823C122.483 57.9433 122.492 58.0635 122.509 58.1825L122.542 58.4093C122.598 59.1062 122.625 60.2511 122.625 61.7999V64.3885C122.625 67.4361 122.659 69.4439 122.731 70.528C122.749 71.0655 122.971 71.5758 123.352 71.955C123.734 72.3342 124.245 72.5539 124.783 72.569H127.006C127.36 72.569 127.72 72.569 128.074 72.569C129.585 72.5652 131.094 72.4468 132.587 72.215C133.108 72.1185 133.576 71.8333 133.9 71.414C134.225 70.9947 134.383 70.4706 134.346 69.9417C134.285 68.5479 134.252 67.2647 134.252 66.1197C134.252 65.0577 134.285 63.2878 134.346 60.8596C134.412 57.9115 134.446 55.782 134.446 54.3494C134.446 48.5141 133.854 45.5715 132.399 44.1887C130.845 42.7174 128.721 41.9763 126.071 41.9763C124.839 41.9822 123.615 42.1801 122.443 42.5626C122.227 42.629 122.012 42.7064 121.807 42.7838C121.46 42.2893 120.948 41.9344 120.363 41.7827C119.896 41.6591 119.414 41.6032 118.931 41.6167L118.892 41.6278Z" fill="black"/>
<path opacity="0.28" d="M148.129 71.4855C147.635 71.499 147.14 71.462 146.653 71.3749C146.336 71.3472 146.038 71.2101 145.811 70.987C145.584 70.764 145.442 70.4691 145.408 70.1526C145.405 70.101 145.405 70.0493 145.408 69.9977C144.931 70.2254 144.44 70.4212 143.937 70.584C142.852 70.9451 141.717 71.1318 140.574 71.1371C138.184 71.1371 136.287 70.4844 134.932 69.2067C134.136 68.4545 133.229 66.7066 133.229 59.8591C133.229 58.421 133.262 56.2417 133.323 53.3711C133.389 50.8986 133.422 49.1176 133.422 48.0778C133.422 46.9329 133.389 45.6275 133.328 44.206C133.316 43.9472 133.397 43.6926 133.558 43.4892C133.719 43.2859 133.947 43.1476 134.202 43.0998C135.636 42.8712 137.086 42.7565 138.538 42.7568C138.892 42.7568 139.257 42.7568 139.617 42.7568H141.885C142.153 42.7638 142.408 42.8731 142.599 43.0623C142.789 43.2515 142.9 43.5063 142.908 43.7746C142.974 44.831 143.008 46.8775 143.008 49.8588C143.008 51.7726 143.041 53.4872 143.107 54.964C143.14 55.4342 143.157 56.0371 143.157 56.7561C143.29 59.1013 143.682 59.9255 143.87 60.191C144.031 60.2298 144.197 60.2465 144.363 60.2408C144.517 60.2425 144.669 60.2107 144.809 60.1477C144.95 60.0846 145.075 59.9918 145.176 59.8757C145.483 59.4336 145.638 58.9037 145.618 58.3657C145.685 57.4254 145.712 56.7396 145.712 56.3192C145.712 55.213 145.668 54.0017 145.574 52.7959C145.535 52.3644 145.502 51.7283 145.474 50.9153C145.447 50.1022 145.425 49.361 145.425 48.7028C145.407 47.1632 145.49 45.6241 145.674 44.0953C145.703 43.8906 145.789 43.6982 145.922 43.5398C146.054 43.3814 146.229 43.2634 146.426 43.1993C147.148 42.9778 147.888 42.8204 148.638 42.7292C148.976 42.696 149.346 42.6794 149.744 42.6794H150.541H150.602C151.065 42.7224 151.53 42.739 151.996 42.7292C152.709 42.7292 153.417 42.696 154.086 42.6296H154.18C154.441 42.6304 154.692 42.7337 154.877 42.9172C154.985 43.0223 155.069 43.148 155.126 43.2869C155.183 43.4257 155.212 43.5747 155.209 43.7248C155.209 47.851 155.209 50.9153 155.259 52.9065C155.325 57.3867 155.359 60.8215 155.359 63.1059C155.359 64.7652 155.325 67.1547 155.259 70.2632C155.256 70.5542 155.139 70.8324 154.933 71.0376C154.747 71.2245 154.494 71.3298 154.23 71.3307H154.186L153.041 71.2809C152.394 71.2809 151.791 71.2809 151.249 71.3307C150.213 71.4372 149.171 71.4889 148.129 71.4855Z" fill="black"/>
<path opacity="0.28" d="M154.153 43.7235C154.153 47.8571 154.169 50.9232 154.202 52.9218C154.269 57.402 154.302 60.7963 154.302 63.1046C154.302 64.7566 154.269 67.1331 154.202 70.2342L153.035 70.1845C152.353 70.1845 151.723 70.201 151.144 70.2342C150.142 70.3398 149.136 70.3915 148.129 70.3891C146.995 70.3891 146.431 70.2729 146.431 70.0296C146.356 69.4298 146.322 68.8254 146.332 68.2209V68.1711L146.232 68.2209H146.282C144.596 69.3843 142.6 70.0144 140.552 70.0296C138.411 70.0296 136.763 69.4765 135.574 68.3702C134.666 67.5074 134.213 64.6644 134.213 59.8413C134.213 58.4308 134.246 56.2737 134.307 53.3809C134.373 50.9029 134.406 49.1293 134.406 48.0599C134.406 46.8873 134.373 45.5783 134.307 44.1328C135.692 43.9109 137.092 43.8 138.494 43.801H139.556H141.84C141.907 44.8353 141.934 46.8375 141.934 49.7967C141.934 51.7252 141.968 53.4491 142.034 54.9683C142.067 55.4145 142.084 56.0008 142.084 56.7272C142.211 59.0337 142.598 60.4829 143.251 61.0636C143.584 61.2193 143.951 61.2914 144.318 61.2738C144.606 61.273 144.891 61.2126 145.155 61.0964C145.418 60.9803 145.655 60.811 145.85 60.599C146.352 59.9719 146.618 59.1892 146.603 58.3866C146.663 57.4186 146.697 56.7272 146.697 56.2626C146.697 55.0955 146.652 53.8898 146.553 52.6453C146.52 52.2359 146.486 51.622 146.453 50.8144C146.42 50.0069 146.409 49.2878 146.409 48.6683C146.39 47.1896 146.472 45.7112 146.652 44.2434C147.317 44.0407 147.998 43.8945 148.688 43.8065C149.022 43.7723 149.358 43.7556 149.695 43.7567C149.932 43.7567 150.181 43.7567 150.441 43.7567C150.701 43.7567 151.232 43.8065 151.946 43.8065C152.659 43.8065 153.417 43.7733 154.13 43.7069L154.153 43.7235ZM154.13 41.5166H153.942C153.301 41.5774 152.632 41.6106 151.946 41.6106C151.519 41.619 151.093 41.6062 150.668 41.5719H150.541C150.248 41.5719 149.988 41.5719 149.695 41.5719C149.296 41.5697 148.897 41.5882 148.5 41.6272C147.692 41.724 146.894 41.8925 146.116 42.1306C145.719 42.2523 145.366 42.4862 145.099 42.8042C144.832 43.1222 144.663 43.5106 144.611 43.9226C144.418 45.5043 144.332 47.0972 144.351 48.6905C144.351 49.3431 144.351 50.0954 144.401 50.9029C144.451 51.7105 144.468 52.3742 144.501 52.8222C144.595 54.0004 144.639 55.1563 144.639 56.257C144.639 56.6497 144.611 57.3135 144.551 58.2206C144.539 58.454 144.503 58.6856 144.445 58.912C144.271 58.1677 144.169 57.4082 144.141 56.6443C144.141 55.9252 144.141 55.3112 144.086 54.8245C144.025 53.3698 143.992 51.6717 143.992 49.7856C143.992 46.7546 143.959 44.7412 143.892 43.6461C143.874 43.1086 143.652 42.5983 143.271 42.2191C142.889 41.8398 142.378 41.6202 141.84 41.6051H139.617C139.246 41.6051 138.881 41.6051 138.511 41.6051C137.007 41.6057 135.505 41.7241 134.019 41.9591C133.501 42.0579 133.037 42.3433 132.715 42.7612C132.393 43.1791 132.235 43.7005 132.271 44.2268C132.332 45.6372 132.365 46.926 132.365 48.0544C132.365 49.0887 132.332 50.8587 132.266 53.3145C132.205 56.1852 132.172 58.381 132.172 59.8247C132.172 65.66 132.764 68.6081 134.218 69.9854C135.767 71.4566 137.897 72.1978 140.546 72.1978C141.79 72.1953 143.025 71.9974 144.208 71.6115C144.412 71.5451 144.611 71.4732 144.805 71.4013C145.203 71.9465 145.799 72.3139 146.464 72.4246C147.011 72.5261 147.567 72.5706 148.124 72.5573C149.182 72.558 150.24 72.5044 151.293 72.3969C151.807 72.3693 152.399 72.3527 152.991 72.3527L154.097 72.4025H154.18C154.71 72.399 155.217 72.1863 155.591 71.8107C155.996 71.3956 156.227 70.8417 156.238 70.2619C156.304 67.1036 156.337 64.7308 156.337 63.0714C156.337 60.7815 156.304 57.3412 156.238 52.8554C156.205 50.8919 156.188 47.811 156.188 43.6903C156.19 43.3893 156.131 43.0909 156.016 42.8127C155.901 42.5345 155.732 42.2819 155.519 42.0697C155.144 41.7136 154.647 41.5155 154.13 41.5166Z" fill="black"/>
</g>
<path d="M180.519 14.4363H43.7945C29.4127 14.4363 17.7539 26.0951 17.7539 40.4769V61.6944C17.7539 76.0762 29.4127 87.7349 43.7945 87.7349H180.519C194.9 87.7349 206.559 76.0762 206.559 61.6944V40.4769C206.559 26.0951 194.9 14.4363 180.519 14.4363Z" fill="#EDB500"/>
<path d="M180.514 102.2H43.7952C33.0637 102.188 22.775 97.9197 15.1867 90.3313C7.59834 82.743 3.33007 72.4543 3.31836 61.7227V40.4998C3.33007 29.7682 7.59834 19.4796 15.1867 11.8913C22.775 4.30292 33.0637 0.0346617 43.7952 0.0229492H180.514C191.246 0.0346589 201.535 4.30274 209.124 11.8909C216.714 19.4791 220.983 29.7677 220.996 40.4998V61.7227C220.983 72.4548 216.714 82.7435 209.124 90.3317C201.535 97.9199 191.246 102.188 180.514 102.2ZM43.7952 28.8789C40.7146 28.8789 37.7602 30.1026 35.5819 32.2809C33.4036 34.4592 32.1798 37.4136 32.1798 40.4942V61.7173C32.1798 64.7979 33.4036 67.7523 35.5819 69.9306C37.7602 72.1089 40.7146 73.3327 43.7952 73.3327H180.514C183.594 73.3327 186.549 72.1089 188.727 69.9306C190.906 67.7523 192.129 64.7979 192.129 61.7173V40.4942C192.129 37.4136 190.906 34.4592 188.727 32.2809C186.549 30.1026 183.594 28.8789 180.514 28.8789H43.7952Z" fill="#EDB500"/>
<path d="M188.457 38.6248V58.8743C188.457 61.8082 187.292 64.6219 185.217 66.6964C183.143 68.771 180.329 69.9365 177.395 69.9365H46.9265C43.9926 69.9365 41.1789 68.771 39.1043 66.6964C37.0297 64.6219 35.8643 61.8082 35.8643 58.8743V38.6248C35.8643 35.6909 37.0297 32.8771 39.1043 30.8025C41.1789 28.7279 43.9926 27.5625 46.9265 27.5625H177.384C178.838 27.5611 180.277 27.8461 181.621 28.4014C182.964 28.9566 184.185 29.7712 185.213 30.7986C186.242 31.826 187.058 33.046 187.614 34.3889C188.171 35.7317 188.457 37.1711 188.457 38.6248Z" fill="#FEC30C"/>
<path d="M177.383 0H46.9261C41.2073 0.00700456 35.5615 1.28386 30.3962 3.73831C25.231 6.19276 20.6752 9.76357 17.0579 14.1929C16.0459 15.4258 15.1094 16.7187 14.2536 18.0647C10.3716 24.2146 8.31544 31.3403 8.32425 38.6129V58.8624C8.33596 69.1025 12.409 78.9198 19.6499 86.1607C26.8907 93.4016 36.7081 97.4746 46.9482 97.4863H177.383C187.624 97.4746 197.441 93.4016 204.682 86.1607C211.923 78.9198 215.996 69.1025 216.007 58.8624V38.6129C215.993 28.3747 211.918 18.5602 204.678 11.3217C197.437 4.08328 187.622 0.0117054 177.383 0ZM202.229 58.8735C202.218 65.4604 199.595 71.774 194.937 76.4312C190.279 81.0883 183.965 83.7091 177.378 83.7193H46.9261C40.3401 83.7076 34.0273 81.0862 29.3703 76.4292C24.7133 71.7722 22.0919 65.4594 22.0802 58.8735V38.624C22.0734 34.9155 22.9034 31.2533 24.5084 27.9101C26.314 24.1682 29.0251 20.9362 32.3958 18.5072C36.6208 15.4442 41.7076 13.7983 46.9261 13.8057H177.383C183.965 13.8174 190.273 16.435 194.929 21.086C199.586 25.737 202.21 32.0428 202.229 38.624V58.8735Z" fill="#FEC30C"/>
<g opacity="0.32">
<path opacity="0.32" d="M27.0019 23.7888C26.04 25.0791 25.2046 26.459 24.5073 27.9095L14.2305 18.0752C15.0863 16.7292 16.0228 15.4362 17.0348 14.2034L27.0019 23.7888Z" fill="white"/>
</g>
<g opacity="0.32">
<path opacity="0.32" d="M46.9256 13.7781C41.7071 13.7707 36.6203 15.4166 32.3953 18.4796L21.958 9.17616C28.9241 3.24495 37.7765 -0.00850002 46.9256 1.66786e-05H50.1226L65.7093 13.7781H46.9256Z" fill="white"/>
</g>
<path d="M177.389 18.0152C182.854 18.0166 188.095 20.1886 191.958 24.0534C195.822 27.9182 197.993 33.1593 197.993 38.6242V58.8737C197.993 64.3386 195.822 69.5797 191.958 73.4445C188.095 77.3093 182.854 79.4812 177.389 79.4827H46.9261C41.4641 79.4768 36.2278 77.3029 32.3677 73.4386C28.5075 69.5743 26.3392 64.3357 26.3392 58.8737V38.6242C26.3392 33.1583 28.5106 27.9164 32.3755 24.0514C36.2404 20.1865 41.4824 18.0152 46.9483 18.0152H177.389ZM177.389 9.53589H46.9261C39.2142 9.54467 31.8205 12.6121 26.3673 18.0653C20.9141 23.5185 17.8467 30.9122 17.8379 38.6242V58.8737C17.8481 66.5847 20.9162 73.9769 26.3693 79.4289C31.8223 84.8809 39.2151 87.9476 46.9261 87.9564H177.389C185.1 87.9476 192.492 84.8807 197.944 79.4286C203.396 73.9764 206.463 66.5842 206.472 58.8737V38.6242C206.463 30.9132 203.396 23.5203 197.944 18.0673C192.492 12.6142 185.1 9.54614 177.389 9.53589Z" fill="#EDB500"/>
<path d="M202.229 38.6185V58.8791C202.236 61.301 201.878 63.7101 201.167 66.0253C199.625 71.136 196.48 75.6155 192.198 78.8025C187.915 81.9895 182.721 83.7152 177.383 83.7249H46.9201C40.9901 83.7153 35.2584 81.5887 30.757 77.7283C26.2557 73.8678 23.2806 68.5272 22.3674 62.6679C22.1744 61.4178 22.0764 60.1549 22.0742 58.8901V38.6295C22.0742 32.04 24.6919 25.7204 29.3514 21.0609C34.0109 16.4014 40.3306 13.7837 46.9201 13.7837H177.389C183.972 13.7968 190.281 16.4174 194.937 21.0718C199.592 25.7262 202.214 32.0354 202.229 38.6185Z" fill="#FFC40C"/>
<g opacity="0.32">
<path opacity="0.32" d="M202.229 38.6192V58.8797C202.236 61.2998 201.878 63.7071 201.167 66.0204C141.165 16.6826 53.8835 24.4373 24.043 28.912C25.9538 24.4277 29.1392 20.6031 33.2041 17.9128C37.2689 15.2226 42.0342 13.7851 46.9087 13.7788H177.394C183.977 13.7934 190.286 16.4154 194.94 21.0708C199.595 25.7263 202.215 32.0361 202.229 38.6192Z" fill="white"/>
</g>
<path d="M197.561 46.7983C197.561 38.9607 196.001 29.6518 191.322 24.9614C186.642 20.271 183.91 29.5578 188.396 42.4675C192.881 55.3772 197.561 54.5973 197.561 46.7983Z" fill="white"/>
<path d="M168.257 18.1255C170.741 15.9849 180.348 16.8423 183.883 18.9607C187.417 21.0791 185.083 24.9785 176.504 23.4188C167.925 21.859 166.277 19.8346 168.257 18.1255Z" fill="white"/>
<path d="M195.968 75.3398C193.643 77.975 190.783 80.0856 187.58 81.5313C184.377 82.977 180.903 83.7248 177.389 83.725H46.9201C40.9901 83.7154 35.2584 81.5889 30.757 77.7284C26.2557 73.868 23.2806 68.5273 22.3674 62.668C22.1744 61.418 22.0764 60.1551 22.0742 58.8902V57.6125C27.9704 65.3949 44.5196 75.4615 90.5774 76.341C153.002 77.5136 183.976 80.7271 195.968 75.3398Z" fill="#FEC30C"/>
<path d="M109.544 83.7246H46.9209C40.9917 83.7151 35.2606 81.5894 30.7594 77.7301C26.2582 73.8707 23.2826 68.5314 22.3682 62.6731C24.1215 66.7827 25.9689 71.7552 32.9879 77.2144C44.7527 86.3629 82.204 83.2157 109.544 83.7246Z" fill="white"/>
</svg>
