<svg width="114" height="60" viewBox="0 0 114 60" fill="none" xmlns="http://www.w3.org/2000/svg">
<path d="M82.7036 25.1398L74.2766 33.5319L76.4125 45.2312C77.2692 49.9284 72.368 53.5708 68.1181 51.3927L57.5333 45.9728L47.0665 51.6185C42.8632 53.8855 37.8877 50.3495 38.6424 45.6348L40.5277 33.8932L31.9317 25.6832C28.4758 22.3876 30.2999 16.5598 35.0175 15.8226L46.7679 13.9868L48.6852 9.99913H52.4121L53.1493 8.46496C53.6178 7.47215 54.4427 6.69197 55.4601 6.27952C56.4963 5.85076 57.6562 5.82963 58.7074 6.22036C59.7585 6.61109 60.6231 7.38479 61.1276 8.38628L61.9522 10.0108C62.2582 10.0108 62.5642 10.0297 62.8672 10.0487C63.9003 10.1131 64.9279 10.2475 65.9428 10.4508L67.6256 13.7697L75.4655 14.8246C78.8348 17.449 81.403 20.9635 82.8799 24.9708C82.8187 25.0291 82.7634 25.0815 82.7036 25.1398Z" fill="#D58900"/>
<path d="M78.2984 25.3044L71.3342 32.2395L73.0985 41.9079C73.8081 45.7907 69.7577 48.7993 66.2509 46.9999L57.5091 42.5213L48.8592 47.1835C45.3858 49.0572 41.2728 46.1345 41.8979 42.2386L43.4554 32.5353L36.3352 25.7575C33.4796 23.033 34.9875 18.2178 38.8863 17.6088L48.5955 16.0907L51.5254 9.99913H52.4112L53.1485 8.46496C53.6169 7.47215 54.4418 6.69197 55.4592 6.27952C56.4954 5.85076 57.6554 5.82963 58.7065 6.22036C59.7577 6.61109 60.6222 7.38479 61.1268 8.38628L61.9514 10.0108C62.2574 10.0108 62.5633 10.0297 62.8664 10.0487L65.8371 15.91L75.5768 17.2213C79.4829 17.7443 81.1016 22.5217 78.2984 25.3044Z" fill="#D58900"/>
<path d="M77.3613 24.8562C77.2278 25.0334 77.0817 25.2009 76.9243 25.3574L70.4161 31.8379L72.0653 40.871C72.7268 44.4974 68.9431 47.3107 65.6547 45.6294L57.4812 41.4436L57.2816 41.5499L52.3382 44.2176L49.9852 45.4866L49.4024 45.7999C46.1563 47.5482 42.3129 44.8208 42.8971 41.1799L43.0326 40.3334L44.3526 32.1133L37.7074 25.774C35.0397 23.2287 36.4486 18.7282 40.0925 18.1585L43.9213 17.5597L48.9012 16.7817L49.1183 16.7482L49.1649 16.7409L52.4037 9.99669L53.1409 8.46251C53.6094 7.46971 54.4343 6.68953 55.4517 6.27708C56.4879 5.84832 57.6479 5.82719 58.699 6.21792C59.7501 6.60865 60.6147 7.38235 61.1192 8.38384L61.9439 10.0083L65.2745 16.5792L74.3775 17.8016C77.8072 18.2562 79.3428 22.2191 77.3613 24.8562Z" fill="#D58900"/>
<path d="M48.9027 16.7847L43.9229 17.5627C45.5606 17.1771 47.2254 16.917 48.9027 16.7847Z" fill="#D58900"/>
<path d="M49.1295 16.7685L48.9043 16.7846L49.1222 16.7495C49.1252 16.7556 49.1277 16.7619 49.1295 16.7685Z" fill="#D58900"/>
<path d="M76.9238 25.3572L70.4156 31.8377L72.0648 40.8708C72.7263 44.5001 68.9426 47.312 65.6542 45.6307L57.4807 41.4449L57.2811 41.5513L52.3362 44.2189L49.9832 45.4879L49.4005 45.8026C46.1544 47.551 42.3109 44.8236 42.8951 41.1826L43.0306 40.3347L44.3506 32.1146L37.7055 25.7753C35.0378 23.23 36.4467 18.7295 40.0905 18.1598L43.9208 17.561C41.1526 18.2341 38.2737 19.4551 38.1163 21.5983C37.8002 25.9079 47.9595 30.4493 47.9595 30.4493C47.9595 30.4493 45.4302 37.5169 49.1746 39.003C52.919 40.4891 57.7546 36.6005 57.7546 36.6005C57.7546 36.6005 63.4717 42.3016 67.5847 41.1346C71.8201 39.9326 69.9508 31.6877 69.9508 31.6877C69.9508 31.6877 74.4572 27.2017 77.358 24.8545C77.2249 25.0319 77.0799 25.1998 76.9238 25.3572Z" fill="#D58900"/>
<path d="M49.9882 45.4892L49.4055 45.8039C46.1594 47.5522 42.3159 44.8248 42.9002 41.1839L43.0357 40.3359C43.1376 41.0382 42.4019 42.9585 44.3032 44.8321C45.2735 45.7922 47.3949 46.5193 49.9882 45.4892Z" fill="#D58900"/>
<path d="M57.4363 41.4521L57.2906 41.5512L52.3457 44.2189C53.6832 43.3171 55.8351 41.9694 57.4363 41.4521Z" fill="#D58900"/>
<path d="M58.1181 8.56562C59.1671 7.9027 59.8752 8.5729 61.3001 11.6252C62.725 14.6775 62.4015 15.9597 60.863 16.3312C59.3244 16.7027 56.6058 9.52138 58.1181 8.56562Z" fill="#D58900"/>
<path d="M67.4398 18.4728C69.057 18.4014 73.0403 19.0279 73.1219 20.326C73.2035 21.6242 69.3338 20.8899 67.9337 20.6436C66.5336 20.3974 65.8182 18.5383 67.4398 18.4728Z" fill="#D58900"/>
<path d="M67.5852 48.8622L57.522 43.7089L47.571 49.0763C43.576 51.2312 38.8424 47.87 39.5577 43.3942L41.3498 32.231L33.1675 24.4188C29.8836 21.2849 31.6173 15.7441 36.1033 15.0433L47.2738 13.295L52.1691 3.09632C52.7477 1.87276 53.7664 0.912362 55.0218 0.406783C57.4987 -0.599973 60.6093 0.261086 62.0007 3.00016L67.1146 13.0823L78.32 14.5873C82.8205 15.1934 84.6738 20.6949 81.4568 23.8987L73.4436 31.8755L75.4731 42.9994C76.2934 47.4664 71.6311 50.9311 67.5852 48.8622Z" fill="#EEC236"/>
<path d="M65.8027 44.6853L57.4864 40.4266L49.2633 44.863C45.9604 46.6449 42.05 43.8664 42.6444 40.1614L44.1247 30.936L37.3644 24.486C34.6501 21.8956 36.0837 17.3178 39.7902 16.7394L49.0229 15.297L53.0674 6.87438C53.543 5.86165 54.3826 5.06523 55.419 4.64378C56.4731 4.20632 57.6538 4.18416 58.7236 4.58176C59.7934 4.97936 60.673 5.76723 61.1856 6.78696L65.4108 15.1207L74.6712 16.365C78.3893 16.8647 79.9162 21.4119 77.2616 24.0592L70.6412 30.6519L72.3182 39.8438C72.9928 43.5328 69.142 46.3957 65.8027 44.6853Z" fill="#D47F02"/>
<path d="M76.3721 23.6323C76.2441 23.8003 76.1048 23.9595 75.9554 24.1087L69.7691 30.2745L71.3397 38.8589C71.9691 42.3075 68.3705 44.9781 65.2511 43.3842L57.4783 39.4038L49.7943 43.5488C46.7085 45.2141 43.0544 42.6178 43.6095 39.1561L44.9936 30.5353L38.6748 24.5079C36.1397 22.0879 37.4787 17.8059 40.9418 17.2668L49.5262 15.925H49.5699L53.3493 8.05743C53.7946 7.11129 54.5794 6.36712 55.5478 5.97253C56.5333 5.56431 57.6367 5.54394 58.6366 5.91552C59.6365 6.28709 60.4588 7.02312 60.9385 7.97584L64.8869 15.7647L73.5397 16.9303C76.7946 17.3572 78.2559 21.1249 76.3721 23.6323Z" fill="#F2D847"/>
<path d="M49.3162 15.957L44.5811 16.6986C46.1384 16.3321 47.7213 16.0842 49.3162 15.957Z" fill="#FFC921"/>
<path d="M49.5299 15.9424L49.3164 15.957L49.524 15.9248C49.5266 15.9304 49.5286 15.9363 49.5299 15.9424Z" fill="#FFC921"/>
<path d="M75.9549 24.1088L69.7687 30.2746L71.3393 38.859C71.9687 42.3076 68.37 44.9782 65.2506 43.3843L57.4778 39.4039L57.2898 39.5044L52.5883 42.041L50.3504 43.2473L49.7953 43.5475C46.7094 45.2128 43.0554 42.6165 43.6105 39.1548L43.7402 38.3476L44.9946 30.534L38.6758 24.5065C36.1407 22.0865 37.4796 17.8046 40.9428 17.2655L44.5852 16.6973C41.951 17.3369 39.2178 18.4908 39.0677 20.5349C38.7676 24.6318 48.4257 28.9488 48.4257 28.9488C48.4257 28.9488 46.0203 35.6697 49.5811 37.0815C53.1419 38.4933 57.74 34.7985 57.74 34.7985C57.74 34.7985 63.1745 40.2183 67.085 39.1081C71.1061 37.9673 69.3286 30.1289 69.3286 30.1289C69.3286 30.1289 73.6136 25.8644 76.3716 23.6324C76.2436 23.8004 76.1044 23.9596 75.9549 24.1088Z" fill="#FFC921"/>
<path d="M50.346 43.2484L49.7909 43.5485C46.7051 45.2138 43.0511 42.6175 43.6062 39.1558L43.7358 38.3486C43.832 39.0174 43.1312 40.84 44.9393 42.6248C45.8644 43.5325 47.8823 44.2289 50.346 43.2484Z" fill="#FEE581"/>
<path d="M57.4274 39.4106L57.2817 39.5039L52.5801 42.0404C53.8564 41.1838 55.9049 39.9016 57.4274 39.4106Z" fill="#FEE581"/>
<path d="M58.0813 8.14462C59.0778 7.51376 59.7509 8.14462 61.1059 11.0498C62.4609 13.955 62.152 15.1715 60.6863 15.5241C59.2206 15.8767 56.6389 9.0523 58.0813 8.14462Z" fill="white"/>
<path d="M66.9378 17.5566C68.4749 17.4881 72.263 18.084 72.3373 19.318C72.4116 20.5521 68.7342 19.8542 67.4055 19.6196C66.0767 19.385 65.3963 17.625 66.9378 17.5566Z" fill="white"/>
<path d="M36.4467 40.2804L30.6034 46.0993L32.0844 54.2116C32.6785 57.4686 29.28 59.9942 26.3332 58.4838L18.9938 54.7258L11.7363 58.6404C8.82172 60.2124 5.37176 57.7605 5.89506 54.4914L7.20231 46.3499L1.24191 40.6572C-1.15437 38.372 0.11044 34.3311 3.38159 33.8199L11.5292 32.547L12.8586 29.782H15.4428L15.954 28.7182C16.2788 28.0298 16.8508 27.4888 17.5562 27.2029C18.2747 26.9056 19.0791 26.8909 19.8079 27.1618C20.5367 27.4328 21.1362 27.9692 21.4861 28.6637L22.0578 29.7901C22.27 29.7901 22.4821 29.8032 22.6923 29.8163C23.4086 29.861 24.1211 29.9542 24.8249 30.0952L25.9917 32.3965L31.4278 33.1279C33.764 34.9477 35.5448 37.3846 36.5689 40.1632C36.5265 40.2036 36.4881 40.24 36.4467 40.2804Z" fill="#D58900"/>
<path d="M33.3914 40.3945L28.5625 45.2033L29.7859 51.9072C30.2779 54.5995 27.4694 56.6856 25.0378 55.438L18.9764 52.3325L12.9786 55.5653C10.5702 56.8644 7.7183 54.8379 8.15169 52.1365L9.23163 45.4083L4.2946 40.7087C2.31453 38.8196 3.36013 35.4807 6.06352 35.0585L12.7957 34.0058L14.8273 29.782H15.4416L15.9527 28.7182C16.2776 28.0298 16.8495 27.4888 17.555 27.2029C18.2735 26.9056 19.0778 26.8909 19.8066 27.1618C20.5355 27.4328 21.1349 27.9692 21.4848 28.6637L22.0566 29.7901C22.2687 29.7901 22.4809 29.8032 22.691 29.8163L24.7509 33.8805L31.5043 34.7897C34.2128 35.1524 35.3351 38.465 33.3914 40.3945Z" fill="#D58900"/>
<path d="M32.7421 40.0834C32.6495 40.2064 32.5482 40.3225 32.4391 40.431L27.9263 44.9245L29.0699 51.188C29.5286 53.7025 26.905 55.6532 24.6249 54.4874L18.9575 51.585L18.819 51.6587L15.3913 53.5085L13.7598 54.3884L13.3557 54.6056C11.1049 55.8179 8.43987 53.9267 8.84498 51.4021L8.93892 50.8152L9.8542 45.1154L5.24651 40.7199C3.39677 38.955 4.37367 35.8344 6.90027 35.4394L9.55518 35.0242L13.0082 34.4847L13.1587 34.4615L13.191 34.4564L15.4368 29.78L15.948 28.7163C16.2728 28.0279 16.8448 27.4869 17.5502 27.2009C18.2687 26.9036 19.073 26.889 19.8019 27.1599C20.5307 27.4308 21.1302 27.9673 21.48 28.6617L22.0518 29.7881L24.3612 34.3443L30.6732 35.1919C33.0513 35.5071 34.1161 38.2549 32.7421 40.0834Z" fill="#D58900"/>
<path d="M13.0087 34.4868L9.55566 35.0263C10.6913 34.7589 11.8456 34.5786 13.0087 34.4868Z" fill="#D58900"/>
<path d="M13.1659 34.4756L13.0098 34.4867L13.1608 34.4624C13.163 34.4666 13.1647 34.471 13.1659 34.4756Z" fill="#D58900"/>
<path d="M32.4391 40.4307L27.9264 44.9242L29.07 51.1877C29.5286 53.7042 26.905 55.6539 24.6249 54.4881L18.9575 51.5857L18.8191 51.6595L15.3903 53.5092L13.7588 54.3891L13.3547 54.6073C11.1039 55.8196 8.4389 53.9285 8.844 51.4039L8.93795 50.8159L9.85323 45.1162L5.24554 40.7206C3.39579 38.9557 4.37269 35.8351 6.89929 35.4401L9.55521 35.0249C7.63576 35.4916 5.63952 36.3382 5.53042 37.8243C5.3112 40.8126 12.3556 43.9615 12.3556 43.9615C12.3556 43.9615 10.6018 48.8621 13.1981 49.8926C15.7944 50.923 19.1474 48.2267 19.1474 48.2267C19.1474 48.2267 23.1116 52.1797 25.9635 51.3705C28.9002 50.5371 27.6041 44.8202 27.6041 44.8202C27.6041 44.8202 30.7288 41.7096 32.7402 40.0821C32.6479 40.2051 32.5473 40.3216 32.4391 40.4307Z" fill="#D58900"/>
<path d="M13.7616 54.3901L13.3575 54.6083C11.1067 55.8206 8.44171 53.9294 8.84682 51.4049L8.94076 50.8169C9.01148 51.3038 8.50132 52.6353 9.81968 53.9345C10.4925 54.6002 11.9634 55.1043 13.7616 54.3901Z" fill="#D58900"/>
<path d="M18.9262 51.5908L18.8252 51.6595L15.3965 53.5093C16.3239 52.8839 17.816 51.9495 18.9262 51.5908Z" fill="#D58900"/>
<path d="M19.3992 28.7881C20.1265 28.3284 20.6175 28.7931 21.6055 30.9096C22.5935 33.026 22.3693 33.915 21.3024 34.1727C20.2356 34.4303 18.3505 29.4508 19.3992 28.7881Z" fill="#D58900"/>
<path d="M25.8626 35.6576C26.984 35.6081 29.746 36.0425 29.8026 36.9426C29.8591 37.8428 27.176 37.3336 26.2051 37.1629C25.2343 36.9921 24.7383 35.7031 25.8626 35.6576Z" fill="#D58900"/>
<path d="M25.9637 56.7292L18.986 53.156L12.0861 56.8777C9.31603 58.3718 6.03377 56.0412 6.52979 52.9377L7.77239 45.1973L2.0989 39.7804C-0.178179 37.6074 1.02401 33.7655 4.13453 33.2795L11.88 32.0672L15.2744 24.9956C15.6756 24.1472 16.3819 23.4813 17.2525 23.1307C18.9699 22.4326 21.1267 23.0297 22.0915 24.9289L25.6374 31.9198L33.4072 32.9633C36.5278 33.3836 37.8128 37.1982 35.5822 39.4198L30.0259 44.9508L31.4331 52.664C32.0019 55.7614 28.7692 58.1637 25.9637 56.7292Z" fill="#EEC236"/>
<path d="M24.7282 53.8326L18.9617 50.8797L13.26 53.9559C10.9698 55.1914 8.25829 53.2649 8.67046 50.6959L9.69685 44.299L5.00936 39.8267C3.12729 38.0305 4.12136 34.8563 6.6914 34.4553L13.0933 33.4551L15.8977 27.615C16.2274 26.9127 16.8096 26.3605 17.5282 26.0683C18.2591 25.765 19.0778 25.7496 19.8196 26.0253C20.5614 26.301 21.1713 26.8473 21.5267 27.5543L24.4564 33.3329L30.8775 34.1956C33.4556 34.5422 34.5143 37.6951 32.6737 39.5307L28.0832 44.102L29.246 50.4756C29.7137 53.0335 27.0436 55.0187 24.7282 53.8326Z" fill="#D47F02"/>
<path d="M32.0565 39.2347C31.9677 39.3512 31.8712 39.4616 31.7676 39.5651L27.4781 43.8404L28.5671 49.7927C29.0035 52.1839 26.5082 54.0357 24.3453 52.9305L18.9557 50.1705L13.6277 53.0447C11.488 54.1994 8.95437 52.3991 9.33927 49.9988L10.299 44.0212L5.9176 39.8419C4.15979 38.1639 5.08819 35.1948 7.48952 34.821L13.4418 33.8906H13.4721L16.0927 28.4353C16.4015 27.7792 16.9457 27.2632 17.6172 26.9896C18.3005 26.7066 19.0656 26.6925 19.7589 26.9501C20.4522 27.2077 21.0224 27.7181 21.355 28.3787L24.0928 33.7794L30.0926 34.5876C32.3494 34.8836 33.3627 37.4961 32.0565 39.2347Z" fill="#F2D847"/>
<path d="M13.296 33.9126L10.0127 34.4268C11.0926 34.1727 12.1901 34.0008 13.296 33.9126Z" fill="#FFC921"/>
<path d="M13.4439 33.9028L13.2959 33.9129L13.4399 33.8906C13.4417 33.8945 13.443 33.8986 13.4439 33.9028Z" fill="#FFC921"/>
<path d="M31.7675 39.5649L27.478 43.8402L28.5671 49.7925C29.0035 52.1837 26.5082 54.0355 24.3453 52.9303L18.9557 50.1703L18.8254 50.24L15.5653 51.9989L14.0136 52.8353L13.6287 53.0434C11.489 54.1981 8.95535 52.3979 9.34025 49.9976L9.43015 49.4379L10.3 44.02L5.91858 39.8407C4.16076 38.1626 5.08917 35.1936 7.4905 34.8198L10.0161 34.4258C8.18958 34.8693 6.29438 35.6694 6.19033 37.0867C5.98222 39.9275 12.6791 42.9209 12.6791 42.9209C12.6791 42.9209 11.0112 47.5811 13.4802 48.56C15.9492 49.5389 19.1375 46.977 19.1375 46.977C19.1375 46.977 22.9057 50.7351 25.6172 49.9653C28.4054 49.1742 27.1729 43.7392 27.1729 43.7392C27.1729 43.7392 30.1441 40.7822 32.0564 39.2345C31.9677 39.351 31.8712 39.4614 31.7675 39.5649Z" fill="#FFC921"/>
<path d="M14.0103 52.8364L13.6254 53.0445C11.4857 54.1992 8.95203 52.399 9.33693 49.9986L9.42684 49.439C9.49352 49.9027 9.00759 51.1665 10.2613 52.404C10.9028 53.0334 12.302 53.5163 14.0103 52.8364Z" fill="#FEE581"/>
<path d="M18.9197 50.1753L18.8186 50.2399L15.5586 51.9988C16.4436 51.4048 17.864 50.5157 18.9197 50.1753Z" fill="#FEE581"/>
<path d="M19.3731 28.4958C20.0641 28.0583 20.5309 28.4958 21.4704 30.5102C22.4099 32.5246 22.1957 33.3681 21.1794 33.6126C20.1631 33.8571 18.373 29.1251 19.3731 28.4958Z" fill="white"/>
<path d="M25.5144 35.0217C26.5802 34.9743 29.2068 35.3874 29.2583 36.2431C29.3098 37.0988 26.76 36.6149 25.8387 36.4522C24.9173 36.2896 24.4455 35.0692 25.5144 35.0217Z" fill="white"/>
<path d="M113.743 40.2804L107.899 46.0993L109.38 54.2116C109.974 57.4686 106.576 59.9942 103.629 58.4838L96.2897 54.7258L89.0322 58.6404C86.1176 60.2124 82.6677 57.7605 83.191 54.4914L84.4982 46.3499L78.5378 40.6572C76.1415 38.372 77.4063 34.3311 80.6775 33.8199L88.8251 32.547L90.1545 29.782H92.7387L93.2499 28.7182C93.5747 28.0298 94.1467 27.4888 94.8521 27.2029C95.5706 26.9056 96.3749 26.8909 97.1038 27.1618C97.8326 27.4328 98.4321 27.9692 98.782 28.6637L99.3537 29.7901C99.5659 29.7901 99.778 29.8032 99.9882 29.8163C100.705 29.861 101.417 29.9542 102.121 30.0952L103.288 32.3965L108.724 33.1279C111.06 34.9477 112.841 37.3846 113.865 40.1632C113.822 40.2036 113.784 40.24 113.743 40.2804Z" fill="#D58900"/>
<path d="M110.687 40.3945L105.858 45.2033L107.082 51.9072C107.574 54.5995 104.765 56.6856 102.334 55.438L96.2723 52.3325L90.2745 55.5653C87.8661 56.8644 85.0142 54.8379 85.4476 52.1365L86.5275 45.4083L81.5905 40.7087C79.6104 38.8196 80.656 35.4807 83.3594 35.0585L90.0916 34.0058L92.1232 29.782H92.7375L93.2486 28.7182C93.5735 28.0298 94.1454 27.4888 94.8509 27.2029C95.5694 26.9056 96.3737 26.8909 97.1025 27.1618C97.8314 27.4328 98.4308 27.9692 98.7807 28.6637L99.3525 29.7901C99.5646 29.7901 99.7768 29.8032 99.9869 29.8163L102.047 33.8805L108.8 34.7897C111.509 35.1524 112.631 38.465 110.687 40.3945Z" fill="#D58900"/>
<path d="M110.038 40.0834C109.945 40.2064 109.844 40.3225 109.735 40.431L105.222 44.9245L106.366 51.188C106.824 53.7025 104.201 55.6532 101.921 54.4874L96.2533 51.585L96.1149 51.6587L92.6872 53.5085L91.0557 54.3884L90.6516 54.6056C88.4008 55.8179 85.7358 53.9267 86.1409 51.4021L86.2348 50.8152L87.1501 45.1154L82.5424 40.7199C80.6927 38.955 81.6696 35.8344 84.1962 35.4394L86.8511 35.0242L90.3041 34.4847L90.4546 34.4615L90.4869 34.4564L92.7327 29.78L93.2438 28.7163C93.5687 28.0279 94.1407 27.4869 94.8461 27.2009C95.5646 26.9036 96.3689 26.889 97.0978 27.1599C97.8266 27.4308 98.4261 27.9673 98.7759 28.6617L99.3477 29.7881L101.657 34.3443L107.969 35.1919C110.347 35.5071 111.412 38.2549 110.038 40.0834Z" fill="#D58900"/>
<path d="M90.3046 34.4868L86.8516 35.0263C87.9872 34.7589 89.1415 34.5786 90.3046 34.4868Z" fill="#D58900"/>
<path d="M90.4618 34.4756L90.3057 34.4867L90.4567 34.4624C90.4589 34.4666 90.4606 34.471 90.4618 34.4756Z" fill="#D58900"/>
<path d="M109.735 40.4307L105.222 44.9242L106.366 51.1877C106.825 53.7042 104.201 55.6539 101.921 54.4881L96.2534 51.5857L96.115 51.6595L92.6862 53.5092L91.0547 54.3891L90.6506 54.6073C88.3998 55.8196 85.7348 53.9285 86.1399 51.4039L86.2338 50.8159L87.1491 45.1162L82.5414 40.7206C80.6917 38.9557 81.6686 35.8351 84.1952 35.4401L86.8511 35.0249C84.9317 35.4916 82.9354 36.3382 82.8263 37.8243C82.6071 40.8126 89.6515 43.9615 89.6515 43.9615C89.6515 43.9615 87.8977 48.8621 90.494 49.8926C93.0903 50.923 96.4433 48.2267 96.4433 48.2267C96.4433 48.2267 100.407 52.1797 103.259 51.3705C106.196 50.5371 104.9 44.8202 104.9 44.8202C104.9 44.8202 108.025 41.7096 110.036 40.0821C109.944 40.2051 109.843 40.3216 109.735 40.4307Z" fill="#D58900"/>
<path d="M91.0575 54.3901L90.6534 54.6083C88.4026 55.8206 85.7376 53.9294 86.1427 51.4049L86.2367 50.8169C86.3074 51.3038 85.7972 52.6353 87.1156 53.9345C87.7884 54.6002 89.2593 55.1043 91.0575 54.3901Z" fill="#D58900"/>
<path d="M96.2221 51.5908L96.1211 51.6595L92.6924 53.5093C93.6198 52.8839 95.1119 51.9495 96.2221 51.5908Z" fill="#D58900"/>
<path d="M96.6951 28.7881C97.4224 28.3284 97.9134 28.7931 98.9014 30.9096C99.8894 33.026 99.6652 33.915 98.5983 34.1727C97.5315 34.4303 95.6464 29.4508 96.6951 28.7881Z" fill="#D58900"/>
<path d="M103.159 35.6576C104.28 35.6081 107.042 36.0425 107.098 36.9426C107.155 37.8428 104.472 37.3336 103.501 37.1629C102.53 36.9921 102.034 35.7031 103.159 35.6576Z" fill="#D58900"/>
<path d="M103.26 56.7292L96.2819 53.156L89.382 56.8777C86.6119 58.3718 83.3297 56.0412 83.8257 52.9377L85.0683 45.1973L79.3948 39.7804C77.1177 37.6074 78.3199 33.7655 81.4304 33.2795L89.1759 32.0672L92.5703 24.9956C92.9715 24.1472 93.6778 23.4813 94.5484 23.1307C96.2658 22.4326 98.4226 23.0297 99.3874 24.9289L102.933 31.9198L110.703 32.9633C113.824 33.3836 115.109 37.1982 112.878 39.4198L107.322 44.9508L108.729 52.664C109.298 55.7614 106.065 58.1637 103.26 56.7292Z" fill="#EEC236"/>
<path d="M102.024 53.8326L96.2576 50.8797L90.5559 53.9559C88.2657 55.1914 85.5542 53.2649 85.9664 50.6959L86.9928 44.299L82.3053 39.8267C80.4232 38.0305 81.4173 34.8563 83.9873 34.4553L90.3892 33.4551L93.1936 27.615C93.5233 26.9127 94.1055 26.3605 94.8241 26.0683C95.555 25.765 96.3737 25.7496 97.1155 26.0253C97.8573 26.301 98.4672 26.8473 98.8226 27.5543L101.752 33.3329L108.173 34.1956C110.752 34.5422 111.81 37.6951 109.97 39.5307L105.379 44.102L106.542 50.4756C107.01 53.0335 104.34 55.0187 102.024 53.8326Z" fill="#D47F02"/>
<path d="M109.352 39.2347C109.264 39.3512 109.167 39.4616 109.063 39.5651L104.774 43.8404L105.863 49.7927C106.299 52.1839 103.804 54.0357 101.641 52.9305L96.2516 50.1705L90.9236 53.0447C88.7839 54.1994 86.2503 52.3991 86.6352 49.9988L87.5949 44.0212L83.2135 39.8419C81.4557 38.1639 82.3841 35.1948 84.7854 34.821L90.7377 33.8906H90.768L93.3886 28.4353C93.6974 27.7792 94.2416 27.2632 94.9131 26.9896C95.5964 26.7066 96.3615 26.6925 97.0548 26.9501C97.7481 27.2077 98.3183 27.7181 98.6509 28.3787L101.389 33.7794L107.388 34.5876C109.645 34.8836 110.659 37.4961 109.352 39.2347Z" fill="#F2D847"/>
<path d="M90.5919 33.9126L87.3086 34.4268C88.3885 34.1727 89.486 34.0008 90.5919 33.9126Z" fill="#FFC921"/>
<path d="M90.7398 33.9028L90.5918 33.9129L90.7358 33.8906C90.7376 33.8945 90.7389 33.8986 90.7398 33.9028Z" fill="#FFC921"/>
<path d="M109.063 39.5649L104.774 43.8402L105.863 49.7925C106.299 52.1837 103.804 54.0355 101.641 52.9303L96.2516 50.1703L96.1213 50.24L92.8612 51.9989L91.3095 52.8353L90.9246 53.0434C88.7849 54.1981 86.2512 52.3979 86.6361 49.9976L86.726 49.4379L87.5959 44.02L83.2145 39.8407C81.4567 38.1626 82.3851 35.1936 84.7864 34.8198L87.312 34.4258C85.4855 34.8693 83.5903 35.6694 83.4862 37.0867C83.2781 39.9275 89.975 42.9209 89.975 42.9209C89.975 42.9209 88.3071 47.5811 90.7761 48.56C93.2451 49.5389 96.4334 46.977 96.4334 46.977C96.4334 46.977 100.202 50.7351 102.913 49.9653C105.701 49.1742 104.469 43.7392 104.469 43.7392C104.469 43.7392 107.44 40.7822 109.352 39.2345C109.264 39.351 109.167 39.4614 109.063 39.5649Z" fill="#FFC921"/>
<path d="M91.3062 52.8364L90.9213 53.0445C88.7816 54.1992 86.2479 52.399 86.6328 49.9986L86.7227 49.439C86.7894 49.9027 86.3035 51.1665 87.5572 52.404C88.1987 53.0334 89.5979 53.5163 91.3062 52.8364Z" fill="#FEE581"/>
<path d="M96.2156 50.1753L96.1145 50.2399L92.8545 51.9988C93.7395 51.4048 95.1599 50.5157 96.2156 50.1753Z" fill="#FEE581"/>
<path d="M96.669 28.4958C97.36 28.0583 97.8267 28.4958 98.7663 30.5102C99.7058 32.5246 99.4916 33.3681 98.4753 33.6126C97.459 33.8571 95.6689 29.1251 96.669 28.4958Z" fill="white"/>
<path d="M102.81 35.0217C103.876 34.9743 106.503 35.3874 106.554 36.2431C106.606 37.0988 104.056 36.6149 103.135 36.4522C102.213 36.2896 101.741 35.0692 102.81 35.0217Z" fill="white"/>
</svg>
