<svg width="114" height="57" viewBox="0 0 114 57" fill="none" xmlns="http://www.w3.org/2000/svg">
<path d="M113.743 37.2804L107.899 43.0993L109.38 51.2116C109.974 54.4686 106.576 56.9942 103.629 55.4838L96.2897 51.7258L89.0322 55.6404C86.1176 57.2124 82.6677 54.7605 83.191 51.4914L84.4982 43.3499L78.5378 37.6572C76.1415 35.372 77.4063 31.3311 80.6775 30.8199L88.8251 29.547L90.1545 26.782H92.7387L93.2499 25.7182C93.5747 25.0298 94.1467 24.4888 94.8521 24.2029C95.5706 23.9056 96.3749 23.8909 97.1038 24.1618C97.8326 24.4328 98.4321 24.9692 98.782 25.6637L99.3537 26.7901C99.5659 26.7901 99.778 26.8032 99.9882 26.8163C100.705 26.861 101.417 26.9542 102.121 27.0952L103.288 29.3965L108.724 30.1279C111.06 31.9477 112.841 34.3846 113.865 37.1632C113.822 37.2036 113.784 37.24 113.743 37.2804Z" fill="#949494"/>
<path d="M110.687 37.3945L105.858 42.2033L107.082 48.9072C107.574 51.5995 104.765 53.6856 102.334 52.438L96.2723 49.3325L90.2745 52.5653C87.8661 53.8644 85.0142 51.8379 85.4476 49.1365L86.5275 42.4083L81.5905 37.7087C79.6104 35.8196 80.656 32.4807 83.3594 32.0585L90.0916 31.0058L92.1232 26.782H92.7375L93.2486 25.7182C93.5735 25.0298 94.1454 24.4888 94.8509 24.2029C95.5694 23.9056 96.3737 23.8909 97.1025 24.1618C97.8314 24.4328 98.4308 24.9692 98.7807 25.6637L99.3525 26.7901C99.5646 26.7901 99.7768 26.8032 99.9869 26.8163L102.047 30.8805L108.8 31.7897C111.509 32.1524 112.631 35.465 110.687 37.3945Z" fill="#949494"/>
<path d="M110.038 37.0834C109.945 37.2064 109.844 37.3225 109.735 37.431L105.222 41.9245L106.366 48.188C106.824 50.7025 104.201 52.6532 101.921 51.4874L96.2533 48.585L96.1149 48.6587L92.6872 50.5085L91.0557 51.3884L90.6516 51.6056C88.4008 52.8179 85.7358 50.9267 86.1409 48.4021L86.2348 47.8152L87.1501 42.1154L82.5424 37.7199C80.6927 35.955 81.6696 32.8344 84.1962 32.4394L86.8511 32.0242L90.3041 31.4847L90.4546 31.4615L90.4869 31.4564L92.7327 26.78L93.2438 25.7163C93.5687 25.0279 94.1407 24.4869 94.8461 24.2009C95.5646 23.9036 96.3689 23.889 97.0978 24.1599C97.8266 24.4308 98.4261 24.9673 98.7759 25.6617L99.3477 26.7881L101.657 31.3443L107.969 32.1919C110.347 32.5071 111.412 35.2549 110.038 37.0834Z" fill="#949494"/>
<path d="M90.3046 31.4868L86.8516 32.0263C87.9872 31.7589 89.1415 31.5786 90.3046 31.4868Z" fill="#949494"/>
<path d="M90.4618 31.4756L90.3057 31.4867L90.4567 31.4624C90.4589 31.4666 90.4606 31.471 90.4618 31.4756Z" fill="#949494"/>
<path d="M109.735 37.4307L105.222 41.9242L106.366 48.1877C106.825 50.7042 104.201 52.6539 101.921 51.4881L96.2534 48.5857L96.115 48.6595L92.6862 50.5092L91.0547 51.3891L90.6506 51.6073C88.3998 52.8196 85.7348 50.9285 86.1399 48.4039L86.2338 47.8159L87.1491 42.1162L82.5414 37.7206C80.6917 35.9557 81.6686 32.8351 84.1952 32.4401L86.8511 32.0249C84.9317 32.4916 82.9354 33.3382 82.8263 34.8243C82.6071 37.8126 89.6515 40.9615 89.6515 40.9615C89.6515 40.9615 87.8977 45.8621 90.494 46.8926C93.0903 47.923 96.4433 45.2267 96.4433 45.2267C96.4433 45.2267 100.407 49.1797 103.259 48.3705C106.196 47.5371 104.9 41.8202 104.9 41.8202C104.9 41.8202 108.025 38.7096 110.036 37.0821C109.944 37.2051 109.843 37.3216 109.735 37.4307Z" fill="#949494"/>
<path d="M91.0575 51.3901L90.6534 51.6083C88.4026 52.8206 85.7376 50.9294 86.1427 48.4049L86.2367 47.8169C86.3074 48.3038 85.7972 49.6353 87.1156 50.9345C87.7884 51.6002 89.2593 52.1043 91.0575 51.3901Z" fill="#949494"/>
<path d="M96.2221 48.5908L96.1211 48.6595L92.6924 50.5093C93.6198 49.8839 95.1119 48.9495 96.2221 48.5908Z" fill="#949494"/>
<path d="M96.6951 25.7881C97.4224 25.3284 97.9134 25.7931 98.9014 27.9096C99.8894 30.026 99.6652 30.915 98.5983 31.1727C97.5315 31.4303 95.6464 26.4508 96.6951 25.7881Z" fill="#949494"/>
<path d="M103.159 32.6576C104.28 32.6081 107.042 33.0425 107.098 33.9426C107.155 34.8428 104.472 34.3336 103.501 34.1629C102.53 33.9921 102.034 32.7031 103.159 32.6576Z" fill="#949494"/>
<path d="M103.26 53.7292L96.2819 50.156L89.382 53.8777C86.6119 55.3718 83.3297 53.0412 83.8257 49.9377L85.0683 42.1973L79.3948 36.7804C77.1177 34.6074 78.3199 30.7655 81.4304 30.2795L89.1759 29.0672L92.5703 21.9956C92.9715 21.1472 93.6778 20.4813 94.5484 20.1307C96.2658 19.4326 98.4226 20.0297 99.3874 21.9289L102.933 28.9198L110.703 29.9633C113.824 30.3836 115.109 34.1982 112.878 36.4198L107.322 41.9508L108.729 49.664C109.298 52.7614 106.065 55.1637 103.26 53.7292Z" fill="#B8B6B1"/>
<path d="M102.024 50.8326L96.2576 47.8797L90.5559 50.9559C88.2657 52.1914 85.5542 50.2649 85.9664 47.6959L86.9928 41.299L82.3053 36.8267C80.4232 35.0305 81.4173 31.8563 83.9873 31.4553L90.3892 30.4551L93.1936 24.615C93.5233 23.9127 94.1055 23.3605 94.8241 23.0683C95.555 22.765 96.3737 22.7496 97.1155 23.0253C97.8573 23.301 98.4672 23.8473 98.8226 24.5543L101.752 30.3329L108.173 31.1956C110.752 31.5422 111.81 34.6951 109.97 36.5307L105.379 41.102L106.542 47.4756C107.01 50.0335 104.34 52.0187 102.024 50.8326Z" fill="#D0D0D0"/>
<path d="M109.352 36.2347C109.264 36.3512 109.167 36.4616 109.063 36.5651L104.774 40.8404L105.863 46.7927C106.299 49.1839 103.804 51.0357 101.641 49.9305L96.2516 47.1705L90.9236 50.0447C88.7839 51.1994 86.2503 49.3991 86.6352 46.9988L87.5949 41.0212L83.2135 36.8419C81.4557 35.1639 82.3841 32.1948 84.7854 31.821L90.7377 30.8906H90.768L93.3886 25.4353C93.6974 24.7792 94.2416 24.2632 94.9131 23.9896C95.5964 23.7066 96.3615 23.6925 97.0548 23.9501C97.7481 24.2077 98.3183 24.7181 98.6509 25.3787L101.389 30.7794L107.388 31.5876C109.645 31.8836 110.659 34.4961 109.352 36.2347Z" fill="#C7C6C2"/>
<path d="M90.5919 30.9126L87.3086 31.4268C88.3885 31.1727 89.486 31.0008 90.5919 30.9126Z" fill="#D0D0D0"/>
<path d="M90.7398 30.9028L90.5918 30.9129L90.7358 30.8906C90.7376 30.8945 90.7389 30.8986 90.7398 30.9028Z" fill="#D0D0D0"/>
<path d="M109.063 36.5649L104.774 40.8402L105.863 46.7925C106.299 49.1837 103.804 51.0355 101.641 49.9303L96.2516 47.1703L96.1213 47.24L92.8612 48.9989L91.3095 49.8353L90.9246 50.0434C88.7849 51.1981 86.2512 49.3979 86.6361 46.9976L86.726 46.4379L87.5959 41.02L83.2145 36.8407C81.4567 35.1626 82.3851 32.1936 84.7864 31.8198L87.312 31.4258C85.4855 31.8693 83.5903 32.6694 83.4862 34.0867C83.2781 36.9275 89.975 39.9209 89.975 39.9209C89.975 39.9209 88.3071 44.5811 90.7761 45.56C93.2451 46.5389 96.4334 43.977 96.4334 43.977C96.4334 43.977 100.202 47.7351 102.913 46.9653C105.701 46.1742 104.469 40.7392 104.469 40.7392C104.469 40.7392 107.44 37.7822 109.352 36.2345C109.264 36.351 109.167 36.4614 109.063 36.5649Z" fill="#D0D0D0"/>
<path d="M91.3062 49.8364L90.9213 50.0445C88.7816 51.1992 86.2479 49.399 86.6328 46.9986L86.7227 46.439C86.7894 46.9027 86.3035 48.1665 87.5572 49.404C88.1987 50.0334 89.5979 50.5163 91.3062 49.8364Z" fill="#E5E5E5"/>
<path d="M96.2156 47.1753L96.1145 47.2399L92.8545 48.9988C93.7395 48.4048 95.1599 47.5157 96.2156 47.1753Z" fill="#E5E5E5"/>
<path d="M96.669 25.4958C97.36 25.0583 97.8267 25.4958 98.7663 27.5102C99.7058 29.5246 99.4916 30.3681 98.4753 30.6126C97.459 30.8571 95.6689 26.1251 96.669 25.4958Z" fill="white"/>
<path d="M102.81 32.0217C103.876 31.9743 106.503 32.3874 106.554 33.2431C106.606 34.0988 104.056 33.6149 103.135 33.4522C102.213 33.2896 101.741 32.0692 102.81 32.0217Z" fill="white"/>
<path d="M36.4467 37.4317L30.6034 43.2507L32.0844 51.3629C32.6785 54.6199 29.28 57.1455 26.3332 55.6352L18.9938 51.8771L11.7363 55.7918C8.82172 57.3637 5.37176 54.9119 5.89506 51.6428L7.20231 43.5013L1.24191 37.8086C-1.15437 35.5234 0.11044 31.4825 3.38159 30.9713L11.5292 29.6984L12.8586 26.9334H15.4428L15.954 25.8696C16.2788 25.1812 16.8508 24.6402 17.5562 24.3542C18.2747 24.0569 19.0791 24.0423 19.8079 24.3132C20.5367 24.5841 21.1362 25.1206 21.4861 25.815L22.0578 26.9414C22.27 26.9414 22.4821 26.9546 22.6923 26.9677C23.4086 27.0124 24.1211 27.1056 24.8249 27.2465L25.9917 29.5479L31.4278 30.2793C33.764 32.0991 35.5448 34.5359 36.5689 37.3146C36.5265 37.355 36.4881 37.3913 36.4467 37.4317Z" fill="#949494"/>
<path d="M33.3914 37.5459L28.5625 42.3546L29.7859 49.0586C30.2779 51.7508 27.4694 53.837 25.0378 52.5893L18.9764 49.4839L12.9786 52.7166C10.5702 54.0158 7.7183 51.9893 8.15169 49.2879L9.23163 42.5597L4.2946 37.8601C2.31453 35.9709 3.36013 32.6321 6.06352 32.2098L12.7957 31.1572L14.8273 26.9334H15.4416L15.9527 25.8696C16.2776 25.1812 16.8495 24.6402 17.555 24.3542C18.2735 24.0569 19.0778 24.0423 19.8066 24.3132C20.5355 24.5841 21.1349 25.1206 21.4848 25.815L22.0566 26.9414C22.2687 26.9414 22.4809 26.9546 22.691 26.9677L24.7509 31.0319L31.5043 31.9411C34.2128 32.3038 35.3351 35.6164 33.3914 37.5459Z" fill="#949494"/>
<path d="M32.7421 37.2348C32.6495 37.3577 32.5482 37.4739 32.4391 37.5823L27.9263 42.0759L29.0699 48.3393C29.5286 50.8538 26.905 52.8046 24.6249 51.6388L18.9575 48.7364L18.819 48.8101L15.3913 50.6599L13.7598 51.5398L13.3557 51.757C11.1049 52.9693 8.43987 51.0781 8.84498 48.5535L8.93892 47.9666L9.8542 42.2668L5.24651 37.8713C3.39677 36.1064 4.37367 32.9858 6.90027 32.5908L9.55518 32.1756L13.0082 31.6361L13.1587 31.6128L13.191 31.6078L15.4368 26.9314L15.948 25.8676C16.2728 25.1792 16.8448 24.6383 17.5502 24.3523C18.2687 24.055 19.073 24.0403 19.8019 24.3112C20.5307 24.5822 21.1302 25.1187 21.48 25.8131L22.0518 26.9395L24.3612 31.4957L30.6732 32.3433C33.0513 32.6584 34.1161 35.4063 32.7421 37.2348Z" fill="#949494"/>
<path d="M13.0087 31.6382L9.55566 32.1776C10.6913 31.9103 11.8456 31.7299 13.0087 31.6382Z" fill="#949494"/>
<path d="M13.1659 31.6269L13.0098 31.6381L13.1608 31.6138C13.163 31.618 13.1647 31.6224 13.1659 31.6269Z" fill="#949494"/>
<path d="M32.4391 37.5821L27.9264 42.0756L29.07 48.3391C29.5286 50.8556 26.905 52.8053 24.6249 51.6395L18.9575 48.7371L18.8191 48.8108L15.3903 50.6606L13.7588 51.5405L13.3547 51.7587C11.1039 52.971 8.4389 51.0798 8.844 48.5552L8.93795 47.9673L9.85323 42.2675L5.24554 37.872C3.39579 36.1071 4.37269 32.9865 6.89929 32.5915L9.55521 32.1763C7.63576 32.643 5.63952 33.4896 5.53042 34.9756C5.3112 37.9639 12.3556 41.1128 12.3556 41.1128C12.3556 41.1128 10.6018 46.0135 13.1981 47.0439C15.7944 48.0744 19.1474 45.378 19.1474 45.378C19.1474 45.378 23.1116 49.3311 25.9635 48.5219C28.9002 47.6885 27.6041 41.9715 27.6041 41.9715C27.6041 41.9715 30.7288 38.861 32.7402 37.2335C32.6479 37.3565 32.5473 37.4729 32.4391 37.5821Z" fill="#949494"/>
<path d="M13.7616 51.5415L13.3575 51.7597C11.1067 52.972 8.44171 51.0808 8.84682 48.5562L8.94076 47.9683C9.01148 48.4552 8.50132 49.7867 9.81968 51.0859C10.4925 51.7516 11.9634 52.2557 13.7616 51.5415Z" fill="#949494"/>
<path d="M18.9262 48.7422L18.8252 48.8109L15.3965 50.6606C16.3239 50.0353 17.816 49.1008 18.9262 48.7422Z" fill="#949494"/>
<path d="M19.3992 25.9395C20.1265 25.4798 20.6175 25.9445 21.6055 28.061C22.5935 30.1774 22.3693 31.0664 21.3024 31.324C20.2356 31.5816 18.3505 26.6022 19.3992 25.9395Z" fill="#949494"/>
<path d="M25.8626 32.809C26.984 32.7595 29.746 33.1939 29.8026 34.094C29.8591 34.9941 27.176 34.485 26.2051 34.3142C25.2343 34.1435 24.7383 32.8544 25.8626 32.809Z" fill="#949494"/>
<path d="M25.9637 53.8805L18.986 50.3073L12.0861 54.029C9.31603 55.5232 6.03377 53.1926 6.52979 50.0891L7.77239 42.3487L2.0989 36.9318C-0.178179 34.7588 1.02401 30.9168 4.13453 30.4309L11.88 29.2186L15.2744 22.147C15.6756 21.2986 16.3819 20.6326 17.2525 20.2821C18.9699 19.584 21.1267 20.181 22.0915 22.0803L25.6374 29.0711L33.4072 30.1147C36.5278 30.535 37.8128 34.3496 35.5822 36.5711L30.0259 42.1022L31.4331 49.8153C32.0019 52.9127 28.7692 55.3151 25.9637 53.8805Z" fill="#B8B6B1"/>
<path d="M24.7282 50.984L18.9617 48.0311L13.26 51.1073C10.9698 52.3428 8.25829 50.4163 8.67046 47.8472L9.69685 41.4504L5.00936 36.9781C3.12729 35.1819 4.12136 32.0077 6.6914 31.6066L13.0933 30.6065L15.8977 24.7663C16.2274 24.0641 16.8096 23.5119 17.5282 23.2197C18.2591 22.9163 19.0778 22.901 19.8196 23.1767C20.5614 23.4523 21.1713 23.9986 21.5267 24.7057L24.4564 30.4843L30.8775 31.347C33.4556 31.6935 34.5143 34.8465 32.6737 36.6821L28.0832 41.2534L29.246 47.627C29.7137 50.1849 27.0436 52.17 24.7282 50.984Z" fill="#D0D0D0"/>
<path d="M32.0565 36.3861C31.9677 36.5026 31.8712 36.6129 31.7676 36.7164L27.4781 40.9918L28.5671 46.9441C29.0035 49.3353 26.5082 51.1871 24.3453 50.0819L18.9557 47.3219L13.6277 50.196C11.488 51.3507 8.95437 49.5505 9.33927 47.1502L10.299 41.1726L5.9176 36.9932C4.15979 35.3152 5.08819 32.3461 7.48952 31.9724L13.4418 31.0419H13.4721L16.0927 25.5866C16.4015 24.9306 16.9457 24.4146 17.6172 24.141C18.3005 23.8579 19.0656 23.8438 19.7589 24.1015C20.4522 24.3591 21.0224 24.8695 21.355 25.5301L24.0928 30.9308L30.0926 31.739C32.3494 32.035 33.3627 34.6475 32.0565 36.3861Z" fill="#C7C6C2"/>
<path d="M13.296 31.064L10.0127 31.5782C11.0926 31.3241 12.1901 31.1522 13.296 31.064Z" fill="#D0D0D0"/>
<path d="M13.4439 31.0542L13.2959 31.0643L13.4399 31.042C13.4417 31.0459 13.443 31.05 13.4439 31.0542Z" fill="#D0D0D0"/>
<path d="M31.7675 36.7162L27.478 40.9915L28.5671 46.9439C29.0035 49.3351 26.5082 51.1869 24.3453 50.0817L18.9557 47.3217L18.8254 47.3914L15.5653 49.1502L14.0136 49.9867L13.6287 50.1948C11.489 51.3495 8.95535 49.5493 9.34025 47.1489L9.43015 46.5893L10.3 41.1714L5.91858 36.992C4.16076 35.314 5.08917 32.3449 7.4905 31.9711L10.0161 31.5771C8.18958 32.0206 6.29438 32.8208 6.19033 34.2381C5.98222 37.0789 12.6791 40.0722 12.6791 40.0722C12.6791 40.0722 11.0112 44.7325 13.4802 45.7114C15.9492 46.6903 19.1375 44.1283 19.1375 44.1283C19.1375 44.1283 22.9057 47.8864 25.6172 47.1166C28.4054 46.3256 27.1729 40.8905 27.1729 40.8905C27.1729 40.8905 30.1441 37.9336 32.0564 36.3859C31.9677 36.5024 31.8712 36.6127 31.7675 36.7162Z" fill="#D0D0D0"/>
<path d="M14.0103 49.9878L13.6254 50.1959C11.4857 51.3506 8.95203 49.5503 9.33693 47.15L9.42684 46.5903C9.49352 47.054 9.00759 48.3178 10.2613 49.5554C10.9028 50.1848 12.302 50.6676 14.0103 49.9878Z" fill="#E5E5E5"/>
<path d="M18.9197 47.3267L18.8186 47.3913L15.5586 49.1501C16.4436 48.5561 17.864 47.6671 18.9197 47.3267Z" fill="#E5E5E5"/>
<path d="M19.3731 25.6471C20.0641 25.2097 20.5309 25.6471 21.4704 27.6615C22.4099 29.676 22.1957 30.5195 21.1794 30.764C20.1631 31.0085 18.373 26.2765 19.3731 25.6471Z" fill="white"/>
<path d="M25.5144 32.1731C26.5802 32.1256 29.2068 32.5388 29.2583 33.3945C29.3098 34.2502 26.76 33.7663 25.8387 33.6036C24.9173 33.441 24.4455 32.2206 25.5144 32.1731Z" fill="white"/>
<path d="M82.5586 25.1377L74.1323 33.5291L76.268 45.2274C77.1246 49.9242 72.2238 53.5663 67.9743 51.3884L57.3904 45.9689L46.9245 51.6142C42.7215 53.881 37.7464 50.3453 38.5011 45.631L40.3862 33.8904L31.7909 25.6811C28.3353 22.3857 30.1593 16.5584 34.8765 15.8213L46.6258 13.9856L48.543 9.9983H52.2696L53.0068 8.46426C53.4752 7.47153 54.3 6.69142 55.3173 6.27901C56.3534 5.85028 57.5133 5.82915 58.5644 6.21985C59.6154 6.61054 60.4799 7.38418 60.9844 8.38559L61.8089 10.01C62.1149 10.01 62.4208 10.0289 62.7238 10.0478C63.7569 10.1123 64.7843 10.2466 65.7992 10.4499L67.4819 13.7686L75.3211 14.8233C78.6901 17.4476 81.2581 20.9617 82.7349 24.9687C82.6737 25.027 82.6183 25.0794 82.5586 25.1377Z" fill="#949494"/>
<path d="M78.1532 25.3023L71.1895 32.2368L72.9537 41.9044C73.6632 45.7868 69.6132 48.7952 66.1066 46.996L57.3656 42.5177L48.7164 47.1796C45.2433 49.0531 41.1307 46.1306 41.7557 42.2351L43.313 32.5326L36.1935 25.7554C33.3381 23.0311 34.8459 18.2163 38.7444 17.6073L48.4527 16.0893L51.3824 9.9983H52.2682L53.0053 8.46426C53.4738 7.47153 54.2986 6.69142 55.3159 6.27901C56.352 5.85028 57.5119 5.82915 58.5629 6.21985C59.614 6.61054 60.4784 7.38418 60.9829 8.38559L61.8075 10.01C62.1135 10.01 62.4194 10.0289 62.7224 10.0478L65.6929 15.9087L75.4318 17.2198C79.3376 17.7428 80.9561 22.5198 78.1532 25.3023Z" fill="#949494"/>
<path d="M77.2163 24.8536C77.0827 25.0308 76.9367 25.1983 76.7793 25.3547L70.2716 31.8347L71.9207 40.8671C72.5821 44.4931 68.7987 47.3063 65.5107 45.6251L57.3378 41.4396L57.1382 41.546L52.1952 44.2134L49.8424 45.4823L49.2597 45.7956C46.0139 47.5438 42.1708 44.8166 42.7549 41.1759L42.8904 40.3295L44.2103 32.1101L37.5657 25.7714C34.8983 23.2263 36.307 18.7262 39.9505 18.1565L43.7791 17.5578L48.7585 16.7798L48.9756 16.7463L49.0222 16.739L52.2608 9.99537L52.9979 8.46133C53.4664 7.4686 54.2912 6.68849 55.3085 6.27608C56.3446 5.84735 57.5045 5.82622 58.5555 6.21692C59.6066 6.60761 60.471 7.38125 60.9755 8.38266L61.8001 10.007L65.1304 16.5773L74.2327 17.7996C77.6621 18.2542 79.1976 22.2167 77.2163 24.8536Z" fill="#949494"/>
<path d="M48.7597 16.7832L43.7803 17.5612C45.4179 17.1756 47.0825 16.9155 48.7597 16.7832Z" fill="#949494"/>
<path d="M48.9869 16.767L48.7617 16.7831L48.9796 16.748C48.9826 16.7541 48.9851 16.7605 48.9869 16.767Z" fill="#949494"/>
<path d="M76.7788 25.3546L70.2711 31.8346L71.9202 40.8669C72.5816 44.4959 68.7982 47.3076 65.5102 45.6264L57.3373 41.4409L57.1378 41.5473L52.1933 44.2147L49.8405 45.4836L49.2578 45.7983C46.0119 47.5465 42.1688 44.8193 42.753 41.1787L42.8885 40.3308L44.2084 32.1114L37.5638 25.7727C34.8963 23.2276 36.3051 18.7275 39.9486 18.1578L43.7786 17.5591C41.0106 18.2321 38.1319 19.453 37.9746 21.596C37.6584 25.9053 47.8169 30.4462 47.8169 30.4462C47.8169 30.4462 45.2879 37.5133 49.0319 38.9993C52.776 40.4852 57.6112 36.597 57.6112 36.597C57.6112 36.597 63.3278 42.2975 67.4405 41.1306C71.6755 39.9287 69.8064 31.6845 69.8064 31.6845C69.8064 31.6845 74.3124 27.1989 77.2129 24.852C77.0799 25.0293 76.9348 25.1972 76.7788 25.3546Z" fill="#949494"/>
<path d="M49.8451 45.4848L49.2623 45.7995C46.0165 47.5477 42.1734 44.8205 42.7576 41.1799L42.8931 40.332C42.995 41.0342 42.2594 42.9543 44.1605 44.8278C45.1308 45.7879 47.2519 46.5148 49.8451 45.4848Z" fill="#949494"/>
<path d="M57.2923 41.4482L57.1466 41.5473L52.2021 44.2148C53.5395 43.313 55.6913 41.9654 57.2923 41.4482Z" fill="#949494"/>
<path d="M57.9745 8.56511C59.0234 7.90225 59.7314 8.57239 61.1562 11.6245C62.581 14.6765 62.2576 15.9585 60.7192 16.33C59.1807 16.7015 56.4623 9.52079 57.9745 8.56511Z" fill="#949494"/>
<path d="M67.2952 18.4713C68.9123 18.3999 72.8952 19.0264 72.9768 20.3244C73.0584 21.6224 69.1891 20.8882 67.7891 20.642C66.389 20.3958 65.6737 18.5369 67.2952 18.4713Z" fill="#949494"/>
<path d="M67.4405 48.8581L57.3782 43.7053L47.428 49.0722C43.4334 51.2269 38.7001 47.866 39.4155 43.3906L41.2074 32.2283L33.0258 24.4168C29.7421 21.2831 31.4757 15.7428 35.9613 15.0421L47.1308 13.2939L52.0258 3.09606C52.6043 1.8726 53.6229 0.912285 54.8783 0.406749C57.3549 -0.599922 60.4652 0.261064 61.8565 2.99991L66.97 13.0812L78.1745 14.5861C82.6746 15.1921 84.5277 20.6931 81.311 23.8967L73.2984 31.8729L75.3278 42.9958C76.148 47.4624 71.4861 50.9268 67.4405 48.8581Z" fill="#B8B6B1"/>
<path d="M65.6586 44.6809L57.343 40.4226L49.1206 44.8586C45.818 46.6403 41.9079 43.8622 42.5022 40.1574L43.9824 30.9328L37.2227 24.4834C34.5086 21.8931 35.9421 17.3158 39.6483 16.7374L48.8802 15.2951L52.9244 6.87319C53.3999 5.86054 54.2394 5.06419 55.2757 4.64277C56.3298 4.20535 57.5104 4.1832 58.5801 4.58076C59.6498 4.97833 60.5294 5.76613 61.0419 6.78578L65.2667 15.1189L74.5263 16.363C78.2442 16.8627 79.7709 21.4095 77.1166 24.0565L70.4967 30.6487L72.1735 39.8398C72.848 43.5285 68.9976 46.3912 65.6586 44.6809Z" fill="#D0D0D0"/>
<path d="M76.2272 23.6298C76.0992 23.7978 75.96 23.9569 75.8105 24.1062L69.6248 30.2715L71.1953 38.8551C71.8246 42.3035 68.2263 44.9738 65.1072 43.3801L57.335 39.4L49.6516 43.5447C46.5661 45.2098 42.9123 42.6138 43.4674 39.1523L44.8514 30.5323L38.5331 24.5053C35.9982 22.0855 37.337 17.8039 40.7999 17.2649L49.3836 15.9231H49.4273L53.2063 8.05625C53.6517 7.11019 54.4363 6.36608 55.4047 5.97153C56.3901 5.56334 57.4934 5.54297 58.4932 5.91452C59.493 6.28606 60.3153 7.02202 60.795 7.97467L64.743 15.7629L73.3951 16.9284C76.6497 17.3552 78.1109 21.1226 76.2272 23.6298Z" fill="#C7C6C2"/>
<path d="M49.1742 15.9551L44.4395 16.6966C45.9967 16.3302 47.5795 16.0823 49.1742 15.9551Z" fill="#D0D0D0"/>
<path d="M49.3873 15.9409L49.1738 15.9555L49.3814 15.9233C49.3841 15.9289 49.386 15.9348 49.3873 15.9409Z" fill="#D0D0D0"/>
<path d="M75.811 24.1057L69.6253 30.271L71.1958 38.8547C71.8251 42.303 68.2267 44.9734 65.1077 43.3796L57.3355 39.3995L57.1475 39.5001L52.4464 42.0364L50.2086 43.2427L49.6536 43.5428C46.568 45.2079 42.9143 42.6119 43.4694 39.1504L43.599 38.3433L44.8533 30.5304L38.5351 24.5034C36.0002 22.0836 37.339 17.802 40.8019 17.263L44.444 16.6948C41.81 17.3344 39.077 18.4882 38.9269 20.5321C38.6268 24.6287 48.2842 28.9453 48.2842 28.9453C48.2842 28.9453 45.879 35.6657 49.4394 37.0774C52.9999 38.489 57.5977 34.7945 57.5977 34.7945C57.5977 34.7945 63.0317 40.2139 66.9418 39.1038C70.9627 37.9631 69.1853 30.1254 69.1853 30.1254C69.1853 30.1254 73.4699 25.8612 76.2277 23.6293C76.0997 23.7973 75.9605 23.9565 75.811 24.1057Z" fill="#D0D0D0"/>
<path d="M50.2039 43.2445L49.6488 43.5446C46.5632 45.2098 42.9095 42.6137 43.4646 39.1523L43.5942 38.3452C43.6904 39.0139 42.9896 40.8364 44.7976 42.621C45.7226 43.5286 47.7404 44.225 50.2039 43.2445Z" fill="#E5E5E5"/>
<path d="M57.2834 39.4067L57.1377 39.5L52.4365 42.0363C53.7127 41.1797 55.761 39.8977 57.2834 39.4067Z" fill="#E5E5E5"/>
<path d="M57.9377 8.14362C58.9341 7.51282 59.6072 8.14362 60.962 11.0485C62.3169 13.9535 62.0081 15.1699 60.5425 15.5225C59.0769 15.875 56.4954 9.05123 57.9377 8.14362Z" fill="white"/>
<path d="M66.7942 17.5546C68.3311 17.4861 72.1189 18.082 72.1932 19.3159C72.2675 20.5499 68.5904 19.852 67.2618 19.6175C65.9332 19.3829 65.2528 17.6231 66.7942 17.5546Z" fill="white"/>
</svg>
