<svg width="109" height="108" viewBox="0 0 109 108" fill="none" xmlns="http://www.w3.org/2000/svg">
<path d="M108.124 51.7139L90.7892 68.9766L95.1828 93.0425C96.945 102.705 86.8631 110.197 78.1209 105.717L56.3476 94.568L34.8172 106.181C26.1708 110.845 15.936 103.571 17.4885 93.8727L21.3666 69.7199L3.6843 52.8317C-3.42459 46.0525 0.327635 34.0645 10.0319 32.548L34.2028 28.7718L38.1468 20.569H45.8132L47.3297 17.4132C48.2933 15.3709 49.9902 13.7661 52.0829 12.9177C54.2144 12.0357 56.6005 11.9922 58.7628 12.796C60.925 13.5997 62.7034 15.1912 63.7412 17.2513L65.4375 20.593C66.0669 20.593 66.6963 20.6319 67.3197 20.6709C69.4448 20.8035 71.5585 21.0799 73.6463 21.4981L77.1079 28.3253L93.2347 30.4951C100.165 35.8937 105.448 43.123 108.486 51.3662C108.361 51.4861 108.247 51.594 108.124 51.7139Z" fill="#D58900"/>
<path d="M99.0608 52.0525L84.7352 66.3183L88.3645 86.2064C89.8241 94.1934 81.4924 100.382 74.2786 96.6809L56.2966 87.4681L38.5034 97.0585C31.3585 100.913 22.898 94.9007 24.1837 86.8867L27.3875 66.9267L12.7412 52.9846C6.86704 47.3802 9.96894 37.4751 17.9889 36.2224L37.9609 33.0995L43.9879 20.569H45.8101L47.3266 17.4132C48.2902 15.3709 49.9871 13.7661 52.0798 12.9177C54.2113 12.0357 56.5975 11.9922 58.7597 12.796C60.9219 13.5997 62.7003 15.1912 63.7382 17.2513L65.4345 20.593C66.0639 20.593 66.6932 20.6319 67.3166 20.6709L73.4275 32.7279L93.4624 35.4252C101.497 36.5011 104.827 46.3283 99.0608 52.0525Z" fill="#D58900"/>
<path d="M97.1344 51.1296C96.8596 51.4942 96.5592 51.8387 96.2353 52.1605L82.8477 65.4912L86.2403 84.0726C87.6009 91.5322 79.8177 97.3194 73.0535 93.8609L56.2403 85.2505L55.8297 85.4692L45.6609 90.9568L40.8207 93.5671L39.6219 94.2115C32.9446 97.8079 25.0385 92.1975 26.2403 84.708L26.519 82.9667L29.2343 66.0576L15.565 53.0177C10.0775 47.7819 12.9756 38.5242 20.4711 37.3524L28.3472 36.1206L38.5909 34.5202L39.0375 34.4513L39.1334 34.4363L45.7958 20.5631L47.3122 17.4073C48.2759 15.3651 49.9727 13.7602 52.0655 12.9118C54.197 12.0298 56.5831 11.9863 58.7454 12.7901C60.9076 13.5938 62.6859 15.1854 63.7238 17.2455L65.4201 20.5871L72.2713 34.1036L90.9965 36.6181C98.0515 37.5532 101.21 45.705 97.1344 51.1296Z" fill="#D58900"/>
<path d="M38.5934 34.5264L28.3496 36.1268C31.7185 35.3336 35.1431 34.7986 38.5934 34.5264Z" fill="#D58900"/>
<path d="M39.0582 34.4931L38.5967 34.526L39.0432 34.4541C39.0495 34.4665 39.0546 34.4796 39.0582 34.4931Z" fill="#D58900"/>
<path d="M96.2344 52.1605L82.8468 65.4912L86.2394 84.0726C87.6 91.5381 79.8168 97.3223 73.0526 93.8638L56.2394 85.2534L55.8288 85.4722L45.657 90.9597L40.8168 93.5701L39.618 94.2175C32.9407 97.8139 25.0346 92.2035 26.2364 84.714L26.5151 82.9697L29.2304 66.0606L15.5611 53.0206C10.0736 47.7849 12.9717 38.5271 20.4672 37.3553L28.3463 36.1235C22.652 37.5082 16.7299 40.0196 16.4062 44.4282C15.7559 53.2934 36.654 62.635 36.654 62.635C36.654 62.635 31.4512 77.1735 39.1535 80.2304C46.8558 83.2874 56.8028 75.2884 56.8028 75.2884C56.8028 75.2884 68.5631 87.0156 77.0236 84.615C85.7359 82.1425 81.8907 65.1825 81.8907 65.1825C81.8907 65.1825 91.1605 55.9547 97.1275 51.1265C96.8539 51.4913 96.5555 51.8368 96.2344 52.1605Z" fill="#D58900"/>
<path d="M40.8265 93.5731L39.6277 94.2204C32.9504 97.8168 25.0443 92.2064 26.2461 84.7169L26.5248 82.9727C26.7346 84.4172 25.2211 88.3673 29.1322 92.2214C31.1282 94.1964 35.4918 95.6919 40.8265 93.5731Z" fill="#D58900"/>
<path d="M56.1473 85.2686L55.8476 85.4724L45.6758 90.9599C48.427 89.1047 52.8536 86.3325 56.1473 85.2686Z" fill="#D58900"/>
<path d="M57.5495 17.6201C59.7074 16.2565 61.1639 17.6351 64.095 23.9138C67.026 30.1925 66.3607 32.8299 63.1959 33.5941C60.031 34.3584 54.4386 19.5862 57.5495 17.6201Z" fill="#D58900"/>
<path d="M76.7246 37.9996C80.0513 37.8527 88.2451 39.1414 88.4129 41.8117C88.5808 44.4821 80.6207 42.9716 77.7406 42.4651C74.8605 41.9586 73.389 38.1344 76.7246 37.9996Z" fill="#D58900"/>
<path d="M77.0243 100.511L56.324 89.9107L35.8544 100.952C27.6367 105.384 17.8994 98.4701 19.3709 89.2633L23.0572 66.3003L6.22607 50.2304C-0.529178 43.7838 3.03726 32.3862 12.265 30.9447L35.243 27.3483L45.313 6.36923C46.5031 3.85233 48.5985 1.87676 51.1811 0.836766C56.276 -1.23416 62.6746 0.537062 65.5368 6.17143L76.0562 26.9107L99.1062 30.0066C108.364 31.2533 112.176 42.57 105.559 49.1604L89.0752 65.569L93.25 88.4512C94.9373 97.64 85.3469 104.767 77.0243 100.511Z" fill="#EEC236"/>
<path d="M73.3593 91.919L56.2524 83.1587L39.3373 92.2846C32.5431 95.95 24.4991 90.2347 25.7219 82.6133L28.7669 63.6363L14.8608 50.3685C9.27737 45.0399 12.2264 35.6233 19.8508 34.4335L38.8428 31.4664L47.1625 14.1408C48.1406 12.0575 49.8677 10.4193 51.9996 9.55235C54.168 8.65248 56.5967 8.60691 58.7974 9.42478C60.998 10.2426 62.8074 11.8633 63.8618 13.9609L72.5531 31.1038L91.602 33.6632C99.2504 34.6912 102.391 44.0449 96.9307 49.4904L83.3123 63.0518L86.7619 81.9599C88.1495 89.5484 80.2284 95.4375 73.3593 91.919Z" fill="#D47F02"/>
<path d="M95.0989 48.6123C94.8356 48.958 94.5492 49.2854 94.2418 49.5924L81.5165 62.2757L84.7472 79.934C86.0419 87.0279 78.6393 92.5214 72.2228 89.2427L56.2337 81.0549L40.4276 89.5814C34.0799 93.0069 26.5634 87.6663 27.7053 80.5454L30.5524 62.8121L17.5544 50.4135C12.3397 45.4355 15.0939 36.6273 22.2178 35.5184L39.8761 32.7582H39.966L47.7402 16.5744C48.6564 14.6281 50.2706 13.0973 52.2627 12.2857C54.2899 11.4459 56.5597 11.404 58.6165 12.1684C60.6732 12.9327 62.3648 14.4468 63.3516 16.4066L71.4735 32.4285L89.2727 34.8261C95.968 35.7043 98.974 43.4545 95.0989 48.6123Z" fill="#F2D847"/>
<path d="M39.4444 32.8242L29.7041 34.3497C32.9076 33.5958 36.1637 33.0859 39.4444 32.8242Z" fill="#FFC921"/>
<path d="M39.8819 32.7938L39.4443 32.8237L39.8699 32.7578C39.8753 32.7693 39.8793 32.7814 39.8819 32.7938Z" fill="#FFC921"/>
<path d="M94.2417 49.5924L81.5164 62.2758L84.7472 79.9341C86.0419 87.028 78.6393 92.5215 72.2227 89.2428L56.2337 81.055L55.8471 81.2618L46.1758 86.4796L41.5723 88.9611L40.4305 89.5784C34.0828 93.004 26.5664 87.6634 27.7082 80.5425L27.9749 78.8821L30.5554 62.8092L17.5574 50.4106C12.3426 45.4326 15.0968 36.6244 22.2207 35.5155L29.7132 34.3467C24.2946 35.6624 18.6722 38.036 18.3636 42.2408C17.7462 50.6684 37.6133 59.5485 37.6133 59.5485C37.6133 59.5485 32.6653 73.3736 39.9899 76.2777C47.3146 79.1818 56.7732 71.5814 56.7732 71.5814C56.7732 71.5814 67.952 82.7303 75.9959 80.4466C84.2677 78.0999 80.6113 61.9761 80.6113 61.9761C80.6113 61.9761 89.4255 53.2038 95.0988 48.6124C94.8355 48.958 94.5491 49.2854 94.2417 49.5924Z" fill="#FFC921"/>
<path d="M41.5631 88.9637L40.4212 89.5811C34.0735 93.0066 26.5571 87.666 27.6989 80.5451L27.9657 78.8848C28.1635 80.2604 26.7219 84.0097 30.4412 87.681C32.3443 89.5481 36.4951 90.9807 41.5631 88.9637Z" fill="#FEE581"/>
<path d="M56.1292 81.0693L55.8295 81.2611L46.1582 86.4789C48.7836 84.7167 52.9974 82.0793 56.1292 81.0693Z" fill="#FEE581"/>
<path d="M57.4748 16.7541C59.5247 15.4564 60.9093 16.7541 63.6966 22.7301C66.4838 28.7061 65.8484 31.2086 62.8334 31.9339C59.8184 32.6592 54.5077 18.6212 57.4748 16.7541Z" fill="white"/>
<path d="M75.6936 36.1144C78.8554 35.9736 86.6476 37.1993 86.8005 39.7378C86.9533 42.2762 79.3889 40.8407 76.6556 40.3582C73.9223 39.8757 72.5228 36.2553 75.6936 36.1144Z" fill="white"/>
</svg>
