<svg width="177" height="268" viewBox="0 0 177 268" fill="none" xmlns="http://www.w3.org/2000/svg">
<path fill-rule="evenodd" clip-rule="evenodd" d="M146.6 6.62206C154.939 8.53957 162.453 13.2664 167.781 19.9554C173.11 26.6444 176.054 35.0502 176.054 43.5897V223.657C176.054 232.196 173.11 240.602 167.781 247.291C162.453 253.98 154.939 258.707 146.6 260.624C127.402 265.017 107.715 267.246 88.0267 267.246C68.3389 267.246 48.6511 265.017 29.4537 260.624C21.1148 258.707 13.6009 253.98 8.27202 247.291C2.94314 240.602 0 232.196 0 223.657V43.5897C0 35.0502 2.94314 26.6444 8.27202 19.9554C13.6009 13.2664 21.1148 8.53957 29.4537 6.62206C48.6511 2.22964 68.3389 0 88.0267 0C107.715 0 127.402 2.22964 146.6 6.62206ZM30.2564 10.1003C14.6488 13.6901 3.56745 27.5808 3.56745 43.5897V223.657C3.56745 239.666 14.6488 253.579 30.2564 257.146C49.2754 261.516 68.6511 263.679 88.0267 263.679C107.402 263.679 126.778 261.516 145.797 257.146C161.405 253.579 172.486 239.666 172.486 223.657V43.5897C172.486 27.5808 161.405 13.6901 145.797 10.1003C126.778 5.73021 107.402 3.56745 88.0267 3.56745C68.6511 3.56745 49.2754 5.73021 30.2564 10.1003Z" fill="#FFC921"/>
</svg>
