<svg width="177" height="268" viewBox="0 0 177 268" fill="none" xmlns="http://www.w3.org/2000/svg">
<path d="M30.2563 10.1002C14.6488 13.69 3.56738 27.5807 3.56738 43.5896V223.657C3.56738 239.665 14.6488 253.578 30.2563 257.146C68.2719 265.864 107.781 265.864 145.797 257.146C161.405 253.578 172.486 239.665 172.486 223.657V43.5896C172.486 27.5807 161.405 13.69 145.797 10.1002C107.781 1.38228 68.2719 1.38228 30.2563 10.1002Z" fill="url(#paint0_linear_3462_20288)"/>
<path d="M30.2778 257.146C68.2934 265.864 107.803 265.864 145.819 257.146C161.426 253.578 172.507 239.665 172.507 223.656V145.708C171.393 145.418 170.211 145.239 169.007 145.239C161.56 145.239 155.518 151.282 155.518 158.729V196.499C155.518 189.052 149.475 183.01 142.028 183.01C134.559 183.01 128.539 189.052 128.539 196.499V133.199C128.539 125.73 122.496 119.688 115.027 119.688C107.58 119.688 101.538 125.73 101.538 133.199V170.122C101.538 162.675 95.4952 156.633 88.0482 156.633C80.6011 156.633 74.5588 162.675 74.5588 170.122V158.729C74.5588 151.282 68.5164 145.239 61.0694 145.239C53.6 145.239 47.5577 151.282 47.5577 158.729V199.264C47.5577 191.817 41.5376 185.774 34.0682 185.774C26.6212 185.774 20.5788 191.817 20.5788 199.264V158.729C20.5788 151.282 14.5365 145.239 7.08943 145.239C5.88541 145.239 4.70369 145.418 3.58887 145.708V223.656C3.58887 239.665 14.6703 253.578 30.2778 257.146Z" fill="#00778B"/>
<path opacity="0.5" fill-rule="evenodd" clip-rule="evenodd" d="M145.797 10.1003C161.405 13.69 172.486 27.5808 172.486 43.5897V223.657C172.486 239.665 161.405 253.578 145.797 257.146C126.778 261.516 107.402 263.679 88.0267 263.679C68.651 263.679 49.2753 261.516 30.2563 257.146C14.6488 253.578 3.56738 239.665 3.56738 223.657V43.5897C3.56738 27.5808 14.6488 13.69 30.2563 10.1003C49.2753 5.73014 68.651 3.56738 88.0267 3.56738C107.402 3.56738 126.8 5.73014 145.797 10.1003ZM30.6577 11.8394C23.5005 13.4893 17.0345 17.5473 12.4637 23.2998C7.87061 29.03 5.35111 36.2541 5.35111 43.5897V223.657C5.35111 230.992 7.87061 238.216 12.4637 243.946C17.0345 249.699 23.5005 253.779 30.6577 255.407C49.4537 259.71 68.7402 261.895 88.0267 261.895C107.313 261.895 126.6 259.71 145.396 255.407C152.553 253.779 159.019 249.699 163.612 243.946C168.183 238.216 170.702 230.992 170.702 223.657V43.5897C170.702 36.2541 168.183 29.03 163.612 23.2998C159.041 17.5473 152.575 13.4893 145.418 11.8394H145.396C126.6 7.53616 107.313 5.35111 88.0267 5.35111C68.7402 5.35111 49.4537 7.53616 30.6577 11.8394Z" fill="white"/>
<path fill-rule="evenodd" clip-rule="evenodd" d="M146.6 6.62206C154.939 8.53957 162.453 13.2664 167.781 19.9554C173.11 26.6444 176.054 35.0502 176.054 43.5897V223.657C176.054 232.196 173.11 240.602 167.781 247.291C162.453 253.98 154.939 258.707 146.6 260.624C127.402 265.017 107.715 267.246 88.0267 267.246C68.3389 267.246 48.6511 265.017 29.4537 260.624C21.1148 258.707 13.6009 253.98 8.27202 247.291C2.94314 240.602 0 232.196 0 223.657V43.5897C0 35.0502 2.94314 26.6444 8.27202 19.9554C13.6009 13.2664 21.1148 8.53957 29.4537 6.62206C48.6511 2.22964 68.3389 0 88.0267 0C107.715 0 127.402 2.22964 146.6 6.62206ZM30.2564 10.1003C14.6488 13.6901 3.56745 27.5808 3.56745 43.5897V223.657C3.56745 239.666 14.6488 253.579 30.2564 257.146C49.2754 261.516 68.6511 263.679 88.0267 263.679C107.402 263.679 126.778 261.516 145.797 257.146C161.405 253.579 172.486 239.666 172.486 223.657V43.5897C172.486 27.5808 161.405 13.6901 145.797 10.1003C126.778 5.73021 107.402 3.56745 88.0267 3.56745C68.6511 3.56745 49.2754 5.73021 30.2564 10.1003Z" fill="#3A80A5"/>
<defs>
<linearGradient id="paint0_linear_3462_20288" x1="119880" y1="-39612.8" x2="119880" y2="-236680" gradientUnits="userSpaceOnUse">
<stop stop-color="#72C6CC"/>
<stop offset="1" stop-color="#72C6CC"/>
</linearGradient>
</defs>
</svg>
