<svg width="32" height="32" viewBox="0 0 32 32" fill="none" xmlns="http://www.w3.org/2000/svg">
<path fill-rule="evenodd" clip-rule="evenodd" d="M4.61997 4.6185C2.66797 6.57317 2.66797 9.7145 2.66797 15.9998C2.66797 22.2852 2.66797 25.4278 4.61997 27.3798C6.57464 29.3332 9.71597 29.3332 16.0013 29.3332C22.2866 29.3332 25.4293 29.3332 27.3813 27.3798C29.3346 25.4292 29.3346 22.2852 29.3346 15.9998C29.3346 9.7145 29.3346 6.57184 27.3813 4.6185C25.4306 2.6665 22.2866 2.6665 16.0013 2.6665C9.71597 2.6665 6.5733 2.6665 4.61997 4.6185ZM22.668 16.3332C22.9332 16.3332 23.1875 16.4385 23.3751 16.6261C23.5626 16.8136 23.668 17.068 23.668 17.3332V23.9998C23.668 24.2651 23.5626 24.5194 23.3751 24.7069C23.1875 24.8945 22.9332 24.9998 22.668 24.9998C22.4028 24.9998 22.1484 24.8945 21.9609 24.7069C21.7733 24.5194 21.668 24.2651 21.668 23.9998V17.3332C21.668 17.068 21.7733 16.8136 21.9609 16.6261C22.1484 16.4385 22.4028 16.3332 22.668 16.3332ZM17.0013 7.99984C17.0013 7.73462 16.8959 7.48027 16.7084 7.29273C16.5209 7.10519 16.2665 6.99984 16.0013 6.99984C15.7361 6.99984 15.4817 7.10519 15.2942 7.29273C15.1067 7.48027 15.0013 7.73462 15.0013 7.99984V23.9998C15.0013 24.2651 15.1067 24.5194 15.2942 24.7069C15.4817 24.8945 15.7361 24.9998 16.0013 24.9998C16.2665 24.9998 16.5209 24.8945 16.7084 24.7069C16.8959 24.5194 17.0013 24.2651 17.0013 23.9998V7.99984ZM9.33463 10.9998C9.59985 10.9998 9.85421 11.1052 10.0417 11.2927C10.2293 11.4803 10.3346 11.7346 10.3346 11.9998V23.9998C10.3346 24.2651 10.2293 24.5194 10.0417 24.7069C9.85421 24.8945 9.59985 24.9998 9.33463 24.9998C9.06942 24.9998 8.81506 24.8945 8.62753 24.7069C8.43999 24.5194 8.33464 24.2651 8.33464 23.9998V11.9998C8.33464 11.7346 8.43999 11.4803 8.62753 11.2927C8.81506 11.1052 9.06942 10.9998 9.33463 10.9998Z" fill="#6A35FF"/>
</svg>
