<svg width="32" height="32" viewBox="0 0 32 32" fill="none" xmlns="http://www.w3.org/2000/svg">
<path fill-rule="evenodd" clip-rule="evenodd" d="M16 29.3332C10.3427 29.3332 7.51467 29.3332 5.75733 27.3798C4 25.4292 4 22.2852 4 15.9998C4 9.7145 4 6.57184 5.75733 4.6185C7.51467 2.66517 10.344 2.6665 16 2.6665C21.656 2.6665 24.4853 2.6665 26.2427 4.6185C28 6.57317 28 9.7145 28 15.9998C28 22.2852 28 25.4278 26.2427 27.3798C24.4853 29.3318 21.656 29.3332 16 29.3332ZM20 7.99984H12C11.38 7.99984 11.0707 7.99984 10.816 8.06784C10.4772 8.15876 10.1682 8.33721 9.92012 8.58529C9.67204 8.83336 9.49359 9.14233 9.40267 9.48117C9.33333 9.7385 9.33333 10.0478 9.33333 10.6665C9.33333 11.2852 9.33333 11.5958 9.40133 11.8505C9.49226 12.1893 9.67071 12.4983 9.91879 12.7464C10.1669 12.9945 10.4758 13.1729 10.8147 13.2638C11.072 13.3332 11.3813 13.3332 12 13.3332H20C20.62 13.3332 20.9293 13.3332 21.184 13.2652C21.5228 13.1742 21.8318 12.9958 22.0799 12.7477C22.328 12.4996 22.5064 12.1907 22.5973 11.8518C22.6667 11.5945 22.6667 11.2852 22.6667 10.6665C22.6667 10.0478 22.6667 9.73717 22.5987 9.4825C22.5077 9.14366 22.3293 8.8347 22.0812 8.58662C21.8331 8.33855 21.5242 8.16009 21.1853 8.06917C20.9293 7.99984 20.6187 7.99984 20 7.99984ZM12 17.3332C12 17.6868 11.8595 18.0259 11.6095 18.276C11.3594 18.526 11.0203 18.6665 10.6667 18.6665C10.313 18.6665 9.97391 18.526 9.72386 18.276C9.47381 18.0259 9.33333 17.6868 9.33333 17.3332C9.33333 16.9795 9.47381 16.6404 9.72386 16.3904C9.97391 16.1403 10.313 15.9998 10.6667 15.9998C11.0203 15.9998 11.3594 16.1403 11.6095 16.3904C11.8595 16.6404 12 16.9795 12 17.3332ZM16 18.6665C16.3536 18.6665 16.6928 18.526 16.9428 18.276C17.1929 18.0259 17.3333 17.6868 17.3333 17.3332C17.3333 16.9795 17.1929 16.6404 16.9428 16.3904C16.6928 16.1403 16.3536 15.9998 16 15.9998C15.6464 15.9998 15.3072 16.1403 15.0572 16.3904C14.8071 16.6404 14.6667 16.9795 14.6667 17.3332C14.6667 17.6868 14.8071 18.0259 15.0572 18.276C15.3072 18.526 15.6464 18.6665 16 18.6665ZM22.6667 17.3332C22.6667 17.6868 22.5262 18.0259 22.2761 18.276C22.0261 18.526 21.687 18.6665 21.3333 18.6665C20.9797 18.6665 20.6406 18.526 20.3905 18.276C20.1405 18.0259 20 17.6868 20 17.3332C20 16.9795 20.1405 16.6404 20.3905 16.3904C20.6406 16.1403 20.9797 15.9998 21.3333 15.9998C21.687 15.9998 22.0261 16.1403 22.2761 16.3904C22.5262 16.6404 22.6667 16.9795 22.6667 17.3332ZM21.3333 23.9998C21.687 23.9998 22.0261 23.8594 22.2761 23.6093C22.5262 23.3593 22.6667 23.0201 22.6667 22.6665C22.6667 22.3129 22.5262 21.9737 22.2761 21.7237C22.0261 21.4736 21.687 21.3332 21.3333 21.3332C20.9797 21.3332 20.6406 21.4736 20.3905 21.7237C20.1405 21.9737 20 22.3129 20 22.6665C20 23.0201 20.1405 23.3593 20.3905 23.6093C20.6406 23.8594 20.9797 23.9998 21.3333 23.9998ZM17.3333 22.6665C17.3333 23.0201 17.1929 23.3593 16.9428 23.6093C16.6928 23.8594 16.3536 23.9998 16 23.9998C15.6464 23.9998 15.3072 23.8594 15.0572 23.6093C14.8071 23.3593 14.6667 23.0201 14.6667 22.6665C14.6667 22.3129 14.8071 21.9737 15.0572 21.7237C15.3072 21.4736 15.6464 21.3332 16 21.3332C16.3536 21.3332 16.6928 21.4736 16.9428 21.7237C17.1929 21.9737 17.3333 22.3129 17.3333 22.6665ZM10.6667 23.9998C11.0203 23.9998 11.3594 23.8594 11.6095 23.6093C11.8595 23.3593 12 23.0201 12 22.6665C12 22.3129 11.8595 21.9737 11.6095 21.7237C11.3594 21.4736 11.0203 21.3332 10.6667 21.3332C10.313 21.3332 9.97391 21.4736 9.72386 21.7237C9.47381 21.9737 9.33333 22.3129 9.33333 22.6665C9.33333 23.0201 9.47381 23.3593 9.72386 23.6093C9.97391 23.8594 10.313 23.9998 10.6667 23.9998Z" fill="#12B99C"/>
</svg>
