<svg width="16" height="16" viewBox="0 0 16 16" fill="none" xmlns="http://www.w3.org/2000/svg">
<path fill-rule="evenodd" clip-rule="evenodd" d="M3.24858 1.5L3.25 1.5H12.75V2L12.7514 1.5C13.3473 1.5017 13.9182 1.73914 14.3395 2.16047C14.7609 2.58179 14.9983 3.15274 15 3.74858L15 3.75V9.75L15 9.75142C14.9983 10.3473 14.7609 10.9182 14.3395 11.3395C13.9182 11.7609 13.3473 11.9983 12.7514 12L12.75 12H7.67956L4.82019 14.384C4.67116 14.5083 4.4637 14.5351 4.28798 14.4528C4.11226 14.3705 4 14.194 4 14V12H3.25L3.24858 12C2.65274 11.9983 2.08179 11.7609 1.66047 11.3395C1.23914 10.9182 1.0017 10.3473 1 9.75142L1 9.75V3.75L1 3.74858C1.0017 3.15274 1.23914 2.58179 1.66047 2.16047C2.08179 1.73914 2.65274 1.5017 3.24858 1.5ZM7.74927 11.9419C7.74916 11.942 7.74905 11.9421 7.74894 11.9422L7.74927 11.9419ZM12.7492 2.5H3.25077C2.9194 2.50111 2.6019 2.63324 2.36757 2.86757C2.13324 3.1019 2.00111 3.4194 2 3.75077V9.74923C2.00111 10.0806 2.13324 10.3981 2.36757 10.6324C2.60191 10.8668 2.91942 10.9989 3.25081 11H4.5C4.77614 11 5 11.2239 5 11.5V12.9321L7.10823 11.1744C7.10834 11.1743 7.10845 11.1742 7.10856 11.1741C7.24341 11.0616 7.41345 11 7.58906 11C7.5891 11 7.58913 11 7.58916 11H12.7492C13.0806 10.9989 13.3981 10.8668 13.6324 10.6324C13.8668 10.3981 13.9989 10.0806 14 9.7492V3.75081C13.9989 3.41942 13.8668 3.10191 13.6324 2.86757C13.3981 2.63324 13.0806 2.50111 12.7492 2.5Z" fill="#21272A"/>
<path d="M5 7.75C5.55228 7.75 6 7.30228 6 6.75C6 6.19772 5.55228 5.75 5 5.75C4.44772 5.75 4 6.19772 4 6.75C4 7.30228 4.44772 7.75 5 7.75Z" fill="#21272A"/>
<path d="M8 7.75C8.55228 7.75 9 7.30228 9 6.75C9 6.19772 8.55228 5.75 8 5.75C7.44772 5.75 7 6.19772 7 6.75C7 7.30228 7.44772 7.75 8 7.75Z" fill="#21272A"/>
<path d="M11 7.75C11.5523 7.75 12 7.30228 12 6.75C12 6.19772 11.5523 5.75 11 5.75C10.4477 5.75 10 6.19772 10 6.75C10 7.30228 10.4477 7.75 11 7.75Z" fill="#21272A"/>
</svg>
