<svg width="32" height="32" viewBox="0 0 32 32" fill="none" xmlns="http://www.w3.org/2000/svg">
<mask id="mask0_4022_16155" style="mask-type:luminance" maskUnits="userSpaceOnUse" x="2" y="2" width="28" height="28">
<path d="M16.0013 29.3346C23.3653 29.3346 29.3346 23.3653 29.3346 16.0013C29.3346 8.6373 23.3653 2.66797 16.0013 2.66797C8.6373 2.66797 2.66797 8.6373 2.66797 16.0013C2.66797 18.1346 3.1693 20.1506 4.05864 21.9386C4.29597 22.4133 4.37464 22.956 4.2373 23.4693L3.44397 26.4373C3.3654 26.731 3.36547 27.0402 3.44418 27.3339C3.52288 27.6276 3.67746 27.8954 3.89239 28.1105C4.10732 28.3256 4.37503 28.4803 4.66867 28.5592C4.96231 28.6381 5.27153 28.6384 5.5653 28.56L8.5333 27.7653C9.04848 27.6351 9.59348 27.6982 10.0653 27.9426C11.9092 28.8607 13.9415 29.3373 16.0013 29.3346Z" fill="white"/>
<path d="M20.0026 16.0013C20.0026 16.3549 20.1431 16.6941 20.3931 16.9441C20.6432 17.1942 20.9823 17.3346 21.3359 17.3346C21.6896 17.3346 22.0287 17.1942 22.2787 16.9441C22.5288 16.6941 22.6693 16.3549 22.6693 16.0013C22.6693 15.6477 22.5288 15.3085 22.2787 15.0585C22.0287 14.8084 21.6896 14.668 21.3359 14.668C20.9823 14.668 20.6432 14.8084 20.3931 15.0585C20.1431 15.3085 20.0026 15.6477 20.0026 16.0013ZM14.6693 16.0013C14.6693 16.3549 14.8097 16.6941 15.0598 16.9441C15.3098 17.1942 15.649 17.3346 16.0026 17.3346C16.3562 17.3346 16.6954 17.1942 16.9454 16.9441C17.1955 16.6941 17.3359 16.3549 17.3359 16.0013C17.3359 15.6477 17.1955 15.3085 16.9454 15.0585C16.6954 14.8084 16.3562 14.668 16.0026 14.668C15.649 14.668 15.3098 14.8084 15.0598 15.0585C14.8097 15.3085 14.6693 15.6477 14.6693 16.0013ZM9.33594 16.0013C9.33594 16.3549 9.47641 16.6941 9.72646 16.9441C9.97651 17.1942 10.3156 17.3346 10.6693 17.3346C11.0229 17.3346 11.362 17.1942 11.6121 16.9441C11.8621 16.6941 12.0026 16.3549 12.0026 16.0013C12.0026 15.6477 11.8621 15.3085 11.6121 15.0585C11.362 14.8084 11.0229 14.668 10.6693 14.668C10.3156 14.668 9.97651 14.8084 9.72646 15.0585C9.47641 15.3085 9.33594 15.6477 9.33594 16.0013Z" fill="black"/>
</mask>
<g mask="url(#mask0_4022_16155)">
<path d="M0 0.000488281H32V32.0005H0V0.000488281Z" fill="#FFAA1F"/>
</g>
</svg>
