<svg width="96" height="96" viewBox="0 0 96 96" fill="none" xmlns="http://www.w3.org/2000/svg">
<path fill-rule="evenodd" clip-rule="evenodd" d="M45.8787 61.8787C47.0503 60.7071 48.9498 60.7071 50.1213 61.8787L58.1213 69.8787C59.2929 71.0503 59.2929 72.9498 58.1213 74.1213C56.9498 75.2929 55.0503 75.2929 53.8787 74.1213L51 71.2426V88C51 89.6569 49.6569 91 48 91C46.3431 91 45 89.6569 45 88V71.2426L42.1213 74.1213C40.9497 75.2929 39.0503 75.2929 37.8787 74.1213C36.7071 72.9498 36.7071 71.0503 37.8787 69.8787L45.8787 61.8787Z" fill="#C7C7CC"/>
<path d="M49.9048 15C38.9044 15 30.0476 23.8033 30.0476 34.5882C30.0476 36.4369 30.3064 38.2221 30.7892 39.9125C32.7779 40.4865 34.6396 41.3556 36.3218 42.4683C37.7037 43.3825 38.0829 45.2437 37.1688 46.6256C36.2547 48.0075 34.3934 48.3867 33.0115 47.4725C31.4883 46.4649 29.7567 45.7421 27.8932 45.3805C27.0059 45.2084 26.0866 45.1176 25.1429 45.1176C17.2984 45.1176 11 51.3927 11 59.0588C11 66.7249 17.2984 73 25.1429 73C26.7997 73 28.1429 74.3431 28.1429 76C28.1429 77.6569 26.7997 79 25.1429 79C14.0518 79 5 70.1054 5 59.0588C5 48.2418 13.6795 39.4883 24.4541 39.1291C24.1869 37.6542 24.0476 36.1365 24.0476 34.5882C24.0476 20.4229 35.6578 9 49.9048 9C62.537 9 73.0896 17.9748 75.3257 29.8851C84.5253 33.79 91 42.8372 91 53.4118C91 65.7077 82.2493 75.9372 70.6274 78.4226C69.0072 78.7691 67.4128 77.7365 67.0663 76.1163C66.7198 74.4961 67.7524 72.9018 69.3726 72.5553C78.3316 70.6394 85 62.7719 85 53.4118C85 44.8649 79.4429 37.5635 71.6496 34.8985C69.6154 34.2029 67.4273 33.8235 65.1429 33.8235C62.8124 33.8235 60.5822 34.2183 58.5131 34.941C56.9489 35.4874 55.238 34.6623 54.6916 33.0981C54.1453 31.5339 54.9704 29.823 56.5345 29.2766C59.2316 28.3346 62.1303 27.8235 65.1429 27.8235C66.3247 27.8235 67.4891 27.9022 68.6306 28.0547C65.9082 20.4652 58.5686 15 49.9048 15Z" fill="#C7C7CC"/>
</svg>
