<svg width="24" height="24" viewBox="0 0 24 24" fill="none" xmlns="http://www.w3.org/2000/svg">
<path d="M11.5624 3.26592C11.6056 3.18753 11.669 3.12216 11.746 3.07663C11.8231 3.0311 11.9109 3.00708 12.0004 3.00708C12.0899 3.00708 12.1778 3.0311 12.2548 3.07663C12.3319 3.12216 12.3953 3.18753 12.4384 3.26592L15.3904 8.86992C15.4608 8.99969 15.5591 9.11225 15.6781 9.19954C15.7972 9.28683 15.9341 9.34668 16.079 9.37478C16.224 9.40289 16.3733 9.39856 16.5164 9.3621C16.6594 9.32564 16.7926 9.25797 16.9064 9.16392L21.1834 5.49992C21.2655 5.43315 21.3667 5.39414 21.4724 5.38853C21.5781 5.38291 21.6828 5.41097 21.7715 5.46867C21.8602 5.52637 21.9284 5.61073 21.9661 5.70961C22.0038 5.8085 22.0092 5.9168 21.9814 6.01892L19.1474 16.2649C19.0896 16.4746 18.9649 16.6597 18.7924 16.7921C18.6199 16.9246 18.4089 16.9972 18.1914 16.9989H5.81042C5.59276 16.9974 5.38153 16.9249 5.20882 16.7924C5.0361 16.66 4.91132 16.4748 4.85342 16.2649L2.02042 6.01992C1.99267 5.9178 1.99805 5.8095 2.03577 5.71061C2.07348 5.61173 2.14161 5.52737 2.23032 5.46967C2.31904 5.41197 2.42378 5.38391 2.52946 5.38953C2.63515 5.39514 2.73632 5.43415 2.81842 5.50092L7.09442 9.16492C7.20822 9.25897 7.34143 9.32664 7.48449 9.3631C7.62754 9.39956 7.7769 9.40389 7.92182 9.37578C8.06675 9.34768 8.20366 9.28783 8.32272 9.20054C8.44177 9.11325 8.54003 9.00069 8.61042 8.87092L11.5624 3.26592Z" stroke="#AEAEB2" stroke-linecap="round" stroke-linejoin="round"/>
<path d="M5 21H19" stroke="#AEAEB2" stroke-linecap="round" stroke-linejoin="round"/>
</svg>
