<svg width="16" height="16" viewBox="0 0 16 16" fill="none" xmlns="http://www.w3.org/2000/svg">
<path d="M2 6.66732C2 4.15332 2 2.89598 2.78133 2.11532C3.56267 1.33465 4.81933 1.33398 7.33333 1.33398H8.66667C11.1807 1.33398 12.438 1.33398 13.2187 2.11532C13.9993 2.89665 14 4.15332 14 6.66732V9.33398C14 11.848 14 13.1053 13.2187 13.886C12.4373 14.6666 11.1807 14.6673 8.66667 14.6673H7.33333C4.81933 14.6673 3.562 14.6673 2.78133 13.886C2.00067 13.1046 2 11.848 2 9.33398V6.66732Z" stroke="black"/>
<path d="M5.33301 6.66797H10.6663M5.33301 9.33464H8.66634" stroke="black" stroke-linecap="round"/>
</svg>
