<svg width="32" height="32" viewBox="0 0 32 32" fill="none" xmlns="http://www.w3.org/2000/svg">
<path fill-rule="evenodd" clip-rule="evenodd" d="M5.56267 4.22917C4 5.7905 4 8.30517 4 13.3332V18.6665C4 23.6945 4 26.2092 5.56267 27.7705C7.12533 29.3318 9.63867 29.3332 14.6667 29.3332H17.3333C22.3613 29.3332 24.876 29.3332 26.4373 27.7705C27.9987 26.2078 28 23.6945 28 18.6665V13.3332C28 8.30517 28 5.7905 26.4373 4.22917C24.8747 2.66784 22.3613 2.6665 17.3333 2.6665H14.6667C9.63867 2.6665 7.124 2.6665 5.56267 4.22917ZM9.66667 10.6665C9.66667 10.4013 9.77202 10.1469 9.95956 9.9594C10.1471 9.77186 10.4015 9.6665 10.6667 9.6665H21.3333C21.5986 9.6665 21.8529 9.77186 22.0404 9.9594C22.228 10.1469 22.3333 10.4013 22.3333 10.6665C22.3333 10.9317 22.228 11.1861 22.0404 11.3736C21.8529 11.5611 21.5986 11.6665 21.3333 11.6665H10.6667C10.4015 11.6665 10.1471 11.5611 9.95956 11.3736C9.77202 11.1861 9.66667 10.9317 9.66667 10.6665ZM9.66667 15.9998C9.66667 15.7346 9.77202 15.4803 9.95956 15.2927C10.1471 15.1052 10.4015 14.9998 10.6667 14.9998H21.3333C21.5986 14.9998 21.8529 15.1052 22.0404 15.2927C22.228 15.4803 22.3333 15.7346 22.3333 15.9998C22.3333 16.2651 22.228 16.5194 22.0404 16.7069C21.8529 16.8945 21.5986 16.9998 21.3333 16.9998H10.6667C10.4015 16.9998 10.1471 16.8945 9.95956 16.7069C9.77202 16.5194 9.66667 16.2651 9.66667 15.9998ZM10.6667 20.3332C10.4015 20.3332 10.1471 20.4385 9.95956 20.6261C9.77202 20.8136 9.66667 21.068 9.66667 21.3332C9.66667 21.5984 9.77202 21.8527 9.95956 22.0403C10.1471 22.2278 10.4015 22.3332 10.6667 22.3332H17.3333C17.5985 22.3332 17.8529 22.2278 18.0404 22.0403C18.228 21.8527 18.3333 21.5984 18.3333 21.3332C18.3333 21.068 18.228 20.8136 18.0404 20.6261C17.8529 20.4385 17.5985 20.3332 17.3333 20.3332H10.6667Z" fill="#12B99C"/>
</svg>
