<svg width="16" height="16" viewBox="0 0 16 16" fill="none" xmlns="http://www.w3.org/2000/svg">
<path d="M3.73167 4.66536L7.56301 8.0787C7.6851 8.18741 7.84287 8.24747 8.00634 8.24747C8.16981 8.24747 8.32759 8.18741 8.44967 8.0787L12.2817 4.66536H3.73167ZM13.333 5.51403L9.33701 9.0747C8.97066 9.40119 8.49706 9.5816 8.00634 9.5816C7.51562 9.5816 7.04202 9.40119 6.67567 9.0747L2.66634 5.50136V11.332H13.333V5.51403ZM2.66634 3.33203H13.333C13.6866 3.33203 14.0258 3.47251 14.2758 3.72256C14.5259 3.9726 14.6663 4.31174 14.6663 4.66536V11.332C14.6663 11.6857 14.5259 12.0248 14.2758 12.2748C14.0258 12.5249 13.6866 12.6654 13.333 12.6654H2.66634C2.31272 12.6654 1.97358 12.5249 1.72353 12.2748C1.47348 12.0248 1.33301 11.6857 1.33301 11.332V4.66536C1.33301 4.31174 1.47348 3.9726 1.72353 3.72256C1.97358 3.47251 2.31272 3.33203 2.66634 3.33203V3.33203Z" fill="#21272A"/>
</svg>
