<svg width="22" height="24" viewBox="0 0 22 24" fill="none" xmlns="http://www.w3.org/2000/svg">
<path d="M12.5781 17.2998L14.334 20.3994L13.1279 22.5186C12.9489 22.8266 12.7137 23.0647 12.4189 23.2402C12.1286 23.4131 11.8121 23.5 11.46 23.5H10.3193C9.98766 23.5006 9.68491 23.419 9.40234 23.2539C9.15041 23.1067 8.94234 22.9151 8.77539 22.6748L8.70703 22.5693L7.38867 20.3916L9.1416 17.2998H12.5781ZM19.7188 13.0996L20.9551 15.2773L20.9629 15.291C21.1351 15.5729 21.2197 15.8726 21.2197 16.2002C21.2197 16.5277 21.1351 16.8276 20.9629 17.1094L20.9561 17.1211L20.2666 18.3203C20.0895 18.6273 19.8556 18.8647 19.5605 19.04C19.2691 19.2131 18.9518 19.2998 18.5996 19.2998H16.2812L14.5244 16.1992L16.2812 13.0996H19.7188ZM5.43164 13.0996L7.11035 16.1992L5.43164 19.2998H3.12012C2.76899 19.2998 2.45267 19.2132 2.16113 19.04C1.86568 18.8646 1.63019 18.6269 1.45215 18.3193L0.763672 17.1211L0.756836 17.1094L0.696289 17.0029C0.56469 16.7522 0.50003 16.4868 0.5 16.2002C0.5 15.8727 0.584633 15.5729 0.756836 15.291L0.764648 15.2773L2.00098 13.0996H5.43164ZM12.5781 8.90039L14.335 12L12.5781 15.0996H9.1416L7.38379 12L9.1416 8.90039H12.5781ZM18.5996 4.7002C18.9527 4.7002 19.2693 4.78722 19.5596 4.95996C19.8538 5.13507 20.0885 5.37173 20.2666 5.67871V5.67969L20.9561 6.87891L20.9629 6.89062C21.1351 7.17244 21.2197 7.47232 21.2197 7.7998C21.2197 8.12736 21.1351 8.42711 20.9629 8.70898L20.9551 8.72266L19.7188 10.9004H16.2812L14.5244 7.7998L16.2812 4.7002H18.5996ZM3.12012 4.7002H5.43164L7.11035 7.7998L5.43164 10.9004H2.00098L0.764648 8.72266L0.756836 8.70898L0.696289 8.60254C0.564768 8.35186 0.5 8.08639 0.5 7.7998C0.500033 7.47232 0.584615 7.17244 0.756836 6.89062L0.763672 6.87891L1.45215 5.68164C1.63114 5.3736 1.86639 5.13547 2.16113 4.95996C2.45153 4.78711 2.76797 4.7002 3.12012 4.7002ZM10.2598 0.5H11.46C11.8131 0.5 12.1297 0.586998 12.4199 0.759766C12.7145 0.93515 12.9488 1.17281 13.127 1.48047V1.47949L14.334 3.59961L12.5781 6.7002H9.1416L7.38477 3.59961L8.59277 1.48145C8.77182 1.17331 9.00688 0.935285 9.30176 0.759766C9.59202 0.58705 9.90782 0.500038 10.2598 0.5Z" stroke="black"/>
</svg>
