<svg width="16" height="16" viewBox="0 0 16 16" fill="none" xmlns="http://www.w3.org/2000/svg">
<path d="M2 6.33268L8 2.66602L14 6.33268" stroke="#21272A" stroke-linecap="round" stroke-linejoin="round"/>
<path d="M12.6663 8.66602V12.9327C12.6663 13.1536 12.4873 13.3327 12.2663 13.3327H3.73301C3.51209 13.3327 3.33301 13.1536 3.33301 12.9327V8.66602" stroke="#21272A" stroke-linecap="round" stroke-linejoin="round"/>
<path d="M9.33333 8.00065H6.66667M9.33333 8.00065H9.6C9.82093 8.00065 10 8.17972 10 8.40065V10.2673C10 10.4883 9.82093 10.6673 9.6 10.6673H6.4C6.17909 10.6673 6 10.4883 6 10.2673V8.40065C6 8.17972 6.17909 8.00065 6.4 8.00065H6.66667H9.33333ZM9.33333 8.00065V6.66732C9.33333 6.22287 9.06667 5.33398 8 5.33398C6.93333 5.33398 6.66667 6.22287 6.66667 6.66732V8.00065H9.33333Z" stroke="#21272A" stroke-linecap="round" stroke-linejoin="round"/>
</svg>
