<svg width="16" height="16" viewBox="0 0 16 16" fill="none" xmlns="http://www.w3.org/2000/svg">
<path d="M10.6777 1.33203H5.29767C4.24644 1.33327 3.23863 1.75146 2.49536 2.49486C1.75209 3.23825 1.33407 4.24613 1.33301 5.29736L1.33301 10.6774C1.33424 11.7286 1.75244 12.7364 2.49583 13.4797C3.23923 14.2229 4.24711 14.641 5.29834 14.642H10.6783C11.7296 14.6408 12.7374 14.2226 13.4807 13.4792C14.2239 12.7358 14.6419 11.7279 14.643 10.6767V5.2967C14.6418 4.24547 14.2236 3.23765 13.4802 2.49438C12.7368 1.75111 11.7289 1.33309 10.6777 1.33203V1.33203ZM13.3043 10.6767C13.3043 11.0216 13.2364 11.3632 13.1044 11.6819C12.9724 12.0006 12.7789 12.2901 12.535 12.534C12.2911 12.7779 12.0015 12.9714 11.6829 13.1034C11.3642 13.2354 11.0226 13.3034 10.6777 13.3034H5.29767C4.60115 13.3032 3.93322 13.0264 3.44077 12.5338C2.94832 12.0412 2.67167 11.3732 2.67167 10.6767V5.2967C2.67185 4.60018 2.94867 3.93225 3.44124 3.4398C3.93382 2.94734 4.60182 2.6707 5.29834 2.6707H10.6783C11.3749 2.67087 12.0428 2.94769 12.5352 3.44027C13.0277 3.93284 13.3043 4.60084 13.3043 5.29736V10.6774V10.6767Z" fill="#21272A"/>
<path d="M7.98821 4.54688C7.07583 4.54829 6.20123 4.9114 5.55614 5.55661C4.91105 6.20183 4.54811 7.07649 4.54688 7.98888C4.54793 8.90149 4.91089 9.77643 5.55614 10.4218C6.20139 11.0672 7.07626 11.4303 7.98887 11.4315C8.9016 11.4305 9.77664 11.0674 10.422 10.422C11.0674 9.77664 11.4305 8.9016 11.4315 7.98888C11.4301 7.07626 11.0668 6.20146 10.4213 5.55634C9.77583 4.91121 8.90082 4.54842 7.98821 4.54754V4.54688ZM7.98821 10.0929C7.43037 10.0929 6.89538 9.87127 6.50093 9.47682C6.10648 9.08237 5.88488 8.54738 5.88488 7.98954C5.88488 7.4317 6.10648 6.89671 6.50093 6.50226C6.89538 6.10781 7.43037 5.88621 7.98821 5.88621C8.54605 5.88621 9.08104 6.10781 9.47549 6.50226C9.86994 6.89671 10.0915 7.4317 10.0915 7.98954C10.0915 8.54738 9.86994 9.08237 9.47549 9.47682C9.08104 9.87127 8.54605 10.0929 7.98821 10.0929Z" fill="#21272A"/>
<path d="M11.437 5.39543C11.8924 5.39543 12.2616 5.02621 12.2616 4.57076C12.2616 4.11531 11.8924 3.74609 11.437 3.74609C10.9815 3.74609 10.6123 4.11531 10.6123 4.57076C10.6123 5.02621 10.9815 5.39543 11.437 5.39543Z" fill="#21272A"/>
</svg>
