<svg width="16" height="16" viewBox="0 0 16 16" fill="none" xmlns="http://www.w3.org/2000/svg">
<path d="M14.639 9.1469V14.0662H11.787V9.47623C11.787 8.3229 11.3743 7.53623 10.3423 7.53623C9.55434 7.53623 9.08501 8.0669 8.87901 8.57956C8.80367 8.7629 8.78434 9.01823 8.78434 9.2749V14.0662H5.93101C5.93101 14.0662 5.96967 6.2929 5.93101 5.4869H8.78434V6.7029L8.76567 6.7309H8.78434V6.7029C9.16301 6.11956 9.83967 5.28556 11.355 5.28556C13.2317 5.28556 14.639 6.51223 14.639 9.1469ZM2.94701 1.35156C1.97167 1.35156 1.33301 1.99156 1.33301 2.83356C1.33301 3.6569 1.95301 4.31623 2.90967 4.31623H2.92834C3.92367 4.31623 4.54167 3.6569 4.54167 2.83356C4.52434 1.99156 3.92434 1.35156 2.94767 1.35156H2.94701ZM1.50234 14.0662H4.35434V5.4869H1.50234V14.0662Z" fill="#21272A"/>
</svg>
