<svg width="32" height="32" viewBox="0 0 32 32" fill="none" xmlns="http://www.w3.org/2000/svg">
<path d="M23.3647 9.86268C25.0422 9.49018 27.2272 7.82518 27.5597 7.00518C27.7547 6.52518 26.7822 5.77518 26.5222 5.47268C25.9272 4.78268 26.1672 4.44268 26.3972 3.62018C26.6597 2.68518 26.0372 1.65268 25.1547 1.24768C24.2722 0.842681 23.2172 0.970181 22.3297 1.36518C21.4422 1.76018 20.6847 2.39518 19.9422 3.02018C19.3997 2.67768 18.5347 1.16518 17.1347 2.14768C16.1672 2.82518 16.0797 4.30018 16.2047 5.47768C16.4972 8.19518 17.1672 9.60518 18.4297 9.98518C20.0247 10.4652 21.7897 10.2127 23.3647 9.86268Z" fill="#FFCA28"/>
<path d="M26.0899 2.04492C25.8774 5.70742 22.3049 8.13742 20.6099 9.20742L21.7099 10.1524C21.7099 10.1524 22.4074 10.1674 23.3624 9.86242C24.9999 9.34242 27.3924 7.87242 27.5574 7.00492C27.7999 5.74242 26.5049 6.01742 26.2124 5.01992C26.0599 4.49242 26.9549 3.49492 26.0899 2.04492ZM19.9449 3.02242C19.9449 3.02242 19.3074 2.36992 18.8349 2.07242C18.5999 2.51492 18.4324 2.99492 18.3499 3.48992C18.2024 4.35992 18.3499 5.59492 18.6974 6.51492C18.7524 6.65742 18.9574 6.63492 18.9799 6.48492C19.2799 4.50742 19.9449 3.02242 19.9449 3.02242Z" fill="#E2A610"/>
<path d="M15.49 9.54014C15.49 9.54014 7.69254 10.3826 4.17504 17.1526C0.657543 23.9226 3.64754 28.0276 6.81254 29.5226C9.97754 31.0176 17.9525 31.5451 23.14 30.3151C28.3275 29.0851 29.625 26.5351 29.3825 24.0726C29.03 20.4776 25.69 18.2676 25.69 18.2676C25.69 18.2676 25.8225 13.8276 22.3775 10.9451C19.32 8.38514 15.49 9.54014 15.49 9.54014Z" fill="#FFCA28"/>
<path d="M18.6881 20.9327C17.0156 18.8227 15.0406 18.5402 14.4081 17.7827C14.0631 17.3702 13.8606 16.9527 13.9381 16.4352C14.0206 15.8852 14.6581 15.5052 15.1531 15.4127C15.7306 15.3027 17.1081 15.3602 18.2656 16.4627C18.5406 16.7227 18.4406 17.1277 18.4331 17.4902C18.4131 18.2677 19.5256 19.0227 20.4256 18.3727C21.3281 17.7202 20.6356 16.2677 20.0531 15.5627C19.6131 15.0302 18.0181 13.8577 16.0356 13.6727C15.4781 13.6202 13.2356 13.2877 11.9406 15.7502C11.5681 16.4577 11.4306 18.1677 13.3806 19.6127C13.7881 19.9152 15.9031 20.9902 16.4906 21.6877C17.5081 22.8952 16.8106 23.9577 16.0156 24.0977C13.8481 24.4777 12.6206 23.3052 12.3931 22.6627C12.2306 22.2052 12.4006 21.7102 12.1906 21.2802C11.9756 20.8377 11.5356 20.6627 11.0706 20.8102C9.54561 21.2952 10.0306 22.9627 10.7056 23.8802C11.4281 24.8627 12.3156 25.4552 13.3131 25.7802C17.0356 26.9927 18.8256 25.0777 19.1381 23.6752C19.3681 22.6477 19.3431 21.7577 18.6881 20.9327Z" fill="#6B4B46"/>
<path d="M17.7906 12.2476C14.6231 19.0126 14.0781 27.5551 14.0781 27.5551" stroke="#6B4B46" stroke-width="1.25" stroke-miterlimit="10"/>
<path d="M20.418 7.99013C22.528 8.67763 22.9955 10.5851 22.843 11.1051C22.6605 11.7151 20.323 9.34013 16.848 9.48263C15.633 9.53263 15.9855 8.78763 16.548 8.35763C17.2905 7.79013 18.538 7.38013 20.418 7.99013Z" fill="#6D4C41"/>
<path d="M20.418 7.99013C22.528 8.67763 22.9955 10.5851 22.843 11.1051C22.6605 11.7151 20.323 9.34013 16.848 9.48263C15.633 9.53263 15.9855 8.78763 16.548 8.35763C17.2905 7.79013 18.538 7.38013 20.418 7.99013Z" fill="#6B4B46"/>
<path d="M24.1244 14.715C24.3894 14.5325 25.2794 14.8475 25.5294 16.59C25.6519 17.4425 25.6894 18.2675 25.6894 18.2675C25.6894 18.2675 24.6394 17.325 24.2919 16.6625C23.8544 15.825 23.6844 15.015 24.1244 14.715Z" fill="#E2A610"/>
</svg>
