<svg width="16" height="16" viewBox="0 0 16 16" fill="none" xmlns="http://www.w3.org/2000/svg">
<g clip-path="url(#clip0_2346_11316)">
<path d="M7.99953 1.99947C8.08753 1.99947 8.17486 1.99947 8.26153 1.99947C7.40509 2.79528 6.85459 3.86604 6.70572 5.02562C6.55686 6.18521 6.81903 7.3603 7.44669 8.34663C8.07434 9.33296 9.02777 10.0682 10.1413 10.4245C11.2548 10.7807 12.4579 10.7356 13.5415 10.2968C13.1247 11.2998 12.4434 12.1708 11.5703 12.817C10.6973 13.4631 9.66516 13.8602 8.58413 13.9657C7.50311 14.0713 6.4137 13.8814 5.43212 13.4164C4.45054 12.9514 3.6136 12.2286 3.01059 11.3252C2.40757 10.4218 2.0611 9.37166 2.00812 8.28679C1.95514 7.20191 2.19765 6.123 2.70978 5.16515C3.2219 4.20729 3.98444 3.40642 4.91604 2.84796C5.84764 2.2895 6.91336 1.9944 7.99953 1.99414V1.99947Z" stroke="#21272A" stroke-linecap="round" stroke-linejoin="round"/>
</g>
<defs>
<clipPath id="clip0_2346_11316">
<rect width="16" height="16" fill="white"/>
</clipPath>
</defs>
</svg>
