<svg width="16" height="16" viewBox="0 0 16 16" fill="none" xmlns="http://www.w3.org/2000/svg">
<path d="M8.0007 8C6.34758 8 4.89133 6.44687 4.7507 4.5375C4.67883 3.56875 4.97883 2.67188 5.59445 2.0125C6.2007 1.35938 7.05695 1 8.0007 1C8.9382 1 9.79133 1.3625 10.4007 2.01875C11.0195 2.68437 11.3195 3.57812 11.2476 4.5375C11.107 6.44687 9.6507 8 8.0007 8ZM8.0007 2C7.3382 2 6.74133 2.24687 6.3257 2.69375C5.90383 3.14687 5.69758 3.77812 5.74758 4.46562C5.84758 5.84062 6.87883 7.00313 7.99758 7.00313C9.11633 7.00313 10.1476 5.84062 10.2476 4.46562C10.2976 3.7875 10.0913 3.15937 9.6632 2.7C9.2507 2.24688 8.65695 2 8.0007 2Z" fill="#21272A"/>
<path d="M13.5002 15.0008H2.50023C2.20023 15.0008 1.93148 14.8758 1.74398 14.6539C1.54086 14.4102 1.45961 14.0789 1.51898 13.7445C1.78148 12.282 2.60648 11.0508 3.90023 10.1914C5.05023 9.42578 6.50648 9.00391 8.00023 9.00391C9.49398 9.00391 10.9502 9.42578 12.1002 10.1914C13.394 11.0539 14.219 12.282 14.4815 13.7445C14.5409 14.0789 14.4596 14.4102 14.2565 14.6539C14.069 14.8758 13.8002 15.0008 13.5002 15.0008ZM2.50648 14.0008H13.494C13.5002 13.9852 13.5034 13.9602 13.4971 13.9195C13.0127 11.2289 10.3065 10.0008 8.00023 10.0008C5.69398 10.0008 2.98773 11.2289 2.50336 13.9195C2.49711 13.9602 2.50023 13.9852 2.50648 14.0008Z" fill="#21272A"/>
</svg>
