<svg width="32" height="32" viewBox="0 0 32 32" fill="none" xmlns="http://www.w3.org/2000/svg">
<path fill-rule="evenodd" clip-rule="evenodd" d="M8.00078 3.2002C7.15209 3.2002 6.33816 3.53734 5.73804 4.13745C5.13792 4.73757 4.80078 5.5515 4.80078 6.4002V28.8002L10.4008 25.6002L16.0008 28.8002L21.6008 25.6002L27.2008 28.8002V6.4002C27.2008 5.5515 26.8636 4.73757 26.2635 4.13745C25.6634 3.53734 24.8495 3.2002 24.0008 3.2002H8.00078ZM12.0008 8.0002C11.3643 8.0002 10.7538 8.25305 10.3037 8.70314C9.85364 9.15323 9.60078 9.76368 9.60078 10.4002C9.60078 11.0367 9.85364 11.6472 10.3037 12.0973C10.7538 12.5473 11.3643 12.8002 12.0008 12.8002C12.6373 12.8002 13.2478 12.5473 13.6978 12.0973C14.1479 11.6472 14.4008 11.0367 14.4008 10.4002C14.4008 9.76368 14.1479 9.15323 13.6978 8.70314C13.2478 8.25305 12.6373 8.0002 12.0008 8.0002ZM21.932 8.469C21.6319 8.16904 21.225 8.00054 20.8008 8.00054C20.3765 8.00054 19.9696 8.16904 19.6696 8.469L10.0696 18.069C9.91677 18.2166 9.79487 18.3931 9.71102 18.5883C9.62716 18.7836 9.58303 18.9935 9.58118 19.206C9.57933 19.4184 9.61982 19.6291 9.70027 19.8257C9.78072 20.0224 9.89952 20.201 10.0497 20.3512C10.2 20.5015 10.3786 20.6203 10.5753 20.7007C10.7719 20.7812 10.9826 20.8216 11.195 20.8198C11.4075 20.818 11.6174 20.7738 11.8126 20.69C12.0078 20.6061 12.1844 20.4842 12.332 20.3314L21.932 10.7314C22.2319 10.4314 22.4004 10.0245 22.4004 9.6002C22.4004 9.17593 22.2319 8.76904 21.932 8.469ZM20.0008 16.0002C19.3643 16.0002 18.7538 16.2531 18.3037 16.7031C17.8536 17.1532 17.6008 17.7637 17.6008 18.4002C17.6008 19.0367 17.8536 19.6472 18.3037 20.0973C18.7538 20.5473 19.3643 20.8002 20.0008 20.8002C20.6373 20.8002 21.2478 20.5473 21.6978 20.0973C22.1479 19.6472 22.4008 19.0367 22.4008 18.4002C22.4008 17.7637 22.1479 17.1532 21.6978 16.7031C21.2478 16.2531 20.6373 16.0002 20.0008 16.0002Z" fill="#4791FF"/>
</svg>
