<svg width="32" height="32" viewBox="0 0 32 32" fill="none" xmlns="http://www.w3.org/2000/svg">
<path d="M4 9.33333V6.66667C4 5.95942 4.28095 5.28115 4.78105 4.78105C5.28115 4.28095 5.95942 4 6.66667 4H9.33333" stroke="black" stroke-width="1.5" stroke-linecap="round" stroke-linejoin="round"/>
<path d="M22.667 4H25.3337C26.0409 4 26.7192 4.28095 27.2193 4.78105C27.7194 5.28115 28.0003 5.95942 28.0003 6.66667V9.33333" stroke="black" stroke-width="1.5" stroke-linecap="round" stroke-linejoin="round"/>
<path d="M28.0003 22.6666V25.3333C28.0003 26.0405 27.7194 26.7188 27.2193 27.2189C26.7192 27.719 26.0409 28 25.3337 28H22.667" stroke="black" stroke-width="1.5" stroke-linecap="round" stroke-linejoin="round"/>
<path d="M9.33333 28H6.66667C5.95942 28 5.28115 27.719 4.78105 27.2189C4.28095 26.7188 4 26.0405 4 25.3333V22.6666" stroke="black" stroke-width="1.5" stroke-linecap="round" stroke-linejoin="round"/>
<path d="M10.667 18.6666C10.667 18.6666 12.667 21.3333 16.0003 21.3333C19.3337 21.3333 21.3337 18.6666 21.3337 18.6666" stroke="black" stroke-width="1.5" stroke-linecap="round" stroke-linejoin="round"/>
<path d="M12 12H12.0133" stroke="black" stroke-width="1.5" stroke-linecap="round" stroke-linejoin="round"/>
<path d="M20 12H20.0133" stroke="black" stroke-width="1.5" stroke-linecap="round" stroke-linejoin="round"/>
</svg>
