<svg width="24" height="24" viewBox="0 0 24 24" fill="none" xmlns="http://www.w3.org/2000/svg">
<mask id="mask0_2090_9122" style="mask-type:luminance" maskUnits="userSpaceOnUse" x="11" y="0" width="13" height="13">
<path d="M11.4961 0H24.0001V12.8593H11.4961V0Z" fill="white"/>
</mask>
<g mask="url(#mask0_2090_9122)">
<path d="M18.0006 5.24922L11.8509 11.399C11.65 11.5999 11.65 11.9516 11.8509 12.1489C12.0482 12.3498 12.3998 12.3498 12.6008 12.1489L18.7505 5.9991L20.5983 6.25026L23.9997 2.84886L21.4989 2.50082L21.1509 0L17.6992 3.45164L18.0006 5.24922Z" fill="#59CC01"/>
</g>
<mask id="mask1_2090_9122" style="mask-type:luminance" maskUnits="userSpaceOnUse" x="0" y="0" width="24" height="24">
<path d="M0 0H23.9998V24H0V0Z" fill="white"/>
</mask>
<g mask="url(#mask1_2090_9122)">
<path d="M21.0003 7.25131C21.7502 8.65062 22.1986 10.2509 22.1986 12.0018C22.1986 17.599 17.6491 22.1486 12.0483 22.1486C6.4009 22.1486 1.84779 17.599 1.84779 12.0018C1.84779 6.40096 6.4009 1.8514 11.9981 1.8514C13.6988 1.8514 15.299 2.24966 16.7485 2.99955L18.1012 1.65047C16.3001 0.599193 14.2011 0 11.9981 0C5.39986 0 0 5.39991 0 12.0018C0 18.6001 5.39986 24 11.9981 24C18.5999 24 23.9998 18.6001 23.9998 12.0018C23.9998 9.79877 23.4006 7.69981 22.3493 5.89864L21.0003 7.25131Z" fill="#59CC01"/>
</g>
<path d="M16.6984 5.14876C15.3493 4.20154 13.7491 3.69922 11.9981 3.69922C7.39839 3.69922 3.69922 7.39843 3.69922 12.0018C3.69922 16.6016 7.39839 20.3008 11.9981 20.3008C16.5979 20.3008 20.3007 16.6016 20.3007 12.0018C20.3007 10.2509 19.7481 8.65063 18.8511 7.30155L17.4985 8.65063C18.1012 9.65168 18.4493 10.7998 18.4493 12.0018C18.4493 15.5503 15.5502 18.4494 11.9981 18.4494C8.44966 18.4494 5.5506 15.5503 5.5506 12.0018C5.5506 8.44971 8.44966 5.55062 11.9981 5.55062C13.2503 5.55062 14.3985 5.89865 15.3493 6.50143L16.6984 5.14876Z" fill="#59CC01"/>
<path d="M11.9982 9.24983C12.1991 9.24983 12.4 9.24983 12.5507 9.30007L14.0003 7.85052C13.4011 7.54913 12.6978 7.39844 11.9982 7.39844C9.45075 7.39844 7.39844 9.45076 7.39844 12.0018C7.39844 14.5493 9.45075 16.6016 11.9982 16.6016C14.5492 16.6016 16.5979 14.5493 16.5979 12.0018C16.5979 11.2986 16.4508 10.5989 16.1494 9.99972L14.6999 11.4493C14.7501 11.6502 14.7501 11.8009 14.7501 12.0018C14.7501 13.5518 13.498 14.7502 11.9982 14.7502C10.4482 14.7502 9.24982 13.5016 9.24982 12.0018C9.24982 10.4518 10.4482 9.24983 11.9982 9.24983Z" fill="#59CC01"/>
</svg>
