<svg width="32" height="32" viewBox="0 0 32 32" fill="none" xmlns="http://www.w3.org/2000/svg">
<path fill-rule="evenodd" clip-rule="evenodd" d="M12.5725 0C11.9663 0 11.385 0.240816 10.9563 0.66947C10.5276 1.09812 10.2868 1.67951 10.2868 2.28571V3.44229C10.2905 4.04612 10.5329 4.62398 10.9611 5.04967C11.3894 5.47536 11.9687 5.7143 12.5725 5.71429H19.4297C20.0359 5.71429 20.6173 5.47347 21.0459 5.04482C21.4746 4.61616 21.7154 4.03478 21.7154 3.42857V2.28571C21.7154 1.67951 21.4746 1.09812 21.0459 0.66947C20.6173 0.240816 20.0359 0 19.4297 0L12.5725 0ZM8.00112 2.28571H6.85826C5.94895 2.28571 5.07687 2.64694 4.43389 3.28992C3.79091 3.9329 3.42969 4.80497 3.42969 5.71429V28.5714C3.42969 29.4807 3.79091 30.3528 4.43389 30.9958C5.07687 31.6388 5.94895 32 6.85826 32H25.144C26.0533 32 26.9254 31.6388 27.5683 30.9958C28.2113 30.3528 28.5725 29.4807 28.5725 28.5714V5.71429C28.5725 4.80497 28.2113 3.9329 27.5683 3.28992C26.9254 2.64694 26.0533 2.28571 25.144 2.28571H24.0011V3.42857C24.0011 4.64099 23.5195 5.80375 22.6622 6.66106C21.8049 7.51837 20.6421 8 19.4297 8H12.5725C11.3601 8 10.1974 7.51837 9.34006 6.66106C8.48275 5.80375 8.00112 4.64099 8.00112 3.42857V2.28571ZM10.3714 15.0149C10.3593 14.7795 10.3952 14.5442 10.477 14.3232C10.5587 14.1022 10.6845 13.9002 10.8468 13.7293C11.0091 13.5585 11.2044 13.4225 11.421 13.3295C11.6375 13.2366 11.8706 13.1886 12.1063 13.1886C12.3419 13.1886 12.575 13.2366 12.7916 13.3295C13.0081 13.4225 13.2034 13.5585 13.3657 13.7293C13.528 13.9002 13.6538 14.1022 13.7356 14.3232C13.8173 14.5442 13.8532 14.7795 13.8411 15.0149C13.8183 15.4596 13.6255 15.8785 13.3027 16.1852C12.9798 16.4919 12.5516 16.6629 12.1063 16.6629C11.661 16.6629 11.2327 16.4919 10.9098 16.1852C10.587 15.8785 10.3942 15.4596 10.3714 15.0149ZM12.1063 10.4206C10.8878 10.4206 9.7192 10.9046 8.85761 11.7662C7.99601 12.6278 7.51197 13.7964 7.51197 15.0149C7.51197 16.2333 7.99601 17.4019 8.85761 18.2635C9.7192 19.1251 10.8878 19.6091 12.1063 19.6091C13.3247 19.6091 14.4933 19.1251 15.3549 18.2635C16.2165 17.4019 16.7005 16.2333 16.7005 15.0149C16.7005 13.7964 16.2165 12.6278 15.3549 11.7662C14.4933 10.9046 13.3247 10.4206 12.1063 10.4206ZM23.7634 20.3223C23.8961 20.4549 24.0014 20.6124 24.0732 20.7858C24.145 20.9591 24.182 21.1449 24.182 21.3326C24.182 21.5202 24.145 21.706 24.0732 21.8794C24.0014 22.0527 23.8961 22.2102 23.7634 22.3429L21.912 24.192L23.7588 26.0366C23.8915 26.1692 23.9967 26.3267 24.0685 26.5001C24.1404 26.6734 24.1773 26.8592 24.1773 27.0469C24.1773 27.2345 24.1404 27.4203 24.0685 27.5936C23.9967 27.767 23.8915 27.9245 23.7588 28.0571C23.6262 28.1898 23.4687 28.2951 23.2953 28.3669C23.122 28.4387 22.9362 28.4756 22.7485 28.4756C22.5609 28.4756 22.3751 28.4387 22.2018 28.3669C22.0284 28.2951 21.8709 28.1898 21.7383 28.0571L19.8937 26.2126L18.0491 28.0571C17.9164 28.1898 17.7589 28.2951 17.5856 28.3669C17.4122 28.4387 17.2265 28.4756 17.0388 28.4756C16.8512 28.4756 16.6654 28.4387 16.4921 28.3669C16.3187 28.2951 16.1612 28.1898 16.0285 28.0571C15.8959 27.9245 15.7906 27.767 15.7188 27.5936C15.647 27.4203 15.6101 27.2345 15.6101 27.0469C15.6101 26.8592 15.647 26.6734 15.7188 26.5001C15.7906 26.3267 15.8959 26.1692 16.0285 26.0366L17.8731 24.192L16.024 22.3406C15.885 22.2094 15.7737 22.0516 15.6968 21.8766C15.6198 21.7017 15.5788 21.513 15.5761 21.3219C15.5734 21.1308 15.6091 20.941 15.681 20.764C15.753 20.5869 15.8597 20.426 15.9949 20.2909C16.1302 20.1559 16.2912 20.0493 16.4683 19.9775C16.6455 19.9058 16.8353 19.8703 17.0264 19.8733C17.2175 19.8762 17.4061 19.9174 17.581 19.9946C17.7559 20.0717 17.9135 20.1831 18.0445 20.3223L19.8937 22.1714L21.7428 20.32C21.8755 20.1873 22.033 20.082 22.2063 20.0102C22.3797 19.9384 22.5655 19.9014 22.7531 19.9014C22.9408 19.9014 23.1265 19.9384 23.2999 20.0102C23.4732 20.082 23.6307 20.1896 23.7634 20.3223Z" fill="#4791FF"/>
</svg>
