<svg width="16" height="16" viewBox="0 0 16 16" fill="none" xmlns="http://www.w3.org/2000/svg">
<path d="M8.00651 1.33203C11.6885 1.33203 14.6732 4.3167 14.6732 7.9987C14.6732 11.6807 11.6885 14.6654 8.00651 14.6654C4.32451 14.6654 1.33984 11.6807 1.33984 7.9987C1.33984 4.3167 4.32451 1.33203 8.00651 1.33203ZM10.9678 5.33203C10.7138 5.3367 10.3238 5.47003 8.44851 6.24003C7.13217 6.78957 5.81947 7.3478 4.51051 7.9147C4.19051 8.0407 4.02384 8.16336 4.00851 8.28336C3.97918 8.51403 4.31518 8.58536 4.73784 8.72136C5.08251 8.83203 5.54651 8.96136 5.78784 8.9667C6.00651 8.97136 6.25051 8.88203 6.51984 8.70003C8.35984 7.47336 9.30851 6.85403 9.36851 6.8407C9.41051 6.83136 9.46851 6.81936 9.50851 6.85403C9.54784 6.8887 9.54384 6.95403 9.53918 6.97203C9.50584 7.1127 7.77851 8.66403 7.67918 8.76603L7.63118 8.81403C7.26451 9.17603 6.89451 9.4127 7.53318 9.82803C8.11051 10.2034 8.44651 10.4427 9.03984 10.828C9.41984 11.0734 9.71784 11.3647 10.1098 11.3294C10.2905 11.3127 10.4765 11.1454 10.5718 10.6454C10.7952 9.46536 11.2352 6.9067 11.3365 5.85203C11.3426 5.76455 11.3388 5.67666 11.3252 5.59003C11.3169 5.52009 11.2827 5.45582 11.2292 5.41003C11.1485 5.3447 11.0232 5.33136 10.9678 5.33203Z" fill="#21272A"/>
</svg>
