<svg width="16" height="16" viewBox="0 0 16 16" fill="none" xmlns="http://www.w3.org/2000/svg">
<g clip-path="url(#clip0_2341_11188)">
<path d="M5.99968 8.0013C5.47226 8.0013 4.95669 8.1577 4.51815 8.45072C4.07962 8.74373 3.73783 9.16021 3.536 9.64748C3.33416 10.1347 3.28135 10.6709 3.38425 11.1882C3.48714 11.7055 3.74112 12.1806 4.11406 12.5536C4.487 12.9265 4.96215 13.1805 5.47943 13.2834C5.99672 13.3863 6.5329 13.3335 7.02017 13.1316C7.50743 12.9298 7.92391 12.588 8.21693 12.1495C8.50995 11.711 8.66634 11.1954 8.66634 10.668V2.66797C8.66634 3.55202 9.01753 4.39987 9.64265 5.02499C10.2678 5.65011 11.1156 6.0013 11.9997 6.0013" stroke="#21272A" stroke-width="2" stroke-linecap="round" stroke-linejoin="round"/>
</g>
<defs>
<clipPath id="clip0_2341_11188">
<rect width="16" height="16" fill="white"/>
</clipPath>
</defs>
</svg>
