<svg width="16" height="16" viewBox="0 0 16 16" fill="none" xmlns="http://www.w3.org/2000/svg">
<path d="M14.6663 3.93713C14.1666 4.15538 13.6373 4.29849 13.0957 4.3618C13.6642 4.02795 14.0917 3.49854 14.2983 2.87247C13.7597 3.18602 13.1722 3.40687 12.5603 3.5258C12.3027 3.25594 11.9928 3.04139 11.6495 2.89525C11.3062 2.74911 10.9368 2.67444 10.5637 2.6758C9.05301 2.6758 7.82834 3.88247 7.82834 5.36913C7.82834 5.5798 7.85234 5.7858 7.89901 5.98247C6.81539 5.93093 5.75442 5.65407 4.78379 5.16956C3.81315 4.68505 2.95418 4.00352 2.26167 3.16847C2.01889 3.57807 1.89128 4.04565 1.89234 4.5218C1.89281 4.96711 2.00423 5.40529 2.21653 5.79673C2.42884 6.18817 2.73534 6.52054 3.10834 6.7638C2.67466 6.7498 2.25036 6.63402 1.86967 6.4258V6.45913C1.86967 7.76447 2.81301 8.85313 4.06301 9.10113C3.82808 9.16347 3.58606 9.19506 3.34301 9.19513C3.16634 9.19513 2.99501 9.17847 2.82767 9.14513C3.0064 9.68375 3.34841 10.1533 3.80622 10.4887C4.26403 10.824 4.8149 11.0085 5.38234 11.0165C4.40905 11.7662 3.21422 12.1712 1.98567 12.1678C1.76434 12.1678 1.54701 12.1545 1.33301 12.1305C2.58718 12.9243 4.0414 13.3447 5.52567 13.3425C10.557 13.3425 13.3077 9.2378 13.3077 5.67847L13.2983 5.3298C13.8349 4.95225 14.2984 4.48036 14.6663 3.93713Z" fill="#21272A"/>
</svg>
