<svg width="16" height="16" viewBox="0 0 16 16" fill="none" xmlns="http://www.w3.org/2000/svg">
<path d="M1.33301 13.3333V12.6667C1.33301 10.0893 3.42235 8 5.99967 8" stroke="#21272A" stroke-linecap="round" stroke-linejoin="round"/>
<path d="M10.5357 8.20977C10.9635 7.73997 11.7027 7.73997 12.1306 8.20977C12.3469 8.44724 12.6577 8.57597 12.9785 8.56097C13.6132 8.5313 14.1359 9.05404 14.1063 9.68877C14.0913 10.0096 14.22 10.3204 14.4575 10.5366C14.9273 10.9645 14.9273 11.7037 14.4575 12.1316C14.22 12.3478 14.0913 12.6586 14.1063 12.9794C14.1359 13.6142 13.6132 14.1369 12.9785 14.1072C12.6577 14.0922 12.3469 14.221 12.1306 14.4584C11.7027 14.9282 10.9635 14.9282 10.5357 14.4584C10.3194 14.221 10.0086 14.0922 9.68779 14.1072C9.05306 14.1369 8.53033 13.6142 8.55999 12.9794C8.57499 12.6586 8.44626 12.3478 8.2088 12.1316C7.739 11.7037 7.739 10.9645 8.2088 10.5366C8.44626 10.3204 8.57499 10.0096 8.55999 9.68877C8.53033 9.05404 9.05306 8.5313 9.68779 8.56097C10.0086 8.57597 10.3194 8.44724 10.5357 8.20977Z" stroke="#21272A"/>
<path d="M10.2422 11.3327L10.9695 12.06L12.4241 10.6055" stroke="#21272A" stroke-linecap="round" stroke-linejoin="round"/>
<path d="M5.99967 7.99935C7.47241 7.99935 8.66634 6.80542 8.66634 5.33268C8.66634 3.85992 7.47241 2.66602 5.99967 2.66602C4.52691 2.66602 3.33301 3.85992 3.33301 5.33268C3.33301 6.80542 4.52691 7.99935 5.99967 7.99935Z" stroke="#21272A" stroke-linecap="round" stroke-linejoin="round"/>
</svg>
