<svg width="32" height="32" viewBox="0 0 32 32" fill="none" xmlns="http://www.w3.org/2000/svg">
<path fill-rule="evenodd" clip-rule="evenodd" d="M27.2114 13.1469C27.1337 13.1433 27.0559 13.1419 26.9781 13.1429H23.7314C21.0754 13.1429 18.8008 15.2509 18.8008 18.0002C18.8008 20.7495 21.0754 22.8575 23.7328 22.8575H26.9768C27.0586 22.8584 27.1363 22.8566 27.2101 22.8522C27.7582 22.8166 28.2746 22.5833 28.6636 22.1956C29.0525 21.8079 29.2875 21.2921 29.3248 20.7442C29.3301 20.6655 29.3301 20.5815 29.3301 20.5042V15.4962C29.3301 15.4189 29.3301 15.3349 29.3248 15.2562C29.2875 14.7085 29.0528 14.1929 28.6641 13.8052C28.2754 13.4175 27.7592 13.1841 27.2114 13.1482M23.4474 19.2962C24.1314 19.2962 24.6874 18.7175 24.6874 18.0015C24.6874 17.2855 24.1314 16.7069 23.4474 16.7069C22.7634 16.7069 22.2088 17.2855 22.2088 18.0015C22.2088 18.7175 22.7621 19.2962 23.4474 19.2962Z" fill="#6A35FF"/>
<path fill-rule="evenodd" clip-rule="evenodd" d="M26.98 24.7998C27.0246 24.7983 27.0691 24.8072 27.1096 24.826C27.1502 24.8447 27.1858 24.8727 27.2136 24.9078C27.2413 24.9428 27.2605 24.9839 27.2695 25.0276C27.2785 25.0714 27.277 25.1167 27.2653 25.1598C27.0066 26.0825 26.5973 26.8692 25.94 27.5305C24.9786 28.4998 23.7586 28.9305 22.252 29.1345C20.788 29.3332 18.9186 29.3332 16.556 29.3332H13.84C11.4786 29.3332 9.60797 29.3332 8.14397 29.1345C6.6373 28.9305 5.4173 28.4998 4.45597 27.5305C3.49464 26.5638 3.06797 25.3332 2.8653 23.8158C2.66797 22.3385 2.66797 20.4532 2.66797 18.0732V17.9265C2.66797 15.5465 2.66797 13.6598 2.8653 12.1852C3.06797 10.6665 3.49464 9.43984 4.45464 8.46784C5.41597 7.49984 6.63597 7.06784 8.14264 6.86517C9.60797 6.6665 11.4786 6.6665 13.84 6.6665H16.556C18.9173 6.6665 20.788 6.6665 22.252 6.86517C23.7586 7.06917 24.9786 7.49984 25.94 8.46784C26.5973 9.1305 27.0066 9.91717 27.2653 10.8412C27.2768 10.8842 27.278 10.9294 27.2689 10.973C27.2598 11.0166 27.2406 11.0574 27.2129 11.0923C27.1852 11.1272 27.1496 11.1551 27.1092 11.1737C27.0688 11.1924 27.0245 11.2013 26.98 11.1998H23.736C20.0906 11.1998 16.8786 14.1025 16.8786 17.9998C16.8786 21.8972 20.092 24.7998 23.7373 24.7998H26.98ZM7.48664 11.8478C7.35969 11.8484 7.23409 11.8739 7.11701 11.9229C6.99993 11.972 6.89366 12.0437 6.80427 12.1338C6.71488 12.2239 6.64411 12.3308 6.59602 12.4483C6.54793 12.5658 6.52344 12.6916 6.52397 12.8185C6.52397 13.3558 6.95464 13.7905 7.48664 13.7905H12.628C13.1613 13.7905 13.592 13.3558 13.592 12.8185C13.5927 12.562 13.4916 12.3157 13.3108 12.1337C13.1301 11.9517 12.8845 11.8489 12.628 11.8478H7.48664Z" fill="#6A35FF"/>
<path d="M10.3711 5.36514L12.9818 3.44114C13.6631 2.93769 14.4879 2.66602 15.3351 2.66602C16.1823 2.66602 17.0071 2.93769 17.6884 3.44114L20.3138 5.37581C19.2151 5.33314 17.9884 5.33314 16.6458 5.33314H13.7524C12.5231 5.33314 11.3938 5.33314 10.3711 5.36514Z" fill="#6A35FF"/>
</svg>
