<svg width="16" height="16" viewBox="0 0 16 16" fill="none" xmlns="http://www.w3.org/2000/svg">
<path d="M7.6775 1.3404C4.1375 1.50707 1.34483 4.43373 1.3555 7.95173C1.35725 8.98726 1.60518 10.0075 2.07883 10.9284L1.3735 14.3291C1.36489 14.3716 1.36715 14.4156 1.38005 14.457C1.39296 14.4984 1.41609 14.5359 1.44733 14.566C1.47856 14.5961 1.51688 14.6179 1.55874 14.6292C1.60061 14.6406 1.64466 14.6412 1.68683 14.6311L5.04283 13.8417C5.93169 14.281 6.90746 14.516 7.89883 14.5297C11.5168 14.5851 14.5328 11.7331 14.6455 8.14307C14.7668 4.29307 11.5675 1.15573 7.6775 1.33973V1.3404ZM11.6822 11.5851C11.1985 12.067 10.6245 12.4488 9.99298 12.7085C9.36149 12.9681 8.68496 13.1007 8.00217 13.0984C7.19884 13.1009 6.40595 12.9164 5.68617 12.5597L5.21883 12.3284L3.16083 12.8124L3.59417 10.7251L3.3635 10.2771C2.98957 9.55223 2.79566 8.74801 2.79817 7.9324C2.79817 6.5524 3.3395 5.2544 4.32217 4.27907C5.30163 3.30953 6.624 2.76549 8.00217 2.76507C9.39283 2.76507 10.6995 3.3024 11.6822 4.2784C12.1663 4.75549 12.5505 5.3243 12.8123 5.95158C13.0741 6.57885 13.2082 7.25202 13.2068 7.93173C13.2068 9.29973 12.6568 10.6184 11.6822 11.5857V11.5851Z" fill="#21272A"/>
<path d="M11.2279 9.36203L9.9406 8.99536C9.85753 8.97152 9.76957 8.97045 9.68595 8.99226C9.60232 9.01408 9.5261 9.05798 9.46526 9.11936L9.1506 9.43803C9.08549 9.50398 9.00238 9.54927 8.91167 9.56824C8.82097 9.58721 8.72668 9.57902 8.6406 9.5447C8.03193 9.30003 6.7506 8.16936 6.42326 7.60336C6.37738 7.52342 6.35642 7.43159 6.36307 7.33966C6.36972 7.24772 6.40368 7.15987 6.4606 7.08736L6.73526 6.73403C6.78814 6.66633 6.8216 6.58552 6.83205 6.50026C6.8425 6.41499 6.82956 6.32849 6.7946 6.25003L6.25326 5.03403C6.22265 4.96606 6.17668 4.90613 6.11898 4.85893C6.06129 4.81173 5.99343 4.77855 5.92074 4.76201C5.84806 4.74547 5.77253 4.74602 5.70009 4.7636C5.62765 4.78119 5.56027 4.81534 5.50326 4.86336C5.14393 5.16536 4.71726 5.62336 4.66593 6.13203C4.5746 7.02736 4.96126 8.15603 6.42393 9.51203C8.11393 11.078 9.46793 11.2854 10.3486 11.0727C10.8486 10.9527 11.2486 10.4707 11.4999 10.0767C11.5401 10.0141 11.5651 9.94297 11.5728 9.86899C11.5805 9.79501 11.5707 9.72026 11.5442 9.65074C11.5178 9.58123 11.4754 9.51889 11.4204 9.46875C11.3655 9.4186 11.2996 9.38205 11.2279 9.36203Z" fill="#21272A"/>
</svg>
